<?xml version="1.0" standalone="no"?>
<!DOCTYPE svg PUBLIC "-//W3C//DTD SVG 1.1//EN" "http://www.w3.org/Graphics/SVG/1.1/DTD/svg11.dtd" >
<svg>
<metadata>
Created by FontForge 20090622 at Wed Mar  5 05:08:59 2014
 By ffonts
1.2, Copyright Copr. Castcraft Software, Inc. 1990-1991.
</metadata>
<defs>
<font id="OPTIMistral-Graff" horiz-adv-x="553" >
  <font-face 
    font-family="OPTIMistral-Graff"
    font-weight="500"
    font-stretch="normal"
    units-per-em="1000"
    panose-1="0 0 0 0 0 0 0 0 0 0"
    ascent="800"
    descent="-200"
    x-height="301"
    cap-height="682"
    bbox="-11.8889 -336.353 886.213 954"
    underline-thickness="54"
    underline-position="-72"
    stemh="57"
    stemv="82"
    unicode-range="U+0020-U+FB02"
  />
<missing-glyph horiz-adv-x="280" 
 />
    <glyph glyph-name=".notdef" horiz-adv-x="280" 
 />
    <glyph glyph-name="space" unicode=" " horiz-adv-x="178" 
d="M0 0z" />
    <glyph glyph-name="exclam" unicode="!" horiz-adv-x="240" 
d="M207 703l6 -6c0 -10 1 -22 0 -37v-14c-5 -20 -10 -35 -13 -55v-22c-2 -5 -4 -12 -4 -19l-3 -21l-18 -135c-2 -19 -7 -29 -11 -50l-10 -52c-4 -8 -3 -23 -3 -24v-21c-8 -13 -7 -9 -12 -23v-18c-1 -12 -3 -22 -5 -50c-5 -6 -20 -26 -28 -34c-8 -6 -28 -22 -36 -19l-4 13v10
l1 5l3 6c0 5 -1 14 -1 21c0 17 -3 45 -3 45l13 120c0 12 7 24 7 36l11 80c1 13 2 7 1 22c0 3 -2 17 -5 22h-12v38c0 4 2 12 2 17v16c5 34 -3 74 37 101c41 28 43 43 87 48zM110 -27c20 6 16 1 22 22c2 10 6 51 1 59c-3 4 -8 7 -19 11h-6l-4 -2l-5 2l-4 1
c-18 -1 -13 1 -29 -13c-8 -7 -20 -19 -23 -26c-13 -19 -10 -12 -7 -31c0 -7 3 -20 12 -31c35 2 52 6 62 8z" />
    <glyph glyph-name="quotedbl" unicode="&#x22;" horiz-adv-x="313" 
d="M91 452h-26c-12 8 -8 9 -12 23c1 5 6 20 6 25l14 47c1 2 12 48 13 52l3 25c0 8 1 18 1 27l5 21c6 5 6 2 18 6c7 0 13 2 21 6c12 5 26 15 40 0c8 -9 6 -18 -6 -48c-3 -9 -4 -14 -7 -24l-2 -7l-2 -6c-2 -4 -5 -8 -6 -12l-25 -72c-7 -15 -18 -18 -18 -31
c-3 -9 -6 -25 -17 -32zM320 680c2 -19 2 -25 0 -30l-11 -31l-21 -54c-3 -5 -6 -11 -6 -18c-3 -6 -6 -12 -8 -18c-7 -21 1 -15 -14 -35c-22 -38 -12 -44 -54 -42c-1 0 -9 12 -9 20c-3 7 3 14 6 21v13c7 27 23 55 26 84c1 2 6 76 12 82c5 5 15 3 20 5l5 1l5 2l11 4
c4 4 13 9 20 6c7 0 10 -2 18 -10z" />
    <glyph glyph-name="numbersign" unicode="#" horiz-adv-x="701" 
d="M257 385l14 27c9 20 16 43 19 54l8 28c5 13 12 26 12 26l13 36c5 0 10 4 16 4c9 4 11 6 17 6c0 0 12 3 17 3s12 2 16 -4l-4 -18c-10 -42 -12 -53 -30 -96l-35 -66h124l14 27c9 20 16 43 19 54l8 28c5 13 12 26 12 26l13 36c5 0 10 4 16 4c9 4 11 6 17 6c0 0 12 3 17 3
s12 2 16 -4l-4 -18c-10 -42 -12 -53 -30 -96l-34 -66h43h24h16c26 0 28 3 53 3l6 -4c0 -33 -1 -17 -1 -50c-8 -4 -14 -2 -20 -2h-21h-122l-3 1l-65 -115h63h23h17c25 0 28 4 53 4l6 -4c0 -33 -1 -18 -1 -50c-8 -4 -15 -3 -20 -3h-21h-123l-13 3h-11l-2 -3
c0 -4 -4 -8 -11 -17l-10 -19c-8 -12 -7 -13 -11 -26c-5 -8 -8 -15 -12 -26l-13 -29c0 -4 -5 -19 -5 -23c0 -8 1 -15 -11 -20c-4 0 -6 -6 -6 -6s-4 -3 -8 -3c-8 -5 -5 -4 -15 -4c-12 53 0 75 26 129l19 41h-5l-18 2c-8 0 -11 2 -19 2h-87l-1 -1c0 -4 -4 -8 -11 -17l-10 -19
c-8 -12 -7 -13 -11 -26c-5 -8 -8 -15 -12 -26l-13 -29c0 -4 -5 -19 -5 -23c0 -8 1 -15 -11 -20c-4 0 -6 -6 -6 -6s-4 -3 -8 -3c-8 -5 -5 -4 -15 -4c-12 53 0 75 26 129l22 45h-65h-35h-22l-5 12s1 4 1 11v13c0 4 -1 11 -1 16l2 1h22h56c4 0 12 -1 18 -1h55l57 115h-77h-35
h-23l-5 11s1 5 1 11v14c0 3 -1 10 -1 16l2 1h22h56c4 0 12 -1 19 -1h67zM296 333l-65 -115h130l55 110h-6h-12l-19 2c-8 0 -11 3 -19 3h-64z" />
    <glyph glyph-name="dollar" unicode="$" horiz-adv-x="416" 
d="M243 749h30c5 -3 9 -7 6 -17c0 -6 -1 -13 -1 -20c-1 -14 -1 -24 -4 -39c32 13 74 31 108 27c3 -1 4 -3 7 -7l5 -4l4 -4l2 -19c1 -18 -1 -34 -5 -42c-20 -36 -106 -75 -131 -79c0 -4 -2 -17 -4 -21l-9 -102c-1 -22 -3 -24 -6 -47c-2 -12 -2 -20 -2 -25c0 -6 4 -16 13 -23
c81 -100 89 -78 99 -170h15l2 -6l1 -4v-4l-1 -4c2 -3 1 -10 1 -14c-27 -16 -23 -11 -64 -53l-37 -35c-5 -3 -28 -22 -61 -43l-5 -48c-3 -6 -2 -12 -4 -18h-27v45c-37 -19 -81 -30 -114 -9c-13 9 -19 21 -17 32c5 39 98 70 116 79l25 14l12 125v27l-17 20
c-78 82 -122 107 -112 199c10 85 89 141 164 190v26c2 5 2 19 2 26v18c0 7 3 23 9 29zM184 519c-4 -5 -11 -20 -14 -38c-4 -23 3 -28 11 -50c0 -9 2 -8 8 -23c10 -15 14 -13 22 -21l8 116c0 18 4 18 4 31c-14 -2 -25 1 -39 -15zM232 176c-2 -11 -10 -41 -9 -74
c10 -4 19 5 27 9c14 9 19 18 20 23c5 15 -4 22 -12 36c-3 6 -16 28 -26 33v-27z" />
    <glyph glyph-name="percent" unicode="%" horiz-adv-x="636" 
d="M537 720v-21l-26 -63l-19 -61l-11 -23c-5 -8 -1 -11 -12 -27c-4 -4 -11 -23 -11 -27l-130 -234l-10 -23l-54 -93c-2 -5 -3 -9 -5 -15l-38 -68c-35 -67 -15 -34 -42 -102l-8 -24l-20 -15c-3 -2 -17 -9 -21 -9c-27 65 -1 101 22 150l9 17l20 36l43 91c0 1 2 4 4 11l1 5l3 6
c1 3 3 7 5 11c5 9 3 5 6 13l59 106c7 10 3 8 9 19l92 183c8 21 24 62 30 83c11 41 11 50 55 58c5 4 15 9 23 14c4 2 17 10 26 2zM46 315v25c-5 101 -1 104 15 159c4 17 43 142 60 160c3 4 12 12 26 16c4 1 23 1 27 -4l1 -11c16 13 17 18 33 22c7 0 9 3 17 0l3 -1h4h4h5
c29 -12 42 -58 46 -85c12 -74 -23 -234 -91 -310c-18 -20 -51 -35 -75 -30c-34 7 -51 22 -75 59zM403 -17l-18 13l-15 30v24c-6 105 -3 102 12 159c4 14 44 142 58 158c4 4 13 12 27 17c13 4 15 -1 28 -2l2 -12c4 4 21 18 30 21h33c21 -6 33 -30 41 -57
c16 -49 11 -107 -1 -152c-22 -90 -8 -59 -64 -154c-14 -22 -3 -21 -33 -43c-13 -12 -33 -20 -45 -21s-28 3 -55 19zM114 439c-1 -4 2 -22 2 -26c3 -9 -3 -17 -3 -26c0 -3 1 -10 5 -25c4 -13 7 -26 20 -30c11 -3 13 -1 20 7c7 6 15 10 20 13c36 35 59 145 49 196
c-4 22 -13 39 -26 43c-9 3 -46 -8 -53 -13c-26 -21 -30 -74 -26 -113c-7 -7 -8 -19 -8 -26zM435 146c0 -16 -1 -11 4 -28c-1 -3 -6 -23 -4 -28c1 -14 6 -26 7 -28c5 -12 7 -18 21 -20c12 -3 21 9 24 11c3 3 8 5 11 6l4 6l3 5c38 48 56 148 43 194c-5 20 -15 33 -27 37
c-7 3 -42 -8 -50 -14c-31 -23 -31 -69 -28 -114c-7 -6 -8 -20 -8 -27z" />
    <glyph glyph-name="ampersand" unicode="&#x26;" horiz-adv-x="610" 
d="M326 487c13 -14 4 -26 27 -35h5l26 31l48 63c9 10 15 17 27 32c13 17 16 5 32 10c4 2 17 4 31 -5c-7 -41 -20 -51 -44 -93l-19 -43c-7 -15 -11 -23 -18 -35l-12 -18c-3 -8 -2 -10 -5 -19l-6 -14l-22 -46c-7 -11 -11 -12 -13 -23c-2 -5 1 -17 1 -24c0 -8 1 -16 1 -23
l-2 -22l2 -23c0 -7 -1 -10 -6 -25c0 -15 3 -17 19 -24c21 -10 74 1 93 2c12 2 17 3 45 17l23 10c8 6 15 10 24 7v-26c-40 -30 -46 -58 -94 -77c-33 -14 -69 -19 -101 -18c-29 0 -40 6 -58 -21c-5 -12 -1 -9 -13 -27c-2 -2 -7 -10 -23 -26c-22 -21 -29 -26 -54 -29
c-13 -2 -20 -8 -31 8c-9 12 0 40 5 55l2 27l6 22c2 8 3 17 5 25l5 31c-144 133 -171 233 -171 374c0 25 22 106 58 126c19 11 69 7 88 -5c52 -34 102 -83 119 -139zM179 587c-18 4 -30 -2 -38 -10c-15 -16 -20 -79 -17 -98c16 -107 12 -163 135 -254c9 3 13 13 16 20l16 38
c6 13 8 18 10 22c8 13 11 13 11 20l-5 1l-6 -3c-5 -5 -6 -5 -10 -8l-4 -4l-3 -5l-6 -2l-3 -1c1 17 -4 14 5 32c7 18 32 41 33 59c0 7 -3 13 -5 15c-2 4 -3 10 -4 13l-3 29c-28 30 -64 124 -122 136z" />
    <glyph glyph-name="quotesingle" unicode="'" horiz-adv-x="169" 
d="M145 700h4l5 -2c6 2 9 1 9 1c7 -3 11 -3 14 -14c6 -11 -18 -77 -23 -89l-26 -62c0 -7 -4 -20 -7 -27l-11 -12l-1 -6l-1 -4l-3 -4c-1 -5 -7 -21 -15 -21c-12 -6 -14 -1 -27 -2c-4 9 -10 11 -10 22c-1 10 4 13 7 23l11 38c1 3 13 41 16 71c5 40 2 32 13 71c28 5 18 1 45 17
z" />
    <glyph glyph-name="parenleft" unicode="(" horiz-adv-x="252" 
d="M252 686c0 -12 2 -9 -3 -22l-50 -130c-2 -4 -5 -13 -7 -19s-6 -15 -9 -20l-42 -133c-36 -135 -42 -198 11 -304l12 -22c7 -15 41 -81 30 -97c-8 -13 -17 -10 -27 -10c-29 1 -42 11 -63 43c-95 149 -76 332 -1 517l8 18c12 29 13 29 41 84l13 25c10 17 19 32 37 50
c14 14 21 18 25 20c0 0 17 9 25 0z" />
    <glyph glyph-name="parenright" unicode=")" horiz-adv-x="255" 
d="M37 -72c0 13 4 23 5 26l45 117c6 15 14 34 20 50l44 143c34 129 41 191 -12 296l-11 22c-4 8 -40 79 -31 96c4 7 11 12 23 14c16 -7 12 2 28 -9c15 0 13 -7 25 -19c77 -86 84 -255 61 -381v-17c-12 -65 -72 -197 -97 -243l-11 -23c-15 -25 -25 -38 -38 -50
c-13 -14 -20 -19 -25 -22c-6 -2 -18 -9 -26 0z" />
    <glyph glyph-name="asterisk" unicode="*" horiz-adv-x="335" 
d="M214 697c1 -3 5 -14 5 -20c0 -11 -1 -8 -2 -22v-18c-2 -7 -2 -13 -5 -20l-2 -21v-15s-4 -12 -2 -18l13 10c38 34 49 39 75 80c10 8 7 1 21 1c10 -6 12 -8 15 -19c4 -14 -7 -29 -27 -45c-20 -18 -59 -43 -80 -58l29 -16l5 -1l6 -3c9 -5 5 -2 13 -6l24 -11
c16 -6 27 -9 29 -10c5 -7 5 -12 -1 -20c-2 -2 -8 -9 -21 -12c-17 -4 -30 5 -51 17l-26 15c-5 4 -20 11 -25 9v-16c2 -32 2 -63 16 -96c-7 -9 -11 -7 -22 -9c-16 0 -23 4 -26 7c-11 11 -7 101 -6 112l-64 -41c-14 -9 -24 -12 -32 -12c-9 0 -24 5 -28 18v9l80 44c3 2 9 5 13 8
l13 10l-26 20c-14 10 -39 29 -49 35c-21 12 -32 11 -32 39c0 10 1 16 4 22c2 7 6 10 18 10c12 -13 33 -36 50 -50c9 -7 16 -12 26 -22c8 -8 20 -18 28 -16v33c0 8 -1 17 -1 25v30c0 1 -4 34 -4 35c7 11 9 1 23 10c7 3 18 2 26 -2z" />
    <glyph glyph-name="plus" unicode="+" horiz-adv-x="429" 
d="M289 252h46h74c5 -4 21 -29 17 -36c0 -11 -9 -28 -31 -34c-50 -5 -56 1 -98 1v-3v-44c0 -8 -5 -33 -5 -42v-44c0 -9 -1 -24 -8 -33h-9c-4 0 -3 3 -8 9l-4 4l-5 2c-9 7 -3 4 -14 20c-4 6 -11 9 -16 9c-6 10 -8 13 -8 27c0 15 2 34 2 51c0 0 -2 20 -2 36h-34
c-9 0 -35 5 -44 5h-42c-11 0 -26 1 -35 8v9c0 4 3 3 9 8l5 4l1 5c8 9 5 3 21 13c6 4 9 11 9 16c11 7 14 9 26 9c15 0 35 -2 53 -2c0 0 16 1 31 1v36v72c4 6 29 23 36 18c11 0 28 -9 34 -31c4 -48 -1 -55 -1 -94z" />
    <glyph glyph-name="comma" unicode="," horiz-adv-x="203" 
d="M198 122l-26 -72c-9 -8 -3 -14 -11 -27l-15 -36c-13 -26 -11 -14 -19 -40v-15c-3 -8 -3 -10 -13 -16c-3 -1 -9 -8 -15 -12c-12 -4 -22 -16 -33 -4c2 15 0 8 3 23l7 22c22 77 24 64 27 141l5 38c53 21 43 29 90 -2z" />
    <glyph glyph-name="hyphen" unicode="-" horiz-adv-x="348" 
d="M319 252c4 -4 15 -29 12 -36c0 -11 -6 -28 -20 -34c-37 -5 -38 0 -76 1l-8 -5l-27 -3h-29c-6 2 -23 5 -29 5h-28c-7 0 -17 1 -23 8v9c2 4 2 3 6 8l3 4l1 5c5 9 3 3 14 13c4 4 4 11 6 16c7 7 9 9 17 9c10 0 23 -2 35 -2c1 0 32 2 35 2h63h48z" />
    <glyph glyph-name="period" unicode="." horiz-adv-x="215" 
d="M138 102l14 -5c12 0 23 -3 37 -13c20 -17 13 -19 17 -37c-32 -33 -64 -53 -88 -48c-2 0 -8 2 -21 11c-9 7 -14 10 -18 20c10 35 20 43 59 72z" />
    <glyph glyph-name="slash" unicode="/" horiz-adv-x="454" 
d="M454 703l-6 -22c-14 -59 -16 -77 -41 -135l-57 -111c-5 -8 -10 -22 -14 -30l-142 -256c-3 -6 -6 -11 -14 -23l-15 -27c-11 -17 -9 -19 -16 -36c-6 -11 -11 -21 -15 -36l-18 -41c-2 -6 -9 -27 -7 -31c0 -11 2 -21 -16 -28c-6 -4 -7 -5 -9 -8c-4 -3 -5 -4 -11 -5
c-11 -7 -8 -5 -21 -5c-15 72 0 105 36 179l203 405c13 27 21 59 26 73l10 38c7 20 16 37 17 38l18 50c8 3 15 5 23 5c12 5 16 5 24 9c3 1 15 0 22 3c8 3 17 3 23 -6z" />
    <glyph glyph-name="zero" unicode="0" 
d="M320 684c23 1 27 1 46 -1c87 -63 99 -118 101 -183v-62c6 -118 -53 -342 -155 -439c-36 -34 -77 -41 -114 -34c-29 6 -78 41 -97 83c-23 49 -26 97 -22 145c-9 12 -4 19 -4 31l2 30v43c4 22 6 23 11 51v16c2 7 6 21 8 25c0 5 4 20 6 24l6 35c2 5 2 6 8 17c2 6 1 9 3 16
l11 40c1 2 8 26 12 33l6 29c4 8 14 28 20 39c4 8 2 13 10 19c8 8 6 13 18 18c1 -1 11 -1 14 -4c9 -3 8 -3 10 -11c0 -1 0 -4 1 -8l-1 -4l-1 -4l-1 -4l-2 -3l-2 -4l2 -4c49 42 43 48 98 68zM193 498c-5 -14 4 -25 -4 -37c-1 -4 -11 -32 -11 -36v-16c-14 -90 -1 -51 -6 -139
v-39c2 -36 -2 -136 46 -165c15 -11 33 -7 47 1c84 47 135 243 139 300c4 53 -13 151 -60 184c-18 13 -64 18 -90 5c-33 -17 -52 -33 -61 -58z" />
    <glyph glyph-name="one" unicode="1" 
d="M373 275c-4 -5 -6 -7 -9 -18l-9 -32s-3 -15 -3 -16c-1 -2 -3 -6 -5 -9l-1 -4l-2 -5l-18 -57c-23 -75 -49 -157 -126 -183c-11 6 -6 26 -2 35c1 7 4 14 12 37l14 45c3 9 3 14 6 22l77 330c2 10 4 28 6 47c0 0 3 23 3 25c0 5 2 17 -5 22l-25 -17c-9 -8 -10 -8 -21 -16
c-4 -2 -17 -10 -22 -14l-34 -33c-7 -4 -4 -4 -13 -10l-69 -63c-5 -5 -13 -12 -29 -12c-4 6 -4 17 -2 24c1 9 -1 14 2 25c8 18 21 24 39 47l52 54c5 6 7 13 15 19l85 87c21 20 74 78 102 76c16 -2 34 -12 45 -27c16 -23 -1 -79 -5 -102l-10 -71c-3 -8 -5 -26 -7 -30l-5 -31
c-4 -14 -6 -23 -13 -48l-26 -81c0 -5 -1 -7 3 -16z" />
    <glyph glyph-name="two" unicode="2" 
d="M211 79c5 -6 14 -8 19 -8c6 -2 15 -4 22 -4c5 0 13 -1 22 -1c2 0 18 -1 22 1h31h29h39c14 2 12 4 28 4h31c8 2 25 7 33 -4c-3 -18 3 -27 -18 -45l-5 -1l-6 -4l-10 -11c-13 -9 -10 -7 -25 -11c-6 -2 -18 -3 -53 -7c-58 -26 -192 -34 -251 -8c-31 13 -24 16 -29 42
c-9 41 35 94 56 120l160 198c28 41 79 111 70 154c-5 19 -20 32 -45 43c-49 22 -107 23 -142 5c-18 -9 -27 -21 -35 -41c0 0 -5 -22 -5 -23c-1 -3 -13 -20 -19 -22l-12 2c-23 48 -43 110 -8 159c38 55 127 55 173 50c35 -4 132 -12 163 -89c36 -87 -9 -169 -88 -275
l-83 -121c-8 -8 -9 -10 -14 -16c-4 -6 -7 -12 -12 -18l-15 -19c-4 -5 -13 -18 -17 -25c-2 -2 -6 -17 -6 -25z" />
    <glyph glyph-name="three" unicode="3" 
d="M280 319c46 -32 40 -22 89 -42c16 -7 64 -29 81 -63c13 -26 15 -67 -1 -90c-46 -70 -231 -173 -283 -179c0 0 -25 2 -27 2c-5 2 -22 -4 -27 -4c-8 0 -18 -3 -27 3c-13 8 -14 13 -14 26c5 8 7 8 14 13l16 10c6 4 18 9 23 11l57 38c8 4 5 4 14 8l49 30c7 7 17 13 24 17
l50 34c8 5 16 7 23 16c4 6 17 18 19 24c0 7 2 13 -10 20l-23 8l-45 17l-29 7l-6 2l-4 2l-4 2l-6 3c-1 0 -4 0 -7 2c-22 8 -41 15 -47 36c-12 40 22 66 60 118l70 95c16 16 9 15 22 34c4 5 18 28 15 35c-6 7 -14 10 -24 10c-4 0 -9 1 -26 0c-12 -1 -42 -2 -54 -4l-53 -13
s-25 -8 -27 -8c-10 -3 -16 -9 -26 -11c-7 -1 -15 -5 -24 6c-4 5 -6 14 0 38c8 32 11 67 57 86c39 16 182 46 249 11c19 -9 35 -29 37 -50c5 -35 -31 -84 -75 -145l-61 -83c-9 -15 -19 -29 -39 -72z" />
    <glyph glyph-name="four" unicode="4" 
d="M315 225c3 10 3 21 5 32l31 178l10 52c9 30 13 23 39 37c9 -2 56 -11 66 -30c4 -9 -19 -75 -21 -85l-31 -112c-3 -14 -8 -36 -11 -68c4 -2 14 -2 19 -2c0 0 20 5 22 5c5 1 4 1 10 6l5 3l7 1c5 0 14 4 21 4c9 -5 9 -26 9 -35c-4 -7 -11 -10 -23 -15c-5 -4 -20 -15 -25 -17
c-24 -13 -25 -10 -49 -24s-22 -19 -27 -43l-2 -5l-1 -7c0 -7 1 -7 -1 -12l-8 -26l-10 -65c-2 -6 -4 -16 -7 -24c0 -2 1 -7 -1 -11c0 -7 1 -7 -1 -12c-5 -26 -8 -23 -32 -40c-11 -10 -21 -15 -33 -6c0 38 -3 29 2 69l15 83c-3 10 -2 10 -2 16c1 6 3 7 3 18c0 10 8 23 -1 35
c-51 4 -141 -22 -190 30c-35 35 -12 164 -6 202l7 34c2 6 4 15 4 20c2 5 4 14 6 22l9 42c0 1 1 4 4 12l5 12l7 25l22 71l-8 9c11 35 30 79 36 86c17 19 69 44 86 48c13 2 25 0 31 -9c8 -12 -17 -70 -23 -83l-109 -285c-3 -7 -26 -91 -11 -111c14 -18 60 -25 75 -27
c11 -2 30 -4 38 -4c7 0 32 1 39 6z" />
    <glyph glyph-name="five" unicode="5" 
d="M494 645v-9l-12 -19c-2 -9 -10 -17 -13 -26c-32 -30 -40 -30 -74 -36l-53 -7c-75 -8 -125 1 -151 -99c-17 -66 6 -83 85 -136l82 -58c76 -52 115 -74 105 -157c-7 -57 -75 -88 -125 -107c-87 -34 -169 -43 -253 21v20c2 5 17 9 24 9h17c3 1 54 9 73 13l31 9
c7 2 134 33 138 63c3 26 -53 61 -83 85l-63 48c-61 46 -114 81 -117 150c-1 43 0 68 16 112c1 3 51 109 55 114c29 31 66 20 106 24h95c5 0 15 2 20 4c3 -1 14 -1 21 -4h45c9 0 23 5 31 -14z" />
    <glyph glyph-name="six" unicode="6" 
d="M492 713l-36 -40c-41 -42 -46 -44 -74 -78l-85 -103l-41 -57c-4 -6 -12 -20 -15 -27l-17 -28h18l18 -16l13 -12c8 -7 25 -15 33 -20c8 -4 12 -7 30 -23c27 -24 36 -31 59 -60c26 -33 55 -90 62 -133c6 -40 0 -94 -36 -126c-39 -35 -106 -35 -138 -27
c-73 20 -145 83 -179 176c-33 89 -30 216 56 335c56 76 234 255 289 258c19 2 25 -8 43 -19zM182 126c34 -53 98 -79 140 -76c24 2 37 9 44 25c15 36 -75 184 -119 239l-14 16c-10 11 -10 13 -10 25l-7 8c-42 -78 -81 -164 -34 -237z" />
    <glyph glyph-name="seven" unicode="7" 
d="M98 686c70 -8 287 -54 351 -153c46 -68 8 -172 -15 -242l-15 -48c-4 -6 -5 -10 -9 -16l-48 -133l-16 -55l-14 -47c-6 -10 -9 -9 -14 -23c-1 -5 -3 -19 -3 -24c-2 -8 -8 -11 -20 -18c-2 -2 -24 -25 -25 -25c-6 -3 -16 -4 -24 4s-5 17 -1 49l5 48l109 401c5 17 28 73 14 93
c-16 22 -133 44 -152 49l-63 9c-14 2 -24 4 -32 9c-17 7 -8 14 -16 27c-9 21 -14 28 -19 49c-1 6 -3 15 -2 24c0 6 0 18 9 22z" />
    <glyph glyph-name="eight" unicode="8" 
d="M289 697c15 -5 15 -9 31 -2c15 5 21 -2 32 -5c31 -10 46 -17 63 -32c60 -51 67 -122 60 -177c-6 -45 -13 -72 -48 -124l-20 -31c-3 -5 -19 -22 -26 -30c-9 -13 -13 -18 -25 -31c-2 -1 -27 -29 -29 -32c-4 -10 0 -21 16 -31c42 -50 59 -87 45 -137
c-17 -60 -82 -101 -141 -118c-38 -12 -93 -12 -131 20c-25 21 -25 61 -22 87c4 29 12 50 40 88c16 24 14 21 32 42c3 5 3 5 9 10c3 4 7 9 9 12c9 13 10 13 21 22c4 13 0 13 -13 24c-58 56 -101 67 -100 141c0 29 5 49 18 70c4 8 17 26 27 36c12 12 24 17 36 12
c-7 -83 -21 -87 45 -180l14 -22c4 -4 11 -15 23 -15c6 4 10 8 10 9l11 7c5 4 8 13 10 18c6 11 6 11 15 21l8 10l4 5l3 6l23 39c10 17 79 130 65 160c-8 17 -23 22 -48 25c-36 4 -62 -2 -106 -12c-48 -13 -100 -43 -106 -44c-9 0 -17 3 -22 10c-4 7 -5 17 2 31
c12 25 37 49 80 78c24 17 39 24 42 25c13 4 13 0 22 3c1 0 8 1 12 4l3 4zM244 138c-2 -2 -14 -19 -24 -34c-24 -32 -40 -40 -43 -69c-2 -18 3 -27 11 -34c11 -8 29 -7 52 0c34 11 66 31 77 65c10 38 -6 59 -41 103c-15 -6 -20 -18 -32 -31z" />
    <glyph glyph-name="nine" unicode="9" 
d="M383 708c20 -6 64 -16 74 -48c3 -12 1 -22 -4 -27c-3 -2 -21 -5 -23 -6c-5 -2 -14 -4 -24 -10c-9 -5 -34 -23 -47 -33c-23 -17 -43 -34 -47 -38c-6 -7 -15 -16 -23 -25c0 0 -19 -19 -23 -22l-36 -37c-50 -53 -42 -49 -74 -101v-11l-6 -14c5 -7 11 -8 22 -1
c8 5 16 8 24 13c18 10 42 26 47 31c18 13 74 55 93 75l27 26c21 19 62 72 85 71c5 0 23 -6 28 -13c6 -9 -7 -79 -9 -90l-28 -113c-4 -10 -6 -20 -9 -30l-43 -148c-2 -7 -5 -16 -9 -24c-5 -18 -11 -22 -14 -27l-21 -60c-3 -10 -10 -25 -14 -37l-19 -38l-8 -21
c-14 -31 -28 -28 -65 -38c-9 6 -6 19 -2 30c3 7 8 14 20 31c0 9 -4 6 0 17l23 78l5 13l2 7l2 6l10 35l5 27l38 167l2 18c0 3 0 5 1 9c0 6 0 5 2 11l6 39c-8 -8 -159 -145 -225 -132c-22 4 -48 20 -57 42c-19 45 30 124 60 171c55 85 173 208 254 227z" />
    <glyph glyph-name="colon" unicode=":" horiz-adv-x="239" 
d="M188 379c19 -9 25 -5 40 -24c16 -17 11 -23 12 -41c-4 -5 -8 -8 -9 -10l-4 -5l-2 -7c-4 -7 -6 -10 -6 -11l-5 -3l-7 -1c-10 -6 -44 -19 -47 -20c-6 2 -15 7 -22 7c-7 2 -12 13 -20 15c-4 10 -3 17 2 27l10 12l1 7l4 2l3 4c26 34 15 19 50 48zM171 108c2 -2 5 -5 8 -11
l13 -11c8 -12 1 -10 4 -24c-7 -11 -4 -7 -8 -17c0 -5 2 -10 -5 -19c-14 -18 -21 -12 -37 -14c-22 -10 -31 -23 -53 -7c-13 5 -14 27 -14 30c1 17 2 14 20 33c12 12 21 22 32 34l20 2c10 4 11 4 20 4z" />
    <glyph glyph-name="semicolon" unicode=";" horiz-adv-x="261" 
d="M198 376c7 0 10 3 27 -8c15 -7 9 -4 22 -22v-20c-31 -32 -62 -52 -85 -48c-2 0 -9 2 -21 10c-5 4 -9 7 -18 20l5 24l5 4l4 7c7 8 4 7 11 11c8 9 14 18 24 23c15 11 11 4 26 -1zM164 142c13 -6 18 -7 37 -20c-13 -42 -7 -43 -30 -83c0 -9 -8 -22 -8 -33
c-9 -17 -27 -52 -32 -72c-2 -4 -1 -14 -4 -18c-4 -2 -15 -10 -18 -15c-8 -6 -30 -13 -37 -8c0 6 -1 6 1 12c0 1 -1 8 1 13l8 21c18 64 24 78 27 143v26c0 4 3 9 5 14z" />
    <glyph glyph-name="less" unicode="&#x3c;" horiz-adv-x="462" 
d="M420 342l-312 -127l312 -129v-63l-386 164v55l386 164v-64z" />
    <glyph glyph-name="equal" unicode="=" horiz-adv-x="572" 
d="M502 172c8 -4 30 -30 24 -36c0 -11 -12 -28 -41 -34c-74 -5 -76 0 -151 1l-16 -5l-55 -3h-57c-12 2 -46 5 -58 5h-57c-14 0 -34 1 -46 8v9c4 4 4 3 12 8l6 4l2 5c10 8 6 2 28 13c8 4 8 11 12 16c14 7 18 9 35 9c20 0 46 -2 70 -2c2 0 63 2 69 2h127h96zM501 320
c8 -3 30 -29 24 -36c0 -11 -12 -28 -41 -34c-74 -5 -75 0 -151 1l-15 -5l-56 -3h-57c-12 2 -46 5 -58 5h-57c-14 0 -34 1 -45 8v9c3 4 3 3 11 8l6 4l2 5c10 9 6 3 28 14c8 4 8 11 12 16c14 6 18 8 35 8c20 0 46 -2 70 -2c2 0 63 2 69 2h127h96z" />
    <glyph glyph-name="greater" unicode="&#x3e;" horiz-adv-x="462" 
d="M426 186l-386 -164v63l309 129l-309 128v64l386 -165v-55z" />
    <glyph glyph-name="question" unicode="?" horiz-adv-x="379" 
d="M170 141c6 49 12 40 32 88l25 71c19 66 43 113 16 161c-7 11 -26 32 -47 48c-11 9 -14 11 -26 19c-5 4 -20 13 -25 10c0 -13 4 -26 4 -38l-11 -7c-8 0 -10 5 -24 14c-10 8 -14 15 -21 26c-12 17 -29 33 -29 51c0 11 7 23 7 35c4 20 7 28 16 35c11 8 20 8 48 -1
c55 -18 183 -62 213 -139c30 -74 -5 -142 -43 -217l-48 -92c-13 -34 -9 -52 -48 -63c-11 -4 -27 -9 -39 -1zM137 73c18 12 34 14 51 6c17 -9 16 -7 16 -26c0 -18 -26 -56 -46 -68c-23 -14 -15 -6 -39 -13s-32 -10 -41 -5c-15 6 -9 13 -13 25c0 28 55 70 72 81z" />
    <glyph glyph-name="at" unicode="@" horiz-adv-x="638" 
d="M369 149c-34 -47 -65 -64 -112 -60c-31 3 -60 19 -76 54c-21 43 -4 123 26 166c33 51 76 78 123 76c23 -2 50 -14 64 -41c3 -5 4 -9 9 -25l14 56h53l-36 -136c-6 -20 -26 -74 -6 -96c10 -9 27 -12 45 -8c38 5 65 37 81 80c19 47 18 136 -19 188c-51 70 -154 88 -211 85
c-83 -6 -165 -41 -220 -141c-36 -67 -44 -176 -1 -253c45 -81 137 -113 208 -118c73 -3 145 15 230 68l16 -24c-120 -80 -259 -97 -364 -50c-101 46 -148 116 -159 210c-10 75 11 195 103 267c90 73 229 83 313 53c76 -26 128 -85 143 -158c12 -57 3 -157 -57 -213
c-29 -30 -82 -45 -113 -37c-29 7 -44 22 -54 57zM271 306c-28 -42 -50 -115 -37 -151c7 -17 21 -26 35 -29c20 -4 42 4 59 20c34 32 60 121 55 156c-3 19 -13 32 -31 41c-16 7 -33 5 -48 -4c-13 -7 -24 -20 -33 -33z" />
    <glyph glyph-name="A" unicode="A" horiz-adv-x="498" 
d="M389 727c7 -2 26 -3 32 -14l-20 -76c1 -2 3 -3 7 -6c6 -6 3 -4 10 -9c10 -6 10 -4 20 -9c17 -8 28 -13 35 -26c10 -20 9 -31 14 -81l6 -73c1 -1 0 -12 0 -15v-15c0 -9 -1 -17 -1 -26v-25c0 -7 -3 -20 -1 -26c0 -13 0 -9 15 -20c5 -11 0 -19 -3 -31l-15 -12
c0 -6 2 -11 2 -16l-11 -116l-5 -23c0 -8 1 -15 1 -23l-6 -23c-2 -5 -4 -17 -4 -22c0 -7 -2 -14 -5 -23c-2 -6 -4 -21 -4 -23c-1 -2 -4 -11 -18 -22c-3 -2 -13 -13 -24 -13c-6 5 -7 20 -7 27v37c-2 4 1 11 1 16v134c0 8 3 17 3 25v16c0 1 -2 25 -3 28c-10 0 -10 2 -21 -5
l-16 -5c-6 -2 -44 -6 -47 -7l-22 -7c-8 -4 -17 -4 -25 -7c-44 -15 -50 -28 -94 -36c-9 -36 -11 -38 -27 -73l-9 -34c-7 -16 3 -9 -7 -24l-4 -16c-3 -3 -7 -8 -7 -15v-22l-5 -6l-1 -4l-2 -4l-9 -27c-4 -5 -5 -8 -10 -14c-6 -5 -6 -4 -14 -7c-11 -3 -17 -4 -30 1
c-3 24 -3 35 2 53l36 133l7 22v14l-24 5c3 38 -3 82 37 102c4 1 21 5 25 9c7 7 7 18 9 26c3 10 22 47 23 50l6 28c3 6 4 12 7 18l34 107c13 38 27 71 48 97l-10 11c2 12 -5 24 12 37c1 1 34 10 37 12l4 4l2 6c6 7 5 7 7 13c5 13 3 7 19 17c13 10 9 8 25 14c15 10 10 8 25 19
zM314 498c0 -9 -2 -14 -7 -22l-3 -6l-1 -5c-2 -4 -4 -7 -7 -11c-3 -7 -6 -16 -9 -21c-9 -10 -10 -12 -14 -21l-28 -82c-3 -8 -2 -6 -10 -16c-2 -4 -6 -14 -8 -17v-18v-2h4l4 1h4l52 5c9 0 17 3 26 3h30c4 0 60 15 62 15v29c0 10 -2 21 -2 29v37c-2 6 -2 15 -2 20v29
c0 6 1 13 1 17c-24 40 -21 42 -64 66c-9 -6 -23 -22 -28 -30z" />
    <glyph glyph-name="B" unicode="B" horiz-adv-x="533" 
d="M568 624c-1 -84 -16 -117 -98 -173l-19 -12l-26 -18l-77 -49c-9 -6 -86 -45 -83 -62c4 -23 52 -36 85 -46l20 -7c28 -11 141 -58 158 -104c5 -14 5 -49 -3 -63c-25 -45 -132 -77 -163 -87l-52 -18c-30 -9 -49 -10 -81 -16l-24 -7l-5 -29l-9 -8c-6 0 -11 2 -16 2
c-8 -4 -7 -3 -16 -3l-16 28c-38 -3 -21 -10 -62 11v19c5 3 21 20 27 26c6 4 21 11 29 11l11 7v82c0 11 4 15 -1 27v13c1 27 19 90 -9 113c-11 10 -21 5 -30 20c-8 14 -2 18 0 34c30 17 35 20 49 26l8 53c0 10 4 19 4 30v18c12 100 -1 76 63 153l-6 5c-11 0 -22 -2 -33 -2
l-33 -6c-8 -1 -17 -2 -25 -4h-18l-4 -4h-5h-5l-5 3c1 9 -2 19 4 30c5 8 4 4 14 11c0 0 5 15 5 17c45 20 68 33 113 38h22c11 0 25 6 38 6h36c68 4 125 9 193 -23c7 0 16 -8 24 -16c16 -15 8 -11 21 -26zM291 400l59 39c33 21 106 57 115 106c2 13 -5 25 -12 32
c-20 18 -117 33 -132 31c-17 -2 -19 -1 -29 -20c-2 -5 -3 -20 -4 -24c-4 -8 -5 -18 -7 -25c-2 -9 -3 -16 -3 -24c0 -9 3 -16 1 -23l-7 -13c-3 -5 -3 -9 -4 -12c-3 -13 0 -12 -1 -24c-3 -8 -4 -18 -6 -25c0 -8 -1 -16 -1 -23l5 -6c17 6 10 -1 26 11zM212 46l7 -6l14 7
c8 3 22 5 32 5l4 1h4l4 1h4l4 2l3 1c2 0 4 3 9 6c20 9 11 2 31 12c11 6 22 11 33 18l30 10c13 4 8 4 20 17c4 3 16 11 19 17c-39 52 -74 54 -124 70l-15 7l-23 10c-6 3 -17 7 -25 7c-11 -6 -6 -15 -10 -25l-16 -135c-2 -14 -3 -20 -5 -25z" />
    <glyph glyph-name="C" unicode="C" horiz-adv-x="517" 
d="M412 265c1 36 -3 44 2 79l6 27c8 41 12 63 19 85c5 15 4 25 15 42c13 8 9 7 18 20c1 1 5 8 6 21c0 18 -2 23 -20 35c-42 28 -66 21 -113 8c-73 -24 -124 -128 -144 -189c-16 -50 -40 -180 -19 -229c3 -8 14 -23 19 -38c0 -2 6 -15 9 -19c3 -7 3 -14 6 -21
c9 -13 45 -47 74 -58c56 -22 110 8 168 34l21 8l10 14l8 -3c-4 -39 4 -28 -34 -60c-32 -29 -44 -33 -66 -44c-66 -30 -155 -33 -219 9c-86 57 -96 151 -94 219c-6 36 -1 97 20 135c1 94 97 212 186 279c59 46 140 69 193 49c30 -12 47 -20 54 -55c16 -85 0 -237 -48 -323
c-7 -13 -14 -19 -36 -25l-20 -5c-5 0 -16 2 -21 5z" />
    <glyph glyph-name="D" unicode="D" horiz-adv-x="506" 
d="M105 684c44 -3 44 11 102 -17c93 0 236 -96 285 -158c68 -88 59 -166 20 -255c-4 -8 -6 -13 -9 -22c-3 -7 -11 -14 -15 -22c-6 -15 -1 -12 -12 -23c0 0 -7 -7 -10 -11c-2 -2 -4 -7 -5 -11c-16 -25 -23 -31 -35 -44c-6 -6 -15 -14 -22 -22c-6 -8 -11 -15 -11 -23l27 10
c6 -10 3 -14 -3 -29c-2 -3 -25 -22 -28 -25l-31 -19c-54 -38 -150 -108 -207 -85c-10 4 -19 11 -20 20c-2 17 37 45 66 66c69 12 158 93 219 193l3 4l5 5c1 4 2 6 4 9c2 7 3 9 12 18c6 11 7 25 12 38c15 43 8 38 10 73c-54 116 -92 146 -205 187l2 -11l-89 -428
c-6 -34 -11 -45 -18 -58c0 -1 -19 -28 -21 -30c-14 -19 -8 -11 -27 -11c-3 5 -5 11 -5 16l6 69c2 5 2 20 2 25l28 276c1 4 1 11 1 15l1 4v3l1 4l4 3v34c1 15 10 55 14 60c4 7 17 13 27 29c6 9 3 7 13 14l3 1h4l4 1l4 3l-1 8c-20 7 -30 6 -73 28c-37 20 -45 16 -39 57l-5 22z
" />
    <glyph glyph-name="E" unicode="E" horiz-adv-x="456" 
d="M499 591c-8 -11 -8 -4 -20 -9c-4 -1 -9 -1 -23 4c-15 4 -32 11 -46 12c-25 1 -67 -2 -92 -10c-13 -1 -18 3 -34 -7c-18 -13 -12 -18 -20 -34c-7 -20 -21 -13 -12 -35c-1 -9 -6 -25 -9 -34l-33 -125c-2 -6 -2 -12 -2 -19l13 -6c59 58 151 69 212 53l12 1l17 -25v-40
l-18 -22c-149 11 -232 -23 -233 -23c-26 -16 -20 -30 -24 -48c-4 -11 -7 -13 -7 -26c0 -8 -2 -17 -2 -25l-5 -16c-3 -7 -1 -15 1 -19l-11 -43c2 -4 0 -33 2 -38c4 0 13 -1 19 -1h18c82 7 159 13 241 56l10 6c8 -3 12 -6 12 -19c0 -6 -1 -15 -7 -24c-1 -3 -5 -11 -19 -21
c-13 -8 -10 -6 -23 -18c-8 -6 -13 -7 -22 -12c-4 -2 -16 -10 -25 -9c-53 -29 -183 -70 -248 -38v20c-13 13 -8 3 -21 7c-8 5 -6 11 -7 20c-1 8 1 25 1 47v45c0 8 4 5 6 13c-1 2 -4 9 -4 13l22 177c2 6 2 5 2 11l2 5l3 6l7 63c5 7 4 14 4 25l6 37c15 65 9 63 56 125
c17 23 102 86 121 93c39 14 157 17 176 0c18 -16 4 -74 4 -93z" />
    <glyph glyph-name="F" unicode="F" horiz-adv-x="433" 
d="M443 581c-49 15 -51 16 -95 13c-19 -2 -38 -6 -48 -10c-12 -4 -18 -9 -22 -14c-7 -9 -9 -11 -9 -24c-2 -2 -9 -11 -9 -14l-2 -4l-4 -4l-2 -4l-1 -4l-5 -36c-2 -6 -3 -12 -5 -19l-9 -36c-2 -5 -1 -8 -1 -12s-3 -6 -4 -11v-21c-3 -7 -10 -32 -2 -37c15 9 22 12 36 17l26 6
c35 7 120 34 165 8c19 -11 14 -8 15 -27l-1 -4l-1 -4l1 -4l1 -4c3 -7 2 -7 -2 -15c0 -12 0 -22 -12 -34c-23 4 -26 3 -56 12c-16 4 -22 5 -30 4c-10 -4 -16 -7 -30 -7c-16 -1 -100 -10 -116 -18c-26 -13 -28 -89 -30 -109l-13 -135c-1 -13 0 -19 1 -31v-32v-28l-23 -27
c-13 0 -20 3 -32 11c-7 29 -10 46 -11 72v20c0 11 -1 11 3 22v123c0 8 4 17 4 25v15c-2 4 -4 19 1 33v23c-4 -1 -16 -4 -22 -5c-8 0 -12 -3 -20 0c0 15 -3 14 9 26c6 6 12 19 16 26c9 9 17 5 25 15c5 9 3 17 3 26v22l4 18v20l6 20l6 39c5 70 27 165 121 214
c27 13 33 15 67 13c5 3 20 9 28 5h31c34 4 51 5 59 -2c16 -11 13 -47 9 -72c0 -9 2 -13 -5 -22c-5 -11 -6 -13 -15 -18z" />
    <glyph glyph-name="G" unicode="G" horiz-adv-x="550" 
d="M585 490c-20 -27 -24 -30 -53 -55c-5 0 -10 -1 -15 -1h-4l-4 1c-3 2 -7 4 -7 4c-2 6 -3 9 -3 21c-4 11 -5 9 -5 21c0 11 -2 11 -6 21c-1 6 -3 15 -3 22c-8 20 -37 67 -63 75c-16 5 -30 4 -51 1c-77 -52 -78 -55 -121 -131c-20 -38 -48 -114 -55 -151
c-11 -59 -31 -115 13 -228c30 -24 39 -30 71 -24c18 3 68 33 73 37c8 7 10 11 17 18c4 5 13 13 18 18c12 13 6 11 15 17c5 3 11 6 17 17l30 45c31 35 35 33 76 27l20 -19c0 -27 -3 -59 -6 -74l-49 -202c-5 -16 -6 -10 -9 -27l-7 -31c-1 -3 -9 -26 -11 -28
c-11 -9 -14 0 -28 -13c-2 -4 -3 -17 -8 -22c-10 -8 -10 -9 -22 -9c-4 5 -8 19 -3 31l20 180c0 11 -1 20 2 31c2 5 -1 10 -1 17v7c2 4 2 4 -1 9c-16 0 -16 -10 -33 -22c-9 -7 -22 -20 -34 -28c-17 -14 -29 -22 -35 -26c-11 -8 -23 -16 -35 -16c-18 -14 -25 -8 -36 -15l-4 -1
l-5 -1l-4 -1l-5 -3c-3 1 -10 4 -17 4c-31 2 -44 3 -73 24c-59 45 -56 158 -53 188c15 158 61 318 202 419c7 2 14 6 18 13c4 3 5 4 10 6l5 4l3 5c36 15 52 30 88 31c6 0 15 -4 22 -4c4 -2 18 1 23 3c6 -2 4 -3 10 -7c5 -1 5 -2 12 -2c3 -2 13 -6 22 -12
c39 -25 83 -108 82 -164z" />
    <glyph glyph-name="H" unicode="H" horiz-adv-x="542" 
d="M564 686c4 -2 11 -13 11 -20c2 -10 1 -14 2 -24c0 -9 0 -29 -2 -47l-9 -57c-3 -11 3 -25 -1 -37l-9 -49c-2 -12 -5 -26 -8 -40v-21c-2 -11 -6 -9 -10 -21l-16 -91c-2 -4 -4 -13 -6 -19c0 -4 -4 -16 -6 -20l-18 -84c-2 -16 -3 -26 -7 -38l-1 -3l-1 -6c-2 -2 -2 -5 -4 -10
c-7 -11 -4 -9 -8 -20v-14c0 -1 -3 -12 -6 -25l-8 -22c-3 -11 -3 -11 -3 -24l-14 -52c-6 -29 -4 -20 -29 -40c-13 5 -15 -2 -25 13c-3 6 -5 23 -5 28c-1 15 4 24 10 40c-1 16 -2 24 -1 32l39 234c4 27 2 18 4 46h-18c-17 -8 -10 -1 -27 -7h-16c-9 0 -21 -5 -32 -5l-4 -1
l-4 -1h-4l-3 -2l-4 -1h-3l-4 -1l-5 -2c-12 0 -22 -4 -32 -7l-34 -13h-17s-17 -18 -20 -22c-4 -3 -17 -8 -17 -19l-5 -47c-1 -35 2 -54 10 -91l8 -3c7 7 20 24 30 21l6 -4c-2 -8 -4 -10 -10 -19c-1 -5 -3 -13 -5 -19c-1 -1 -17 -28 -23 -38c-8 -11 -20 -24 -35 -32
c-8 -4 -9 -4 -19 -5c-5 -2 -15 1 -20 4c-8 35 -8 37 -13 71v20c0 11 -4 25 -4 37v34c0 18 -3 29 0 37c-15 35 -40 65 -20 99c27 47 27 52 31 100l14 115c0 4 -1 6 1 11c0 5 0 7 1 13l12 123c18 21 37 36 60 35c12 -1 24 -7 33 -19c12 -18 -4 -69 -7 -88l-24 -154l-3 -25
l-7 -46l7 -8c12 0 29 6 36 10c22 0 17 -4 39 3h22h21h24c7 0 90 5 96 12c15 15 14 80 17 97l7 43c0 5 2 23 2 29v47c-3 11 -8 18 9 28c2 2 19 31 20 35c5 9 6 6 15 15c9 7 5 8 14 14c11 7 22 17 35 17z" />
    <glyph glyph-name="I" unicode="I" horiz-adv-x="207" 
d="M245 682c8 -9 8 -14 11 -23c0 -4 -4 -15 -4 -24v-17c-4 -10 -7 -10 -7 -26l-13 -71c0 -8 -4 -17 -4 -19l-17 -86c-3 -7 -5 -19 -5 -29l-19 -124l-3 -25l-11 -126c-4 -8 -3 -14 -3 -24c5 -17 1 -17 4 -25v-23l2 -13l3 -6l4 -6c0 -19 0 -9 -22 -32c-22 -13 -18 -15 -34 -15
l-15 9c-23 50 -14 116 -13 165v19l4 6c-4 38 -4 42 0 80l10 71v25c0 7 4 18 4 27c0 6 -3 18 0 26l-2 13l-7 4l-4 4l-2 4c-4 33 24 207 68 238c13 9 22 7 37 13c19 13 21 10 38 10z" />
    <glyph glyph-name="J" unicode="J" horiz-adv-x="386" 
d="M387 694c15 -5 12 -6 21 -18c0 -1 3 -25 4 -27c3 -23 2 -31 1 -53c-4 -66 -2 -37 -12 -103l-5 -23c-2 -10 -4 -19 -14 -45l-7 -38l-7 -38v-19c-5 -18 -13 -27 -21 -45v-20l-17 -56c-2 -6 -6 -15 -9 -22c-3 -12 -5 -22 -5 -22l-17 -53c-7 -27 -16 -103 -52 -120
c-11 -5 -69 -21 -89 -11c-27 14 -54 111 -59 134l-16 43c-8 36 -17 65 -5 128c27 -1 48 11 71 -22c12 -17 15 -37 22 -54c4 -8 8 -18 11 -27c4 -13 5 -22 5 -28c-8 -14 -26 -11 -17 -30c9 -13 7 -16 11 -28c8 -14 7 -20 22 -26h4c7 6 12 15 15 23l9 26l12 46c2 5 6 18 6 23
c0 0 8 23 8 25l15 77c6 12 3 14 8 27l9 35c2 14 -2 21 3 37l19 108c2 18 0 22 1 40c1 12 6 30 -9 41c-19 12 -23 0 -38 12c0 10 5 21 15 27l16 13c6 6 6 9 12 14c18 12 20 8 30 14c15 20 10 13 28 25z" />
    <glyph glyph-name="K" unicode="K" horiz-adv-x="499" 
d="M533 713l15 -11c-2 -79 -14 -95 -71 -170l-55 -67c-5 -7 -7 -9 -11 -12c-2 -2 -9 -12 -11 -14l-55 -58c-84 -87 -67 -55 -23 -154l15 -35c1 -2 53 -110 89 -115c32 -4 51 30 108 57c8 -5 9 -28 3 -36c-2 -4 -6 -9 -16 -17c-3 -2 -6 -3 -9 -5c-3 -1 -5 0 -10 -5
c-4 -9 -19 -22 -26 -29c-14 -19 -5 -13 -24 -27c-19 -13 -44 -24 -62 -23c-18 2 -39 13 -57 35l-15 27c-17 19 -20 16 -25 27l-11 18l-23 36l-45 68c-16 24 -22 38 -25 43c-7 -2 -9 -19 -11 -25v-28c0 -6 -5 -8 -5 -10c0 -6 0 -6 -2 -12l-5 -23v-27c0 -9 -4 -21 -4 -32
l-5 -53c-1 -11 0 -19 1 -31c-6 -6 -21 -11 -28 -9c-14 0 -18 -4 -30 1c-12 12 -3 79 -2 96l9 99c3 8 0 17 4 26v16c0 9 1 30 10 39v72c3 9 1 15 4 23c0 7 2 16 2 25l21 172c4 30 -2 29 27 54c12 12 10 14 27 21c1 0 9 2 15 8c5 4 4 4 12 7c39 -47 25 -51 12 -107l-36 -169
c-2 -4 -6 -30 -7 -34c0 -9 -7 -24 0 -32c27 22 47 42 54 50l45 50c42 52 59 66 92 119c22 38 16 20 35 59c16 33 22 27 -4 59c5 12 11 21 23 28c1 1 6 4 15 8l16 6c16 6 14 15 29 15h8l4 -1l4 1c7 0 9 5 14 6z" />
    <glyph glyph-name="L" unicode="L" horiz-adv-x="350" 
d="M193 59c119 19 74 11 193 57l5 -7c-3 -42 -4 -25 2 -63c-33 -25 -24 -26 -60 -41l-29 -10c-11 0 -21 -13 -31 -13c-7 -2 -113 -19 -121 -18c-17 2 -12 3 -30 14c-18 8 -17 5 -26 25c-6 16 2 133 21 185c-1 13 -2 10 -1 23l10 61c1 9 10 79 5 90c-9 5 -16 6 -11 19l2 23
l5 22c0 6 2 18 4 23l14 63c1 2 25 159 84 181c15 6 29 8 39 -1c17 -16 0 -91 -2 -106l-24 -144l-3 -6l-1 -6l-1 -5l-1 -7c0 -5 -1 -14 -9 -22v-29l-7 -23l-5 -22c-2 -5 -4 -14 -7 -21v-19c0 -15 -7 -18 -7 -32l-13 -62c-3 -10 -5 -23 -8 -32c2 -6 -1 -27 -1 -32
c-1 -8 -2 -26 -1 -34c0 -2 0 -22 15 -31z" />
    <glyph glyph-name="M" unicode="M" horiz-adv-x="619" 
d="M229 713c9 0 13 -2 17 -15c4 -9 2 -14 3 -22v-48c0 -50 8 -216 68 -266c10 -10 23 -15 40 -12c51 11 168 169 197 216l11 20c18 25 39 32 70 50c20 -8 20 -14 20 -32c1 -5 1 -21 -1 -38v-14c0 -9 -5 -21 -5 -32c-2 -5 -4 -27 -4 -32l-5 -25c-2 -5 -6 -17 -6 -23
c0 -5 -3 -17 -4 -23l-62 -232c-3 -11 -7 -41 -8 -47l-5 -21c-2 -2 -4 -11 -4 -14l-10 -55c-4 -2 -14 -7 -18 -8c-6 -6 -11 -12 -17 -18c-3 -3 -16 -28 -31 -23c-5 5 -1 15 -1 22v20c0 7 7 20 7 22l56 350c2 6 6 20 -3 26c-48 -41 -141 -172 -209 -184c-27 -5 -48 6 -73 32
c-11 12 -43 67 -49 77l-6 -5l-40 -266c-2 -17 -4 -80 -27 -96c-4 -2 -19 -2 -23 -3l-5 -2l-7 -2c-6 -2 -6 -5 -13 1c0 20 -2 43 -2 44v33c0 6 5 15 5 22v16c1 11 2 13 6 36l6 74c0 10 1 18 1 27l10 92c2 5 1 9 1 17v29c2 5 4 20 4 26c0 2 2 20 4 26l7 42c3 11 0 15 0 25
c0 11 0 17 1 25v30l7 6c-8 92 0 102 97 152z" />
    <glyph glyph-name="N" unicode="N" horiz-adv-x="564" 
d="M576 707c7 -7 9 -13 6 -23v-25l-54 -532c-4 -24 -17 -109 -51 -128c-10 -6 -51 -23 -63 -18c-27 11 -94 167 -99 185l-14 32c-4 6 -11 21 -14 27l-22 52c-7 12 -10 17 -15 29l-21 48l-2 4l-1 4l-4 2l-4 -1c-3 -8 -3 -11 -3 -19l-2 -5l-1 -5c-3 -5 -4 -6 -6 -11
c-5 -34 -13 -52 -18 -67l-57 -217c-6 -39 -15 -56 -31 -96c-8 -2 -10 -1 -18 -7c-5 -4 -10 -6 -18 0c-1 17 -4 13 -2 29c1 5 6 27 6 31v18c0 4 9 27 10 31l71 488c0 17 -6 69 17 88c17 10 14 -2 34 6c23 1 14 1 35 -14c6 2 6 4 11 11c5 6 6 6 10 15c18 17 8 13 26 20
c18 -11 25 -4 21 -28c0 -4 -6 -17 -9 -22c0 -2 -2 -8 -3 -11c-2 -3 -5 -7 -5 -11c-2 -4 -2 -6 -2 -12c-2 -5 0 -4 -2 -11l-3 -5l-2 -7c-1 -4 -2 -6 -3 -11c-5 -28 10 -60 22 -90l50 -147c2 -5 6 -13 9 -19c4 -6 8 -16 8 -21l51 -123c1 -2 7 -13 13 -24c3 -6 12 -20 18 -24
c6 4 7 9 7 15l5 18l16 83c14 68 9 39 16 109l8 127c0 6 0 5 -2 11l3 10c0 7 -1 14 -1 21v36c0 21 3 23 4 52l9 16c1 4 1 9 1 14c1 3 2 12 4 17l10 33c4 12 6 22 18 30c9 9 25 22 33 22z" />
    <glyph glyph-name="O" unicode="O" horiz-adv-x="560" 
d="M107 285l-14 -26h-14l-5 4c-5 12 4 23 4 36c0 11 0 23 9 35l11 21c31 54 25 46 48 99l25 71c3 10 5 13 11 31l8 23c7 17 14 26 25 45c4 13 5 11 15 22c3 1 7 3 11 7c3 5 7 8 12 10l18 -15c-2 -23 -3 -28 -8 -39c-2 -4 -8 -13 -10 -18c-2 -6 -1 -5 -1 -10
c-2 -4 -3 -5 2 -11c19 20 28 28 64 53c33 24 32 29 66 32c14 14 10 13 23 13c2 -1 6 -3 11 -6c4 0 8 -2 13 -2c2 0 7 1 11 -1c5 -3 5 -5 12 -5l5 -1l6 -2l13 -10c81 -60 115 -160 111 -241c-9 -125 -54 -203 -161 -315c-61 -64 -154 -121 -227 -105c-41 8 -65 28 -81 70
c-13 36 -15 86 -15 120c0 8 -3 20 -3 30c2 5 2 10 4 15c0 4 0 11 1 14c0 7 1 7 4 14c5 9 1 8 1 16c0 5 2 10 2 15v8l-3 3h-4zM403 548c-46 15 -95 -3 -128 -30c-84 -67 -84 -234 -87 -304c-1 -37 8 -110 52 -144c20 -16 58 -6 72 -2c88 32 127 115 178 211c2 22 10 43 13 78
c0 11 -4 33 -4 76c-22 41 -46 100 -96 115z" />
    <glyph glyph-name="P" unicode="P" horiz-adv-x="460" 
d="M206 715c67 -12 175 -85 227 -159c42 -59 70 -170 46 -242c-32 -92 -137 -132 -208 -163l-44 -17c-10 -5 -12 -5 -24 -5c-16 -11 -9 -7 -25 -7c-6 -8 -8 -23 -8 -34c0 -4 1 -12 1 -17c-3 -11 -2 -13 -2 -18c-1 -27 -5 -39 19 -68c-8 -15 -30 -67 -58 -71
c-10 -3 -14 0 -20 9c-21 24 -13 95 -12 121v14c4 37 5 28 -31 50c-5 12 -2 9 1 21c9 9 12 2 22 10c21 18 18 26 20 44l7 89c0 7 1 15 1 23l3 23l30 176c1 2 4 12 4 31c1 5 7 26 6 32c-3 24 -26 40 -41 65c-11 17 -13 18 -3 37c7 13 19 27 40 44l6 3l6 5c5 4 7 9 13 11
c13 4 8 4 24 -7zM202 607c68 -80 68 -83 40 -164l-11 -34c0 -3 -3 -11 -3 -14l-12 -45c0 -5 2 -10 2 -15l-18 -65c-6 -27 -5 -18 -9 -45l-5 -23c0 -5 1 -18 5 -23c47 16 179 65 203 134c15 45 -8 121 -35 167c-20 34 -43 57 -72 83c-9 8 -28 26 -43 33c-4 2 -15 6 -21 9
c-6 4 -5 4 -12 7l-5 1z" />
    <glyph glyph-name="Q" unicode="Q" horiz-adv-x="590" 
d="M310 5l-10 -11c-40 -18 -102 -30 -141 -4c-60 40 -80 105 -83 154c-1 10 10 78 11 83c4 27 8 38 9 41c3 6 4 14 12 20c4 4 16 3 21 4l6 -6c-5 -47 10 -160 63 -206c6 -5 17 -14 30 -19c0 0 24 -8 32 0c-90 141 -138 252 -108 373c25 101 85 196 197 243
c48 19 102 27 161 -8c50 -30 77 -87 81 -140c12 -129 -31 -280 -127 -393c-18 -22 -14 -13 -34 -38c-1 -3 -1 -5 -7 -10l-5 -6l-5 -3c-7 -6 -10 -10 -7 -21c3 -15 11 -14 25 -27c19 -14 10 -14 27 -31c13 -13 44 -34 64 -50l34 -25c6 -4 66 -49 66 -55
c-1 -5 -14 -17 -20 -21c-12 -8 -32 -10 -58 2c-19 8 -103 51 -122 64c-30 22 -27 20 -58 48c-6 6 -4 3 -12 13l-3 2l-4 3l-3 4l-2 3c-15 15 -12 17 -30 17zM435 176c63 89 92 239 72 311c-13 48 -37 86 -85 103c-35 11 -76 8 -116 -20c-54 -38 -80 -126 -79 -167
c2 -114 47 -209 136 -303c44 36 53 50 72 76z" />
    <glyph glyph-name="R" unicode="R" horiz-adv-x="513" 
d="M556 -75c-9 -4 -16 -5 -27 2c-6 2 -19 14 -27 19l-46 19c-10 5 -18 11 -30 17c-14 9 -11 3 -28 14c-13 7 -22 14 -30 19c-7 8 -23 22 -31 25l-70 46c-10 7 -19 14 -35 26l-30 23c-5 3 -9 6 -17 8c-7 -5 -7 -7 -7 -16l-27 -154l-4 -5c-6 -2 -14 -6 -26 3
c-12 8 -16 7 -20 23l2 53v24c4 32 10 44 10 77v39c-8 19 -22 14 -32 34c-1 3 -2 17 -1 20c0 4 1 16 9 20l36 26c2 3 3 32 4 36v38c0 21 0 21 1 37l-5 132c-3 35 -15 88 21 124c38 37 86 36 126 31c57 -6 184 -49 237 -113c24 -31 30 -71 23 -100c-12 -48 -59 -68 -134 -115
l-45 -29c-7 -2 -24 -11 -35 -15l-15 -8c-12 -6 -71 -30 -71 -48c0 -28 29 -33 87 -88l35 -31l34 -22l137 -103c35 -25 33 -43 31 -88zM224 322c4 2 9 6 13 8c18 11 27 10 28 11c4 2 42 25 57 34c44 23 92 62 108 82c12 15 13 27 8 38c-22 47 -124 77 -155 82
c-43 6 -91 17 -112 -5c-3 -5 -6 -12 -5 -34c0 -11 0 -23 11 -31l5 3l2 4l4 4l4 2l4 1l4 2l3 2l4 2c13 2 17 1 25 -11c10 -12 8 -23 2 -46c-5 -13 -3 -10 -3 -25l-5 -23l-18 -101c8 -6 9 -3 16 1z" />
    <glyph glyph-name="S" unicode="S" horiz-adv-x="404" 
d="M422 708c2 -2 14 -13 16 -16c0 -7 1 -13 1 -20c1 -18 -2 -34 -5 -40c-5 -9 -57 -51 -82 -67l-43 -27c-4 -2 -16 -11 -22 -11c-2 0 -16 1 -22 10c0 10 5 23 17 32c5 4 32 23 22 30c-50 -33 -90 -71 -96 -115c-2 -20 14 -62 18 -69c11 -15 17 -17 26 -33
c15 -19 14 -19 27 -36l60 -69c47 -54 48 -53 52 -120l13 -5l5 -6c0 -7 3 -20 -2 -29l-31 -18c-19 -14 -20 -22 -54 -53c-23 -23 -47 -40 -58 -47c-1 -1 -89 -52 -118 -54c-22 -2 -51 9 -61 20c-4 5 -9 16 -5 29c10 35 103 70 117 77l24 11c9 5 10 9 21 11c5 2 16 1 21 -11
c0 -14 -8 -13 -18 -20l-7 -5l-6 -3l-6 -5l2 -5c7 0 21 3 27 17c10 6 19 13 27 25c2 11 -7 9 3 22c12 10 7 7 21 17c1 33 -14 58 -41 87l-49 53c-76 82 -121 109 -109 202c10 80 122 176 201 211c32 14 80 36 114 30z" />
    <glyph glyph-name="T" unicode="T" horiz-adv-x="405" 
d="M384 699l7 -5c12 8 27 -3 35 -5c14 8 22 2 27 -14l1 -4l-1 -5v-9l1 -4l3 -5v-4l-3 -5c-1 -5 9 -24 -1 -38h-19c-16 6 -12 2 -27 2l-29 7c-5 -1 -14 -3 -28 -3c-6 2 -24 2 -27 -7c46 -44 38 -66 31 -120l-19 -107c-2 -4 -4 -16 -4 -20l-16 -87c-3 -7 -7 -32 -7 -34
l-16 -108v-29c-3 -10 1 -21 -2 -29v-75c-7 -10 -9 -4 -17 -9l-4 -2l-5 -6c-3 -4 -2 -6 -8 -7c-11 0 -16 4 -20 18c-3 8 -1 20 0 28c-9 38 -9 33 -4 71c-4 4 -7 18 -7 24v39c0 8 2 17 2 26l18 252c5 17 -2 14 10 31c0 10 -4 22 0 33v25c0 11 2 22 9 33v41l-26 12l-10 -8
c-8 -1 -59 -10 -68 -13c-16 -6 -23 -7 -34 -11c-10 0 -23 -11 -33 2c4 17 12 85 30 103c20 19 92 19 111 22l45 5c12 1 39 5 52 4c5 0 7 -2 13 -4l6 2l7 -2c16 -5 9 -1 27 -1z" />
    <glyph glyph-name="U" unicode="U" horiz-adv-x="506" 
d="M544 709c6 -5 7 -8 7 -16c0 -7 1 -9 4 -16c1 -7 2 -14 1 -33v-28c-9 -84 -8 -78 -19 -126l-10 -39l-6 -18l-7 -35c-3 -10 -9 -19 -12 -28l-4 -34c-3 -8 -5 -19 -5 -27l-18 -86c-3 -10 -2 -23 -5 -35l-14 -82c-3 -28 -6 -55 15 -82v-7c-20 -29 -43 -64 -69 -66
c-7 -1 -16 1 -22 8c-17 20 -8 86 1 145v14c0 6 3 14 0 17l-17 -15l-10 -21c-1 -3 -5 -9 -6 -10c-3 -3 -8 -7 -11 -12c0 -6 -3 -12 -11 -20c-8 -11 -8 -10 -20 -21c-22 -23 -44 -43 -77 -48c-2 0 -11 2 -17 6l-4 -2l-5 -2h-9c-11 1 -21 5 -36 22c-34 37 -56 130 -53 177
c-10 11 -7 10 -7 22v18c-2 6 1 11 1 16v27c0 6 -3 12 -3 18v113c0 6 -3 17 -3 26v28v18c0 15 6 20 6 34v27c0 7 3 15 3 23v23c1 25 5 38 6 41c1 4 6 17 10 22c5 5 14 13 21 13c48 -74 64 -49 57 -113l-8 -62l-3 -21v-15c0 -8 -3 -20 -3 -30c-4 -9 -7 -10 -7 -28v-34
c1 -48 -6 -212 61 -261c12 -9 26 -12 45 -4c15 7 23 16 36 37c2 9 7 14 13 22c1 3 5 8 7 12c6 6 8 10 9 12c18 31 20 60 31 91l22 57c0 6 2 18 5 27l18 63l3 20c2 4 4 17 4 21l20 96c12 44 11 27 26 71l13 43c7 20 -1 16 19 31c15 5 24 16 37 16z" />
    <glyph glyph-name="V" unicode="V" horiz-adv-x="455" 
d="M210 716c0 -7 -3 -16 0 -24c0 -13 3 -10 3 -24c0 -6 -3 -16 -3 -24c0 -2 1 -8 1 -12s-1 -8 -1 -13v-14c0 -7 -1 -17 -1 -26c-1 -2 -5 -14 -5 -27v-128l11 -74l7 -64l6 -31v-28c0 -13 8 -14 13 -26c3 -8 5 -20 8 -30l13 -37c37 41 24 22 43 68l8 19c5 8 7 14 11 22
c2 5 4 6 9 12c5 7 3 5 5 11l15 39c2 5 1 6 8 16l23 63c16 45 25 55 27 103c1 10 12 91 25 103c8 6 22 7 32 11c11 5 12 16 32 9l4 -7c0 -38 -3 -94 -22 -133c-8 -60 -17 -71 -25 -94l-117 -268c-5 -16 -14 -14 -14 -31c6 -8 8 -19 1 -29c-4 -6 -8 -5 -13 -12
c-2 -4 -2 -3 -6 -8l-3 -4l-2 -3c-5 -7 -12 -19 -27 -25c-5 -3 -8 -4 -14 -10c-2 -6 -5 -11 -11 -13c-14 -10 -31 -14 -47 -6c-17 7 -15 14 -19 29c-1 12 4 20 20 41l-22 60c-6 8 -7 22 -10 30l-8 15l-1 4l-1 3c-1 2 -3 6 -4 9v18c-2 5 -7 13 -9 20v19l-14 48
c-4 26 -5 33 -6 55c-12 65 -14 81 -14 126c-16 49 -29 180 -6 229c11 23 17 31 46 44l7 1l3 2l4 2l3 3l4 1s4 3 8 3c6 2 20 -1 25 -13z" />
    <glyph glyph-name="W" unicode="W" horiz-adv-x="622" 
d="M236 126l6 -6c7 0 8 2 15 14l11 19c1 3 6 15 9 20c2 5 7 15 11 20l18 45c3 7 2 13 8 22c2 4 3 6 4 12l3 5l5 6l15 52c3 6 4 16 8 24l10 26l8 36c6 31 6 17 14 49v22c5 31 9 94 54 111c11 4 37 17 50 6c15 -14 -1 -82 -4 -99l-18 -116c-4 -35 -9 -89 -9 -153v-75
c2 -5 2 -15 2 -22c5 -12 -2 -13 6 -19c7 2 10 5 13 13l13 35l2 5l3 6l1 5l3 7c4 8 7 14 10 23l30 87c1 3 4 11 6 13l51 162c9 31 18 65 20 97c3 33 5 57 52 89c8 -6 6 -22 6 -31v-33c-9 -96 -2 -54 -24 -150l-9 -40c0 -4 -10 -31 -11 -33l-9 -36l-7 -16c-2 -4 -4 -10 -6 -15
v-17c-3 -14 -9 -21 -11 -28l-11 -35c-7 -23 -10 -29 -22 -48c0 -15 0 -11 -7 -27l-5 -15c-15 -33 -34 -86 -69 -115c-19 0 -14 0 -34 -9c-13 -3 -25 -1 -36 7c-30 22 -27 120 -29 147v46c0 6 -1 18 -11 24l-22 -43c-4 -9 -4 -8 -9 -16c-1 -3 -6 -12 -9 -17l-30 -76
c-2 -5 -5 -12 -9 -18c-3 -4 -5 -12 -9 -19c-3 -8 -13 -25 -20 -37c-20 -40 -22 -39 -61 -40c-24 39 -42 90 -40 132c-13 27 -12 24 -17 51l-20 145l-5 38c0 4 -3 12 -3 19c-8 13 -10 7 -19 13c-6 48 -6 68 -4 106v37l4 20c0 6 1 15 1 22l8 49c1 9 5 102 33 116
c9 -3 8 5 22 1c6 -1 14 -3 23 -10c42 -33 36 -98 30 -137v-41c0 -11 -7 -21 -7 -22c0 -5 2 -14 2 -21v-68v-32v-56c0 -7 2 -14 2 -21c1 -6 1 -9 2 -19v-33c1 -4 8 -31 8 -37l6 -56c3 -11 8 -15 8 -26v-21z" />
    <glyph glyph-name="X" unicode="X" horiz-adv-x="495" 
d="M455 19c-11 -7 -24 -7 -37 -7c-55 21 -98 99 -127 146l-30 42c-9 -3 -13 -16 -15 -20c-6 -9 -8 -9 -17 -22l-35 -67c-5 -8 -5 -9 -9 -18c-2 -2 -9 -15 -10 -19l-14 -23c-14 -19 -21 -25 -32 -44c-3 -4 -10 -15 -10 -22c-4 -7 -9 -14 -14 -22l-10 -14c-14 0 -19 -1 -19 18
c0 9 2 20 2 30c-1 3 -2 14 5 31c7 7 1 13 15 32l48 90c4 6 8 15 12 21c2 2 4 7 5 11c4 7 6 11 7 12l9 18c6 10 45 65 47 77c1 12 -25 65 -29 79l-31 88c-2 4 -7 21 -7 27l-15 44c-20 88 -40 75 2 157c11 20 5 15 26 29c19 13 21 14 36 14c9 -9 5 -7 9 -15c4 -9 6 -8 12 -14
c0 0 2 -4 2 -7l3 -4l1 -4l3 -4l1 -4c2 -3 4 -5 4 -9c2 -5 2 -10 0 -15c0 -8 -3 -7 0 -15c0 -17 -12 -17 -6 -32c-1 -52 12 -72 25 -124v-17l9 -8l2 -4l1 -5l19 -54c6 11 11 24 47 71l21 36c5 14 3 10 15 24l28 44c2 4 16 32 12 36c-6 -2 -6 -1 -10 -6l-3 -4l-7 -1
c-5 1 -14 2 -19 14c0 6 14 30 20 37c4 4 17 16 38 34c6 5 69 56 76 56c8 0 18 -6 27 -25c8 -18 -3 -73 -8 -93c-8 -31 -30 -59 -55 -93l-96 -130c-70 -110 -71 -67 -5 -198l22 -47c10 -9 12 -12 18 -30c4 -7 7 -13 20 -31l14 -19c4 -6 9 -23 7 -28z" />
    <glyph glyph-name="Y" unicode="Y" horiz-adv-x="453" 
d="M516 676c-6 -70 -7 -129 -50 -200c-3 -13 1 -13 -5 -25c-12 -12 -8 -14 -13 -26l-45 -81c-47 -72 -29 -42 -62 -116l-34 -76c-19 -41 -35 -110 -19 -152l-27 -24h-9c-8 -14 -28 -15 -30 -16c-9 -1 -26 1 -34 4c-15 6 -15 4 -17 21c0 3 15 64 28 91c0 16 2 22 7 39l7 19
c16 40 14 22 22 66c-28 21 -29 28 -43 60l-31 68v18c-22 80 -22 42 -36 124l-7 57c-3 28 -24 86 0 115c11 18 10 9 30 16c3 1 30 15 35 14c6 -1 32 -23 37 -32c3 -7 -3 -51 -3 -58c4 -11 3 -22 3 -30v-31c7 -74 3 -40 17 -117l15 -69c0 -12 -2 -13 5 -24c3 -4 13 -21 16 -24
c10 5 17 20 20 28l35 78l8 19l18 39c1 2 4 12 6 16l16 34l10 23c5 5 14 24 14 24l22 43c2 4 31 52 41 68c2 2 18 30 23 33c14 4 22 1 30 -16z" />
    <glyph glyph-name="Z" unicode="Z" horiz-adv-x="497" 
d="M493 490c-12 -7 -19 -23 -22 -27l-46 -55c-2 -5 -4 -9 -7 -14l-77 -95l-13 -16l-36 -49c-9 -13 -6 -7 -18 -23l-14 -19c-18 -18 -16 -12 -22 -27l-16 -17c-7 -16 -12 -18 -23 -35c-5 -8 -18 -27 -13 -36c21 0 18 10 39 2c2 0 8 3 18 3c9 0 11 -4 21 -6
c49 21 61 12 113 30c61 20 50 22 113 45c7 -4 5 -11 5 -17c4 -11 3 -10 3 -21c-4 -6 -9 -16 -10 -19l-21 -13l-19 -9c-11 -4 -15 -2 -26 -10l-33 -18c-9 -3 -15 -2 -24 -8c-6 -7 -12 -9 -23 -14l-32 -9c-9 -5 -20 -8 -28 -12s-21 -8 -30 -11l-34 -7c-35 -7 -95 -31 -129 -9
c-15 10 -26 25 -27 43c-5 40 26 84 66 129l179 226c2 2 10 11 12 21c2 2 7 9 14 19l29 40c15 23 62 91 42 116c-28 32 -163 30 -192 31h-59s-11 -1 -17 4c-1 28 0 34 8 54c6 8 5 4 8 12c3 7 -1 6 4 14c4 7 9 15 21 21c37 20 196 -1 232 -14c39 -13 94 -38 104 -95
c9 -47 -8 -56 -20 -105z" />
    <glyph glyph-name="bracketleft" unicode="[" horiz-adv-x="362" 
d="M354 692c10 -14 8 -14 8 -32c0 -8 -13 -26 -22 -29c-73 8 -124 1 -139 -90v-27c-1 -5 -5 -12 -7 -20l-5 -20v-32c0 -6 -5 -15 -5 -22l-3 -22l-57 -361c-6 -28 -16 -60 -6 -70c6 -6 51 -11 84 -3c4 0 28 7 32 9c9 0 26 4 34 -1c7 -21 -8 -15 -8 -35c-6 -21 -5 -19 -27 -26
c-17 -6 -78 -10 -97 -11c-44 -4 -58 -4 -92 30v47c0 4 2 9 4 14v30c0 3 7 30 9 36v19c1 5 2 33 2 39l48 356c6 37 24 166 82 192c6 3 103 37 165 29z" />
    <glyph glyph-name="backslash" unicode="\" horiz-adv-x="454" 
d="M71 709c7 -3 19 -2 23 -3c8 -4 12 -4 24 -9c8 0 15 -2 22 -5l18 -50c1 -1 10 -18 17 -38l11 -38c5 -14 13 -46 26 -73l202 -405c36 -74 52 -107 36 -179c-13 0 -10 -2 -21 5c-6 1 -7 2 -11 5c-2 3 -3 4 -9 8c-17 7 -15 17 -15 28c2 4 -5 25 -7 31l-18 41
c-5 15 -10 25 -16 36c-7 17 -5 19 -16 36l-15 27c-7 12 -10 17 -13 23l-143 256c-4 8 -9 22 -14 30l-56 111c-26 58 -28 76 -42 135l-6 22c6 9 15 9 23 6z" />
    <glyph glyph-name="bracketright" unicode="]" horiz-adv-x="359" 
d="M342 664v-25l-7 -73c0 -17 -4 -18 -4 -30v-26c0 -10 -5 -22 -5 -34l-43 -351c-6 -40 -26 -175 -89 -198c-17 -6 -102 -36 -160 -27c-5 19 -17 36 7 55c6 10 12 6 22 3l13 2c5 -1 11 -1 12 -1c17 0 34 3 51 12c38 18 35 24 45 65c3 8 5 29 5 37l8 39l7 54v10v6l2 5l16 86
c5 18 -1 11 6 28l16 132c0 7 4 18 4 27l9 63c2 5 4 12 4 19l3 21l6 24c2 12 1 19 1 34c-10 14 -19 5 -33 10c-17 3 -25 4 -35 2c-15 -2 -60 -16 -70 -15c-8 -3 -13 1 -16 8c-1 0 10 37 11 40c16 26 97 25 104 26c44 3 72 9 110 -28z" />
    <glyph glyph-name="asciicircum" unicode="^" horiz-adv-x="297" 
d="M295 474c0 -7 1 -14 1 -21c0 -13 3 -8 -1 -22l-39 16c-7 4 -7 3 -16 6l-16 8l-25 10l-34 22h-10c-19 -19 -17 -13 -35 -27l-36 -18l-22 -14c-14 0 -18 9 -18 26c9 14 105 90 125 91c9 0 54 -30 63 -35c37 -17 28 -11 63 -42z" />
    <glyph glyph-name="underscore" unicode="_" horiz-adv-x="589" 
d="M627 -165h-593v41h593v-41z" />
    <glyph glyph-name="grave" unicode="`" horiz-adv-x="268" 
d="M89 578c60 -87 95 -93 179 -130v-10l-22 -14l-62 21c-14 5 -17 7 -26 9l-19 12c-7 2 -16 9 -26 15c-6 4 -22 13 -28 14c-23 11 -24 15 -41 43c1 14 -3 20 11 32c11 8 24 7 34 8z" />
    <glyph glyph-name="a" unicode="a" horiz-adv-x="400" 
d="M380 366c0 -9 -1 -10 -4 -18c-9 -9 -10 -9 -16 -18l-149 -142c-4 -5 -15 -17 -17 -18c-4 -4 -13 -14 -18 -22c-10 -8 -12 -10 -15 -19l-8 -11l-3 -5l3 -5c18 0 13 7 32 19l63 55c48 39 51 58 103 61c9 -5 9 -15 9 -24c1 -2 5 -12 5 -27c0 -16 -8 -38 6 -55
c8 -10 20 -18 34 -15c3 1 8 3 22 13c6 5 18 19 22 14c0 -8 1 -29 0 -42c0 -6 5 -13 -4 -22c-2 -3 -18 -15 -22 -18c-32 -25 -58 -33 -87 -25c-18 5 -38 22 -47 48c-4 14 -4 30 -5 44l-8 4l-39 -36c-39 -37 -117 -110 -155 -102l-20 10c-13 9 -8 8 -12 21c-5 18 -2 32 6 54
l-10 6c-1 21 -9 52 16 76l19 15c6 6 11 12 16 18l18 15c13 20 15 19 32 32c12 9 21 22 33 31c19 14 19 11 38 30l37 29c15 13 54 39 64 44c7 3 21 7 32 5c15 0 23 -4 29 -20z" />
    <glyph glyph-name="b" unicode="b" horiz-adv-x="342" 
d="M229 341c0 -10 -2 -20 -13 -31c-2 -5 -2 -10 -8 -16c-1 -4 -3 -12 -6 -17l-8 -14c-55 -92 -68 -113 -41 -196c6 -16 13 -25 22 -27c2 -1 32 9 33 10c7 3 19 12 24 29l-27 18c3 26 6 44 22 69c11 17 43 61 57 67h61c8 -50 -39 -134 -67 -185l104 108l7 -7
c4 -25 13 -40 -7 -59c-4 -2 -15 -7 -25 -17l-26 -17c-10 -8 -25 -16 -25 -16c-7 -6 -17 -15 -27 -12l-5 5v8c-35 -36 -87 -97 -133 -91c-19 2 -39 11 -50 37c-11 28 -18 89 -23 117l-24 -18c1 19 0 53 1 55c3 14 5 10 18 26c14 18 12 11 16 29l15 86l5 31l8 30l19 66
c3 8 4 16 7 25c1 4 5 21 5 27l10 26c5 7 6 12 7 12l1 6l1 4l1 3l20 42c23 56 53 145 135 153c4 0 15 -3 19 -1c10 0 12 -4 17 -16c10 -19 -9 -103 -27 -158c-16 -50 -11 -35 -30 -79c-2 -5 -4 -13 -6 -19c-5 -11 -8 -17 -11 -21c-5 -4 -10 -13 -12 -19
c-3 -8 -14 -21 -14 -21v-14l-6 -5l-3 -4c-2 -1 -9 -6 -11 -9zM254 538l-29 -62c-46 -94 -41 -86 -59 -163h6l3 5l1 4l3 5l13 21l14 34c1 3 13 26 20 44l7 19l8 21c0 8 0 8 5 21l24 72c-12 9 -16 -20 -16 -21z" />
    <glyph glyph-name="c" unicode="c" horiz-adv-x="341" 
d="M346 349l8 -6c3 -46 15 -48 -36 -86l-54 -36c-43 -35 -94 -52 -98 -108c-1 -19 3 -35 15 -45c11 -8 48 -11 68 -5c35 12 84 42 133 89l11 -9c-6 -62 9 -47 -59 -93c-63 -41 -136 -84 -198 -56c-53 24 -61 62 -65 105l-26 -13c-2 6 -1 8 0 13c0 4 1 9 0 14v7v4l1 3l-1 7v7
l63 55c69 58 163 147 238 153z" />
    <glyph glyph-name="d" unicode="d" horiz-adv-x="467" 
d="M460 494c0 -2 1 -7 -1 -11s-4 -9 -4 -13l-42 -93c-17 -55 -25 -42 -31 -98c-2 -13 2 -81 9 -97c8 -21 21 -44 44 -48c10 -3 24 -1 40 4l20 10c5 5 14 10 20 8c0 -12 -2 -19 -3 -20c0 -12 4 -8 -1 -20c3 -6 5 -15 4 -21c-3 -5 -15 -12 -20 -16c-25 -16 -85 -35 -126 -13
c-43 23 -59 84 -66 113c-6 -3 -9 -5 -16 -13l-8 -15c-27 -33 -119 -159 -173 -164c-13 -1 -35 3 -44 18c-8 11 -5 40 5 68v8l6 23l-28 -18c-8 7 -3 14 0 27l-2 28c2 8 41 34 50 43l97 98c41 41 50 57 99 91c28 20 30 6 42 36l18 54l12 35c9 22 71 175 108 187
c9 3 19 2 25 -2s4 -7 8 -14c0 -6 -2 -10 -2 -16c0 -54 -21 -114 -40 -159zM154 98l3 -4l4 1l3 3l4 1c7 5 9 8 14 13c11 9 16 16 26 26c25 28 47 55 48 56c31 39 48 64 50 114c-72 -76 -120 -120 -152 -210z" />
    <glyph glyph-name="e" unicode="e" horiz-adv-x="292" 
d="M134 141c3 -31 5 -45 36 -56c45 -16 129 38 171 66v-57l-42 -28c-73 -43 -130 -80 -191 -51c-41 20 -61 71 -63 107c-7 76 44 169 130 232c29 21 48 27 71 17c18 -8 29 -21 31 -46c6 -64 -67 -118 -133 -172zM157 251c-10 -10 -22 -27 -22 -37c4 -8 15 -2 20 6
c7 11 10 9 19 16c11 10 15 16 19 23c6 7 6 15 0 19c-10 0 -30 -18 -36 -27z" />
    <glyph glyph-name="f" unicode="f" horiz-adv-x="266" 
d="M298 712c20 -41 20 -76 17 -121l-7 -44c-10 -68 -16 -145 -53 -213l-13 -24c-40 -67 -47 -162 -48 -199l-8 -87c-1 -27 1 -21 1 -50v-22c-2 -34 -5 -54 -5 -55c1 -10 4 -15 7 -27c3 -9 -2 -17 6 -26c19 31 34 61 44 97v14c4 10 12 21 12 32l24 84c7 18 6 13 12 31l18 7
l6 -6v-19c2 -6 1 -11 1 -14l-1 -7s-3 -4 -3 -7c4 -12 10 -15 7 -28c0 -16 -1 -12 -7 -28c-1 -5 -6 -22 -6 -29l-22 -85c-13 -43 -40 -132 -86 -168c-22 0 -37 -1 -50 16c-2 2 -14 31 -18 51c-11 48 -8 36 -15 104l-5 114s3 42 3 44v79l-36 -23c-4 -3 -26 -25 -31 -19
c3 22 3 22 3 38c0 2 -2 15 -1 19c1 3 15 14 19 17c24 25 32 42 55 79c21 36 17 38 17 80v33c8 96 5 57 31 157l6 31c2 6 10 19 12 25c2 8 3 17 6 25l13 29c16 40 16 50 30 68c9 12 19 23 31 28c16 8 16 3 34 -1zM252 559c-35 -83 -57 -127 -45 -207c8 18 21 35 30 55
c11 28 7 27 14 54c3 9 4 19 7 28c0 7 3 21 4 26c2 12 3 18 3 28c0 5 -1 11 -1 14c0 5 3 9 3 13v14z" />
    <glyph glyph-name="g" unicode="g" horiz-adv-x="359" 
d="M366 420c13 -11 18 -10 18 -27c2 -10 1 -21 0 -32c-17 -22 -45 -52 -50 -57l-56 -49c-13 -13 -22 -21 -33 -31c-14 -10 -22 -19 -34 -27c-8 -10 -13 -50 -9 -68c3 -17 23 -54 48 -87l157 115c6 -71 5 -54 -79 -122l-17 -16c-7 -7 -24 -18 -28 -27v-7
c35 -74 61 -131 3 -206c-40 -49 -134 -109 -196 -97c-21 5 -51 22 -55 44c-14 70 41 144 105 208l35 35c0 8 1 7 -4 19c-4 8 -11 14 -15 20c-2 2 -19 26 -26 40c-16 29 -15 51 -19 81l-65 -43c2 38 0 46 -1 56l14 15c36 32 65 49 79 69l9 15c42 62 144 173 219 179z
M187 -100c-54 -60 -71 -73 -103 -140c11 -18 3 -14 21 -20c4 -1 11 0 29 5c41 13 89 51 102 90c12 33 -4 61 -25 92z" />
    <glyph glyph-name="h" unicode="h" horiz-adv-x="371" 
d="M380 703l7 -10l12 1l21 -14c-3 -49 -10 -79 -18 -102l-9 -14l-11 -28c-5 -14 -8 -21 -11 -29l-9 -14c-2 -3 -39 -76 -43 -81l-13 -19c0 -1 -3 -5 -6 -9s-4 -7 -7 -11c-5 -5 -13 -13 -15 -18l-36 -49c-7 -12 -15 -18 -21 -32l-19 -22c-36 -44 -48 -44 -56 -95
c-3 -14 -4 -21 -4 -23l-3 -26c-2 -7 -3 -15 -3 -24c0 -5 1 -21 5 -26c36 43 33 43 58 90l9 14c37 65 15 74 85 87l12 -16c10 -22 9 -80 44 -96c7 -3 18 -4 37 4c9 3 28 20 38 17c5 -12 1 -8 1 -20c-4 -7 -3 -11 -3 -20c-4 -25 2 -18 -22 -34c-11 -8 -36 -25 -50 -28
c-5 -2 -42 -3 -49 0c-22 6 -33 24 -54 55h-7c-5 -5 -9 -13 -15 -20l-18 -20c-9 -9 -6 -21 -17 -31l-25 -34c-22 -29 -30 -41 -58 -42c-16 -1 -29 4 -37 19c-12 21 -13 67 -11 116l-15 -10c1 10 1 18 1 27c1 11 -2 14 0 26c5 15 3 10 20 27c1 2 3 8 3 14c2 3 4 9 5 14l7 31
c20 106 154 443 300 475zM340 601c-6 -6 -7 -6 -12 -11c-9 -11 -10 -15 -18 -26l-15 -22l-5 -8l-4 -4l-3 -3c-2 -5 -5 -12 -6 -15l-56 -79c0 -12 -3 -21 -6 -28l-17 -43c0 -1 -1 -4 -4 -8l-2 -8l-7 -19c-4 -9 -6 -21 -6 -22c94 107 114 149 147 223l19 40c12 19 9 19 9 37
c-7 7 -9 2 -14 -4z" />
    <glyph glyph-name="i" unicode="i" horiz-adv-x="288" 
d="M281 542c-6 -35 -15 -98 -64 -120c-13 -8 -8 -4 -24 -4c-8 0 -4 -3 -13 0c-8 -2 -5 -1 -13 2c-11 27 -17 44 -2 69c4 7 10 14 18 22c6 7 8 11 23 16c4 4 3 5 8 11c0 1 6 6 11 8c3 2 13 7 24 9c13 4 23 7 32 -13zM341 157v-58c-40 -40 -84 -74 -122 -67
c-12 2 -22 8 -38 26c-4 5 -10 13 -14 21c-5 5 -7 14 -7 20c-4 7 -12 18 -17 27c-4 8 -3 21 -17 23c-9 2 -29 -17 -42 -29c-5 -3 -5 -4 -9 -11c-2 0 -9 -4 -12 -6c-2 -3 -10 -17 -19 -14c0 11 1 22 1 33c0 6 1 27 3 33c15 10 21 15 27 21l15 17c19 22 22 30 43 50
c14 11 8 6 18 22c14 12 11 10 27 8s34 -13 42 -27c2 -4 12 -105 29 -122c12 -15 14 -11 29 -8c11 2 22 8 32 17c5 7 17 18 31 24z" />
    <glyph glyph-name="j" unicode="j" horiz-adv-x="307" 
d="M241 471c-11 8 -14 23 -17 31c-1 9 -1 20 5 34c10 18 64 68 89 72c11 4 15 -2 27 -7c6 -7 -1 -47 -4 -56c-10 -34 -20 -58 -62 -71c-8 -3 -13 -3 -38 -3zM254 71c10 0 25 18 36 28l15 14c10 10 14 19 23 28c1 1 18 26 29 23c-2 -28 -1 -31 5 -57c-13 -11 -11 -8 -22 -26
l-14 -13c-45 -46 -97 -93 -111 -145l-17 -60c-8 -24 -63 -191 -112 -196c-10 -2 -24 0 -31 12c-23 43 35 182 72 242l21 34c27 43 30 86 35 130l5 48c1 14 -1 21 -1 37c0 10 6 29 -8 37c-6 0 -10 -1 -19 -7c-12 -8 -17 -14 -19 -16l-25 -31c-9 -12 -12 -14 -16 -17
c-6 -6 -9 -13 -16 -20l-39 -34c2 47 -12 51 23 91l102 118c15 17 57 75 79 77c4 1 21 -4 26 -10c9 -9 5 -37 4 -45c0 -4 1 -19 -1 -23c0 -8 1 -16 1 -24v-21c0 -10 -6 -44 -14 -89l-11 -62c0 -11 -4 -12 0 -23z" />
    <glyph glyph-name="k" unicode="k" horiz-adv-x="387" 
d="M273 666c4 0 16 3 26 -12c5 -5 11 -14 16 -27c5 -14 5 -25 2 -53c-4 -24 -21 -82 -30 -108l-37 -94c-25 -63 -18 -38 -35 -112l-25 -95l-5 -21l-11 -46c0 -5 -4 -34 0 -39c5 2 13 11 16 14c5 7 6 14 9 21c9 19 12 20 21 40c5 11 11 66 20 78c8 15 21 16 33 20
c16 10 16 14 26 31c1 3 16 29 19 34c2 7 8 25 14 34l17 35c4 6 15 30 26 34c13 0 18 0 24 -18c1 -2 2 -27 1 -32c-2 -16 -16 -41 -27 -62l-9 -15c-12 -20 -18 -26 -28 -49c-2 -4 -8 -19 -10 -24c-6 -10 -9 -14 2 -26c7 -12 38 -49 57 -49c6 0 14 1 26 11c6 7 19 22 27 20
c6 -34 9 -55 -27 -90c-17 -17 -44 -31 -65 -26c-9 2 -17 6 -37 23c-9 8 -8 8 -19 16l-11 5l-5 4l-5 5c-16 3 -14 -5 -23 -17c-17 -21 -83 -116 -109 -117c-11 0 -23 1 -28 17c-19 29 -4 84 -1 115l9 69c-10 -5 -8 -9 -18 -19c-9 -5 -4 -11 -17 -20c-5 -6 -9 -12 -17 -19
l-6 -4l-6 -4c-1 -1 -4 -6 -9 -6c1 13 1 22 1 30c0 4 -2 27 0 30c2 5 6 6 12 14c5 5 6 11 11 16s19 24 23 32l14 33c5 11 5 11 11 20l17 37c3 6 8 19 10 25l13 25l8 26c2 9 7 23 8 26l73 217c4 6 1 5 4 12l7 13c4 8 8 18 17 22z" />
    <glyph glyph-name="l" unicode="l" horiz-adv-x="331" 
d="M381 156v-63c-50 -33 -134 -87 -198 -60c-51 21 -58 47 -72 102c-17 -8 -12 -6 -32 -27c-3 -2 -9 -7 -18 -14l-4 -4l-5 -2l-6 -3l-2 3c3 19 4 24 4 30c0 12 -4 19 2 30l16 14c44 45 36 35 45 81c-2 43 23 152 51 232l22 46c15 33 68 169 126 190c13 4 27 2 35 -3
c21 -13 18 -22 19 -37c9 -80 -44 -202 -78 -284l-16 -28c-1 -5 -11 -16 -12 -18c-2 -4 -5 -13 -7 -19l-40 -61l-13 -25l-20 -25c-3 -7 -1 -27 9 -53s24 -46 56 -52c56 -12 83 34 138 50zM288 551l-5 -5l-8 -10c-7 -7 -8 -8 -17 -21c-2 -2 -13 -20 -21 -39l-9 -33l-7 -18
l-7 -21c-1 0 -7 -10 -9 -15l-6 -22c-11 -36 -12 -33 -16 -58c9 0 21 14 25 26l8 15c63 117 47 84 77 201h-5z" />
    <glyph glyph-name="m" unicode="m" horiz-adv-x="657" 
d="M430 330c9 -7 10 -5 14 -16c1 -1 3 -8 4 -20s-1 -27 -3 -42c-2 -6 -1 -13 -3 -20c0 -6 -2 -13 -2 -20l-10 -41v-23c12 13 94 94 129 88c37 -7 53 -68 69 -92c9 -12 19 -21 31 -19c5 0 12 3 25 14c5 5 14 22 23 22c-4 -64 14 -74 -34 -104c-25 -15 -44 -18 -74 -1
c-44 26 -66 76 -92 79c-37 3 -54 -37 -98 -85l-28 -31c-19 -21 -23 -27 -58 -36l-14 18l16 70c0 3 3 9 5 14l9 36c7 30 6 34 11 67l-7 6c-6 0 -25 -5 -33 -19c-7 -12 -14 -8 -33 -28l-56 -62c-13 -14 -68 -84 -92 -84c-11 0 -19 4 -22 9c-6 10 19 82 22 92l7 27l7 35l-6 6
c-6 0 -20 -2 -25 -14l-12 -15c-19 -19 -28 -25 -29 -26l-27 -24c0 23 1 48 1 57l20 26l48 50c23 24 79 95 118 87c13 0 20 -5 20 -19c2 -6 0 -35 -5 -56l-5 -27c-2 -5 -9 -23 -1 -29c8 3 12 6 19 16l59 56c41 41 68 73 112 78z" />
    <glyph glyph-name="n" unicode="n" horiz-adv-x="481" 
d="M217 106c12 4 9 10 17 19c11 14 6 9 22 19c4 4 4 10 17 23c4 4 6 7 10 11c7 4 6 2 12 10c34 35 56 56 91 54c25 -1 34 -13 50 -44c8 -15 19 -65 40 -72c7 0 16 -1 25 9c8 10 14 17 26 13c2 -47 14 -48 -27 -83c-20 -19 -41 -33 -65 -26c-15 3 -26 14 -41 37
c-7 10 -9 10 -13 24c-15 15 -11 15 -20 22c-3 7 -12 23 -26 17c-14 -3 -71 -53 -80 -64c-2 -6 -8 -15 -12 -21c-5 -8 -8 -10 -18 -18c-9 -13 -3 -8 -15 -21c0 0 -20 -17 -22 -19c-16 -16 -13 -24 -36 -32l-19 -2c-6 0 -15 1 -22 6c-3 51 8 86 24 139l6 23c0 3 0 9 3 14
c4 9 0 7 0 16l5 10l-6 6c-4 0 -13 -2 -21 -10c-7 -6 -11 -14 -18 -22l-20 -20s-15 -17 -19 -24l-21 -18c2 21 2 28 2 35c-1 5 -1 30 2 35c8 19 24 36 54 72l11 12c32 34 70 92 111 90c9 -1 22 -7 32 -22c19 -30 -8 -86 -20 -128l-17 -52c-2 -6 -4 -12 -2 -18z" />
    <glyph glyph-name="o" unicode="o" horiz-adv-x="389" 
d="M287 330c0 -12 -17 -18 -9 -30c38 16 61 24 89 6s35 -42 36 -73c1 -57 -70 -159 -124 -201c-37 -29 -81 -49 -122 -36c-19 6 -47 28 -54 52c-4 14 0 73 2 87l-44 -37c-5 -3 -4 -2 -9 -7l-3 -5l-4 -1c0 7 2 6 0 14l-1 4v4l1 4v4v3v4s-1 4 -1 8c1 4 1 8 1 14l125 126
c4 3 11 12 29 26c17 16 13 16 27 27c26 23 34 13 61 7zM429 155l7 -2l4 -7c8 -38 15 -40 -29 -71c-3 -3 -12 -10 -18 -14c-3 -2 -15 -11 -21 -13c-7 -4 -18 -12 -20 -15c-7 -4 -11 -6 -21 -6l-5 13l13 17zM296 228c-12 0 -20 -3 -26 -7l-12 -10l-8 -13
c-11 -15 -6 -11 -22 -23c-12 -4 -14 -1 -20 -15c-2 -4 -13 -23 -14 -24c-9 -20 -15 -50 -7 -63c5 -9 15 -13 24 -14c21 0 72 38 91 62c14 13 11 17 13 25c2 6 3 10 11 24c4 14 2 24 -7 49c-5 8 -13 9 -23 9z" />
    <glyph glyph-name="p" unicode="p" horiz-adv-x="387" 
d="M246 442c19 -37 17 -44 4 -81l-107 -329c0 -4 -2 -11 -4 -17l-21 -96c-5 -12 -1 -13 -4 -22c0 -5 -6 -18 -2 -23c10 8 12 25 15 36c2 5 4 13 7 19c0 4 -1 14 1 19l41 119c7 21 54 159 94 166c12 3 27 -2 41 -19c15 -20 47 -84 75 -87c5 0 13 2 23 8c5 3 18 14 25 14l4 -3
v-5c0 -3 0 -7 -2 -11c0 -9 -3 -11 0 -22c0 -9 5 -11 -2 -20c-3 -4 -7 -4 -10 -7c-5 -3 -6 -4 -12 -8c-35 -19 -57 -27 -94 -3c-6 4 -14 11 -31 28c-2 2 -15 23 -31 23c-15 -22 -16 -19 -27 -42l-4 -16c-3 -11 -6 -14 -13 -24c-6 -14 -4 -12 -10 -27l-65 -191
c-3 -10 -1 -10 -6 -22l-15 -46c-5 -12 -8 -10 -13 -27c-5 -9 -6 -18 -18 -23l-30 7c-10 31 -11 51 -10 83l40 273c2 5 1 7 1 14l2 4l1 4s-1 3 1 7c0 9 4 19 0 30l-22 -17c-2 -6 -15 -22 -23 -19c3 52 -6 51 28 90l34 46c0 2 12 18 14 21l50 86c11 17 6 9 13 26l27 51
c6 11 10 16 14 21c7 11 7 12 21 12z" />
    <glyph glyph-name="q" unicode="q" horiz-adv-x="325" 
d="M358 300l-30 -21c-3 -2 -19 -18 -24 -22c-7 -7 -16 -11 -27 -17c-13 -10 -44 -40 -53 -49c-27 -26 -31 -32 -46 -50c-9 -11 -15 -19 -18 -26c-2 -7 -7 -23 -1 -27c10 6 33 16 45 25l36 33c33 26 47 40 56 47c22 17 33 32 57 18c32 -18 21 -70 17 -95l-9 -51
c0 -2 -4 -18 -4 -33l-43 -212l-1 -7l-1 -3l-4 -4v-16c-5 -19 -22 -108 -54 -118c-10 -4 -20 -2 -24 2c-4 5 8 83 10 92l10 49c0 6 2 21 4 25l24 172c0 6 2 16 2 24l2 25c2 27 -1 21 -1 50h-8c-9 -10 -15 -16 -27 -26l-15 -12c-31 -27 -101 -91 -138 -82c-13 3 -25 15 -32 33
c-7 21 4 51 10 71l-25 -11c4 11 5 24 1 37c-1 19 -6 17 13 37c4 3 31 26 37 30c4 3 31 30 36 35l22 17c2 1 148 115 182 92c8 -8 21 -24 21 -32z" />
    <glyph glyph-name="r" unicode="r" horiz-adv-x="334" 
d="M272 68c52 34 99 73 109 84c5 -40 19 -51 -20 -85c-19 -16 -46 -37 -92 -64c-42 -26 -47 -35 -93 -16c-2 57 53 151 32 210c-3 10 -6 15 -10 19c-1 1 -10 10 -19 10c-24 -18 -32 -24 -38 -32l-25 -30c-2 -4 -18 -23 -23 -26l-48 -50c0 79 -2 53 54 136l12 17
c2 3 4 7 6 11l4 5l4 6v5l-4 6c0 3 -3 7 -1 12c3 12 7 9 17 18c29 24 44 36 71 28c35 -10 73 -63 82 -94c22 -79 -16 -91 -18 -170z" />
    <glyph glyph-name="s" unicode="s" horiz-adv-x="317" 
d="M265 66c15 11 31 22 53 45c7 4 17 17 23 25c4 3 19 24 26 17c-5 -37 12 -50 -13 -77c-3 -4 -24 -25 -35 -32l-4 -4l-5 -3c-5 -5 -4 -3 -10 -7c-13 -6 -18 -11 -21 -12l-52 -46c-8 -14 -18 -18 -30 -22c-13 -5 -17 -17 -35 -4v16c-14 39 -19 70 -20 78c-2 19 -4 29 2 39
c2 2 6 9 17 15c13 5 7 5 20 5l12 -18c16 49 16 78 17 129l-11 9c-10 0 -17 -13 -29 -22c-19 -14 -12 -8 -29 -26l-23 -22c-9 -5 -24 -23 -32 -31l-19 -19c-7 -7 -14 -13 -21 -13c0 6 1 31 -1 36c0 20 -5 14 14 35l105 107c26 27 68 85 101 81c16 -2 33 -9 40 -22
c17 -30 -6 -136 -33 -211l-5 -18c-2 -4 -8 -19 -2 -28z" />
    <glyph glyph-name="t" unicode="t" horiz-adv-x="302" 
d="M327 474l14 -11v-20c-1 -6 -1 -15 -1 -21c0 -19 0 -31 -10 -38c-4 -3 -29 -6 -33 -7l-33 -107c0 -15 -3 -17 -8 -30l-6 -25l-10 -49v-19c-3 -12 -10 -50 -11 -71l8 -6c8 2 23 14 31 20l23 19c6 6 20 21 26 24l31 25l6 -5c-4 -75 14 -44 -59 -111l-16 -12
c-8 -7 -79 -75 -92 -74l-21 13c-9 6 -12 1 -19 13c-13 19 4 129 8 148l6 39c2 11 4 18 5 20c3 7 9 14 5 21c-5 -3 -15 -17 -20 -25l-105 -104c-1 4 -2 14 -2 19v21c0 26 -7 14 17 40l47 53c33 42 35 44 82 127l20 38l-8 6c-18 -2 -76 -7 -143 10c-5 7 -4 9 -4 18
c0 2 1 10 2 21l2 20c6 13 0 11 13 20h72c22 1 97 -10 114 11c13 17 17 65 50 78c9 3 17 2 26 -6c10 -9 10 -23 5 -45c-2 -3 -7 -16 -7 -18c-3 -9 -5 -12 -5 -20z" />
    <glyph glyph-name="u" unicode="u" horiz-adv-x="453" 
d="M211 73c55 38 83 79 124 141l26 28c22 1 37 2 46 -11c2 -5 2 -70 10 -85c6 -10 15 -18 26 -19c5 0 11 2 28 14c7 6 12 9 14 11l7 5l3 1l4 -2c2 -25 3 -30 2 -57c-42 -33 -86 -60 -120 -49c-34 13 -44 49 -54 75c-15 -21 -89 -133 -148 -134c-15 0 -35 7 -46 24
c-14 18 -21 100 -22 118l-17 -12l-6 -5l-4 -7c-5 -3 -10 -6 -14 -10c-7 -6 -23 -23 -25 -14c1 57 -15 40 36 94l24 28c11 17 19 19 26 35c8 9 14 15 26 35c25 36 28 48 59 53c12 2 20 -1 24 -5c4 -5 5 -11 -2 -34c-26 -88 -46 -161 -27 -218z" />
    <glyph glyph-name="v" unicode="v" horiz-adv-x="337" 
d="M380 350c-2 -16 -1 -27 -4 -42c-3 -13 -4 -19 -5 -22c-3 -8 -4 -15 -10 -23c-4 -11 1 -10 -4 -22c-2 -6 -4 -12 -8 -21c-6 -9 -6 -16 -10 -22c-8 -7 -7 -15 -9 -23l-15 -34c-7 -13 -28 -55 -38 -70c-13 -25 -63 -111 -101 -111c-14 1 -32 11 -42 34c-5 10 -10 37 -8 65
l-8 8v18c0 13 -4 52 -4 66l-18 -15l-37 -39l-6 -7l-4 -2l-4 2c0 18 -5 46 5 63l75 128c5 13 4 13 23 28c13 5 18 13 32 13c9 -5 8 -21 10 -28v-16c-1 -5 -2 -12 -2 -19l5 -169c2 -5 4 -18 4 -23l14 -5c16 21 19 22 34 46l15 26c25 44 44 87 59 131l8 20c1 2 7 40 9 43
c3 6 10 14 21 21c8 6 14 7 23 1zM364 143l-19 -21l-18 -20c-6 -2 -8 -6 -9 -9l-4 -5l-5 -4l-13 -16l-18 -20c-5 -12 -4 -7 -4 -18c7 -3 25 8 31 12l27 17c8 6 16 13 22 17l19 9c7 5 9 4 14 13c-1 23 0 31 0 51l-5 7c-5 -2 -16 -11 -18 -13z" />
    <glyph glyph-name="w" unicode="w" horiz-adv-x="481" 
d="M511 382c11 0 16 -5 21 -15c0 -4 -3 -22 -2 -27c0 -26 0 -23 -7 -52c-8 -35 -20 -70 -36 -105l-27 -48c-17 -32 -72 -155 -121 -164c-15 -3 -21 -5 -35 11c-18 19 -18 121 -18 140l-13 -19c-2 -6 0 -5 -4 -10l-4 -5l-2 -7l-5 -15c-5 -8 -3 -7 -7 -13c-6 -6 -8 -7 -10 -12
v-13l-3 -6s-3 -3 -6 -8c-3 -7 -10 -18 -13 -27c-12 -24 -17 -42 -36 -48c-11 -3 -23 -1 -31 7c-7 7 -5 12 -6 19c0 9 -2 11 -5 22v5v7c-1 2 -4 7 -5 11l-6 40c0 14 1 14 -3 22l-6 36c-3 25 -3 35 -3 39l-20 -14c-6 -6 -11 -10 -16 -15l-16 -18c-7 -6 -14 -14 -21 -9
c0 25 -7 42 13 71l68 106c10 18 19 31 30 40c9 7 15 10 22 10c6 3 13 1 21 -3v-24c-3 -81 -4 -47 3 -127v-39c0 -7 3 -16 10 -23c10 3 14 17 19 25c4 13 6 14 18 29l34 75c5 9 8 16 14 32c4 9 9 21 13 32l27 30c13 7 21 7 34 3l6 -18l4 -6l-8 -29c0 -2 -2 -17 -3 -21l-6 -56
c-6 -56 -11 -64 2 -119c54 58 36 47 72 110l10 16l6 26c4 9 28 74 29 78c0 7 -1 8 2 18c2 9 4 19 4 21s2 15 4 19c7 11 10 7 18 15zM530 158c4 -34 3 -20 3 -56l-23 -16c-12 -9 -20 -16 -45 -33l-23 -14c-4 -3 -16 -7 -24 -4c-3 8 11 24 18 33c18 21 16 15 35 36
c9 12 13 22 27 32c3 4 10 10 16 16c7 7 8 13 16 6z" />
    <glyph glyph-name="x" unicode="x" horiz-adv-x="396" 
d="M260 112c28 -32 36 -38 67 -33c13 2 49 16 63 27c16 11 16 14 26 24c5 6 8 6 14 12l8 7l4 4l5 -1c-3 -24 -1 -25 0 -61c-38 -33 -138 -100 -182 -87c-27 8 -39 25 -68 57h-5c-30 -30 -46 -44 -89 -74l-23 9c0 9 1 11 13 22l32 29l14 15l18 18c11 11 8 7 17 19v10
c-7 16 -22 43 -30 58l-17 -14c-11 -11 -14 -17 -16 -19c-5 -6 -10 -11 -21 -22l-22 -21c-8 -8 -12 -11 -22 -11v20c-2 46 1 38 50 79c23 18 31 21 28 45l-2 4l-1 5c-3 4 -4 5 -5 10c-3 9 -5 12 -7 21c-2 13 -1 26 7 41c9 18 22 33 35 35c11 2 12 1 20 -9c6 -7 8 -25 10 -34
c2 -5 11 -31 15 -34h5l5 3c1 1 7 4 10 7l51 44c29 23 74 75 103 67c14 -5 28 -20 33 -43c13 -62 -50 -121 -104 -177l-24 -23c-16 -16 -15 -10 -15 -29zM295 299c-15 -15 -9 -11 -23 -17c-11 -7 -35 -31 -47 -41l-15 -13c0 -14 5 -27 7 -30c4 -9 8 -23 16 -27
c39 39 75 85 86 129c-9 10 -17 6 -24 -1z" />
    <glyph glyph-name="y" unicode="y" horiz-adv-x="452" 
d="M458 294c5 -12 3 -25 -1 -38l-13 -35c-2 -6 -6 -16 -9 -24l-19 -58c-2 -3 -4 -10 -7 -15l-7 -24c-2 -4 -12 -26 -3 -29c29 33 14 16 49 47c6 5 7 6 13 12c3 5 6 8 13 12c7 3 18 14 26 10c0 0 2 -34 2 -36c0 -18 1 -23 -19 -36l-38 -28c-39 -33 -87 -73 -127 -138l-23 -36
c-26 -43 -120 -192 -183 -189c-12 0 -21 -5 -27 12c-7 19 53 95 63 110l32 45c2 3 5 8 14 17c7 5 9 6 16 16l57 67c13 16 31 66 39 85l9 17s3 9 3 12c0 2 0 7 1 11c0 4 5 19 7 25c3 12 2 10 4 23c1 3 2 18 -2 23c-2 -1 -18 -14 -28 -19c-11 -9 -19 -10 -26 -27
c-24 -29 -25 -29 -55 -44c-18 -22 -30 -34 -49 -40c-26 -9 -28 -3 -53 5v25c0 6 -3 12 -3 18v27c0 9 -4 21 -7 32l-49 -39c-3 -3 -7 -8 -14 -8c0 10 1 9 4 20c0 4 1 4 1 9l-1 5l-2 5c0 23 -6 15 15 35l25 24c16 15 93 99 112 98c7 0 18 -4 26 -15c9 -16 -14 -78 -19 -96
c-1 -1 -4 -14 -7 -28c0 -6 -7 -19 0 -28h8c3 1 4 3 9 9l5 2l5 4c4 4 14 9 21 13c10 7 14 12 19 19c4 4 17 18 22 20l56 59c2 3 21 17 28 22c14 13 14 18 28 29c10 9 17 12 28 13c4 0 28 -4 31 -7z" />
    <glyph glyph-name="z" unicode="z" horiz-adv-x="343" 
d="M250 21c5 0 28 20 28 20l112 114c7 -73 13 -43 -71 -128l-15 -18c-13 -13 -12 -10 -21 -23c-8 -3 -10 -15 -10 -22c40 -73 39 -130 -4 -192c-28 -42 -124 -114 -176 -108c-17 2 -36 15 -43 35c-16 53 60 151 99 202l38 47c-32 93 -11 86 34 178c8 17 10 32 -5 61
c-5 8 -10 27 -27 28c-14 1 -82 -76 -86 -79l-28 -29c-10 -10 -24 -29 -31 -18c4 27 2 31 1 54l80 91l22 29c11 15 10 9 24 28c20 24 32 28 55 27c29 -3 45 -21 61 -54c20 -40 23 -89 -9 -139c-11 -19 -31 -44 -35 -53c-2 -5 -4 -14 -3 -26c0 -3 2 -20 10 -25zM120 -218
c-14 -25 -20 -41 -16 -48c8 -11 12 -10 18 -8c21 -1 57 31 76 55c34 46 29 76 13 119c-31 -27 -74 -83 -91 -118z" />
    <glyph glyph-name="braceleft" unicode="{" horiz-adv-x="501" 
d="M511 754v-28c-123 -21 -154 -48 -154 -175v-77c-2 -52 11 -106 -52 -154c-42 -32 -111 -45 -157 -53c143 -19 202 -45 209 -204v-76c0 -50 -6 -102 57 -144c32 -23 58 -29 97 -33v-28c-63 0 -128 7 -183 63c-49 50 -39 90 -41 150v78c0 49 7 101 -54 139
c-30 20 -65 24 -113 32v46c114 17 167 41 167 171v78c2 66 -8 113 58 168c41 32 111 46 166 47z" />
    <glyph glyph-name="bar" unicode="|" horiz-adv-x="161" 
d="M103 -125h-42v949h42v-949z" />
    <glyph glyph-name="braceright" unicode="}" horiz-adv-x="502" 
d="M56 751c49 0 135 -13 179 -61c50 -52 44 -96 44 -151v-70c0 -44 -7 -106 51 -145c36 -24 78 -30 116 -36v-44c-128 -21 -161 -39 -167 -176v-76c0 -72 4 -131 -84 -182c-45 -26 -78 -30 -139 -31v28c125 15 155 71 155 178v76c1 64 -14 106 55 159c38 28 95 37 151 46
c-134 24 -206 44 -206 203v70c-4 68 11 115 -72 160c-28 17 -59 23 -83 27v25z" />
    <glyph glyph-name="asciitilde" unicode="~" horiz-adv-x="359" 
d="M223 537l14 -21v-27l6 -8c7 0 7 1 20 6l20 5l18 5c16 8 13 4 27 15c8 5 21 8 30 4c1 -4 0 -26 -5 -29c-8 -13 -13 -15 -28 -22c-12 -7 -122 -38 -135 -31c-10 6 -12 17 -16 45c-5 8 -13 7 -19 9c-9 -1 -12 -4 -20 -8l-14 -8l-4 -1l-5 -2c-1 -1 -7 -3 -10 -4
c-7 -3 -18 -10 -20 -11c-6 -3 -10 -4 -19 -7c-4 -3 -11 -8 -18 -4c1 25 -6 31 23 49c44 24 109 50 155 45z" />
    <glyph glyph-name="Adieresis" unicode="&#xc4;" horiz-adv-x="498" 
d="M389 727c7 -2 26 -3 32 -14l-20 -76c1 -2 3 -3 7 -6c6 -6 3 -4 10 -9c10 -6 10 -4 20 -9c17 -8 28 -13 35 -26c10 -20 9 -31 14 -81l6 -73c1 -1 0 -12 0 -15v-15c0 -9 -1 -17 -1 -26v-25c0 -7 -3 -20 -1 -26c0 -13 0 -9 15 -20c5 -11 0 -19 -3 -31l-15 -12
c0 -6 2 -11 2 -16l-11 -116l-5 -23c0 -8 1 -15 1 -23l-6 -23c-2 -5 -4 -17 -4 -22c0 -7 -2 -14 -5 -23c-2 -6 -4 -21 -4 -23c-1 -2 -4 -11 -18 -22c-3 -2 -13 -13 -24 -13c-6 5 -7 20 -7 27v37c-2 4 1 11 1 16v134c0 8 3 17 3 25v16c0 1 -2 25 -3 28c-10 0 -10 2 -21 -5
l-16 -5c-6 -2 -44 -6 -47 -7l-22 -7c-8 -4 -17 -4 -25 -7c-44 -15 -50 -28 -94 -36c-9 -36 -11 -38 -27 -73l-9 -34c-7 -16 3 -9 -7 -24l-4 -16c-3 -3 -7 -8 -7 -15v-22l-5 -6l-1 -4l-2 -4l-9 -27c-4 -5 -5 -8 -10 -14c-6 -5 -6 -4 -14 -7c-11 -3 -17 -4 -30 1
c-3 24 -3 35 2 53l36 133l7 22v14l-24 5c3 38 -3 82 37 102c4 1 21 5 25 9c7 7 7 18 9 26c3 10 22 47 23 50l6 28c3 6 4 12 7 18l34 107c13 38 27 71 48 97l-10 11c2 12 -5 24 12 37c1 1 34 10 37 12l4 4l2 6c6 7 5 7 7 13c5 13 3 7 19 17c13 10 9 8 25 14c15 10 10 8 25 19
zM398 881c6 -8 4 -8 4 -19v-22c-3 -10 -2 -10 -14 -15c-5 -2 -5 -3 -9 -8l-5 -5l-6 -4l-16 3c-5 0 -10 -2 -15 -2c-11 -3 -19 1 -30 16c-7 10 -8 20 -5 28c4 11 24 35 44 40c11 3 22 -2 52 -12zM517 894c18 -13 31 -23 28 -42c-5 -18 0 -17 -16 -27l-4 -2l-4 -2l-1 -4l-3 -4
l-15 -8c-19 -9 -21 -8 -40 4c-18 0 -21 24 -21 31c1 21 21 33 36 41c7 4 14 10 21 12c6 3 11 0 19 1zM314 498c0 -9 -2 -14 -7 -22l-3 -6l-1 -5c-2 -4 -4 -7 -7 -11c-3 -7 -6 -16 -9 -21c-9 -10 -10 -12 -14 -21l-28 -82c-3 -8 -2 -6 -10 -16c-2 -4 -6 -14 -8 -17v-18v-2h4
l4 1h4l52 5c9 0 17 3 26 3h30c4 0 60 15 62 15v29c0 10 -2 21 -2 29v37c-2 6 -2 15 -2 20v29c0 6 1 13 1 17c-24 40 -21 42 -64 66c-9 -6 -23 -22 -28 -30z" />
    <glyph glyph-name="Aring" unicode="&#xc5;" horiz-adv-x="498" 
d="M389 727c7 -2 26 -3 32 -14l-20 -76c1 -2 3 -3 7 -6c6 -6 3 -4 10 -9c10 -6 10 -4 20 -9c17 -8 28 -13 35 -26c10 -20 9 -31 14 -81l6 -73c1 -1 0 -12 0 -15v-15c0 -9 -1 -17 -1 -26v-25c0 -7 -3 -20 -1 -26c0 -13 0 -9 15 -20c5 -11 0 -19 -3 -31l-15 -12
c0 -6 2 -11 2 -16l-11 -116l-5 -23c0 -8 1 -15 1 -23l-6 -23c-2 -5 -4 -17 -4 -22c0 -7 -2 -14 -5 -23c-2 -6 -4 -21 -4 -23c-1 -2 -4 -11 -18 -22c-3 -2 -13 -13 -24 -13c-6 5 -7 20 -7 27v37c-2 4 1 11 1 16v134c0 8 3 17 3 25v16c0 1 -2 25 -3 28c-10 0 -10 2 -21 -5
l-16 -5c-6 -2 -44 -6 -47 -7l-22 -7c-8 -4 -17 -4 -25 -7c-44 -15 -50 -28 -94 -36c-9 -36 -11 -38 -27 -73l-9 -34c-7 -16 3 -9 -7 -24l-4 -16c-3 -3 -7 -8 -7 -15v-22l-5 -6l-1 -4l-2 -4l-9 -27c-4 -5 -5 -8 -10 -14c-6 -5 -6 -4 -14 -7c-11 -3 -17 -4 -30 1
c-3 24 -3 35 2 53l36 133l7 22v14l-24 5c3 38 -3 82 37 102c4 1 21 5 25 9c7 7 7 18 9 26c3 10 22 47 23 50l6 28c3 6 4 12 7 18l34 107c13 38 27 71 48 97l-10 11c2 12 -5 24 12 37c1 1 34 10 37 12l4 4l2 6c6 7 5 7 7 13c5 13 3 7 19 17c13 10 9 8 25 14c15 10 10 8 25 19
zM498 911c7 -43 0 -35 -4 -73c-32 -33 -66 -45 -101 -36c-18 4 -43 17 -49 33c-5 14 7 43 20 62c23 30 48 38 82 36c19 -1 26 -4 52 -22zM314 498c0 -9 -2 -14 -7 -22l-3 -6l-1 -5c-2 -4 -4 -7 -7 -11c-3 -7 -6 -16 -9 -21c-9 -10 -10 -12 -14 -21l-28 -82
c-3 -8 -2 -6 -10 -16c-2 -4 -6 -14 -8 -17v-18v-2h4l4 1h4l52 5c9 0 17 3 26 3h30c4 0 60 15 62 15v29c0 10 -2 21 -2 29v37c-2 6 -2 15 -2 20v29c0 6 1 13 1 17c-24 40 -21 42 -64 66c-9 -6 -23 -22 -28 -30zM414 837c21 0 37 7 46 23c7 11 4 22 1 27c-6 9 -20 11 -33 9
c-35 -5 -37 -23 -46 -48c12 -12 25 -11 32 -11z" />
    <glyph glyph-name="Ccedilla" unicode="&#xc7;" horiz-adv-x="510" 
d="M246 -42c-26 5 -52 13 -75 28c-86 57 -94 151 -94 219c-6 36 -1 97 20 135c0 94 97 212 186 279c59 46 140 69 193 49c30 -12 47 -20 54 -55c16 -85 0 -237 -48 -323c-7 -13 -14 -19 -36 -25l-20 -5c-5 0 -16 5 -20 5c0 36 -4 44 2 79l5 27c8 41 12 63 19 85
c5 15 4 25 15 42c13 8 9 7 18 20c0 0 6 8 6 21c0 18 -2 23 -20 35c-42 28 -66 21 -113 8c-73 -24 -124 -128 -144 -189c-16 -50 -40 -180 -19 -229c0 -8 14 -23 19 -38c0 0 9 -15 9 -19c0 -7 6 -14 6 -21c9 -13 45 -47 74 -58c56 -22 110 8 168 34l21 8l10 14l8 -3
c-4 -39 5 -28 -34 -60c-32 -29 -44 -33 -66 -44c-27 -13 -59 -22 -90 -22l-4 -10s-3 -5 -3 -10l-2 -5l-2 -5c0 -11 -1 -10 -6 -22l-15 -36c0 -5 -8 -19 -12 -25l-23 -54c0 -7 -3 -6 -6 -11l-1 -4l-4 -7l-9 -28l-7 -9c-4 0 -30 6 -35 12c0 27 -3 16 8 43l56 152
c4 8 7 15 11 22z" />
    <glyph glyph-name="Eacute" unicode="&#xc9;" horiz-adv-x="456" 
d="M492 591c-8 -11 -8 -4 -20 -9c-4 -1 -9 -1 -23 4c-15 4 -32 11 -45 12c-26 1 -68 -2 -92 -10c-14 -1 -19 3 -35 -7c-18 -13 -12 -18 -20 -34c-7 -20 -21 -13 -12 -35c-1 -9 -6 -25 -9 -34l-33 -125c-2 -6 -2 -12 -2 -19l13 -6c59 58 151 69 212 53l12 1l17 -25v-40
l-18 -22c-149 11 -232 -23 -233 -23c-26 -16 -20 -30 -24 -48c-4 -11 -7 -13 -7 -26c0 -8 -2 -17 -2 -25l-5 -16c-3 -7 -1 -15 1 -19l-11 -43c2 -4 0 -33 2 -38c4 0 13 -1 19 -1h18c82 7 159 13 241 56l10 6c8 -3 12 -6 12 -19c0 -6 -1 -15 -7 -24c-1 -3 -5 -11 -19 -21
c-13 -8 -10 -6 -23 -18c-8 -6 -13 -7 -22 -12c-4 -2 -16 -10 -25 -9c-53 -29 -183 -70 -248 -38v20c-13 13 -8 3 -21 7c-8 5 -6 11 -7 20c-1 8 1 25 1 47v45c0 8 4 5 6 13c-1 2 -4 9 -4 13l22 177c2 6 2 5 2 11l2 5l3 6l7 63c6 7 4 14 4 25l7 37c14 65 8 63 55 125
c17 23 102 86 122 93c38 14 156 17 175 0c18 -16 4 -74 4 -93zM503 918h19c5 -3 11 -15 11 -21c4 -11 3 -15 3 -26c0 0 -18 -22 -19 -24c-13 -10 -13 -5 -25 -11c-2 -1 -8 -4 -11 -6c-9 -4 -5 -2 -13 -7l-26 -10l-32 -14c-2 -1 -20 -6 -21 -7l-44 -19c-10 -5 -19 -10 -29 0
c2 7 -1 16 5 24c5 7 20 13 26 16l67 36c8 5 29 23 46 33c24 15 28 18 43 36z" />
    <glyph glyph-name="Ntilde" unicode="&#xd1;" horiz-adv-x="564" 
d="M606 707c7 -7 9 -13 6 -23v-25l-53 -532c-4 -24 -17 -109 -52 -128c-9 -6 -50 -23 -62 -18c-28 11 -94 167 -100 185l-14 32c-4 6 -11 21 -13 27l-22 52c-7 12 -10 17 -15 29l-21 48l-3 4l-1 4l-4 2l-4 -1c-3 -8 -3 -11 -3 -19l-2 -5l-1 -5c-3 -5 -4 -6 -6 -11
c-5 -34 -12 -52 -17 -67l-58 -217c-6 -39 -15 -56 -30 -96c-8 -2 -10 -1 -18 -7c-5 -4 -10 -6 -18 0c-1 17 -4 13 -2 29c1 5 6 27 6 31v18c0 4 9 27 10 31l71 488c0 17 -6 69 17 88c17 10 14 -2 33 6c23 1 14 1 36 -14c6 2 6 4 11 11c5 6 6 6 10 15c18 17 8 13 26 20
c17 -11 24 -4 20 -28c0 -4 -6 -17 -9 -22c0 -2 -2 -8 -3 -11c-2 -3 -4 -7 -4 -11c-2 -4 -2 -6 -2 -12c-2 -5 0 -4 -2 -11l-3 -5l-2 -7c-1 -4 -2 -6 -3 -11c-5 -28 10 -60 21 -90l51 -147c2 -5 6 -13 9 -19c4 -6 8 -16 8 -21l51 -123c1 -2 7 -13 13 -24c3 -6 12 -20 18 -24
c6 4 7 9 7 15l5 18l15 83c14 68 9 39 16 109l8 127c0 6 0 5 -2 11l3 10c0 7 -1 14 -1 21v36c0 21 4 23 5 52l9 16c1 4 1 9 1 14c1 3 2 12 4 17l10 33c4 12 6 22 18 30c9 9 24 22 32 22zM509 882l15 -20v-28l6 -8c7 0 7 1 20 6l20 5l18 5c15 9 12 5 27 16c8 5 21 7 30 4
c1 -4 0 -27 -5 -30c-8 -13 -13 -15 -28 -22c-13 -7 -122 -37 -135 -31c-10 6 -12 17 -16 45c-5 8 -13 7 -19 9c-9 -1 -12 -4 -21 -8l-13 -8l-4 -1l-5 -2c-1 -1 -7 -3 -10 -4c-7 -3 -18 -10 -20 -11c-6 -3 -10 -4 -19 -7c-4 -3 -11 -8 -19 -4c2 25 -6 31 24 49
c44 25 109 50 154 45z" />
    <glyph glyph-name="Odieresis" unicode="&#xd6;" horiz-adv-x="560" 
d="M103 285l-14 -26h-14l-5 4c-5 12 4 23 4 36c0 11 0 23 9 35l11 21c31 54 25 46 48 99l25 71c3 10 5 13 11 31l8 23c7 17 14 26 25 45c4 13 5 11 16 22c2 1 6 3 10 7c3 5 7 8 12 10l18 -15c-2 -23 -3 -28 -8 -39c-2 -4 -8 -13 -10 -18c-2 -6 -1 -5 -1 -10
c-2 -4 -3 -5 2 -11c19 20 28 28 64 53c33 24 32 29 66 32c14 14 10 13 23 13c3 -1 6 -3 11 -6c4 0 8 -2 13 -2c2 0 7 1 11 -1c5 -3 5 -5 12 -5l5 -1l6 -2l13 -10c81 -60 116 -160 111 -241c-9 -125 -54 -203 -161 -315c-61 -64 -154 -121 -227 -105c-41 8 -64 28 -81 70
c-13 36 -15 86 -15 120c0 8 -3 20 -3 30c2 5 2 10 4 15c0 4 0 11 1 14c0 7 1 7 4 14c5 9 1 8 1 16c0 5 2 10 2 15v8l-3 3h-4zM428 816c6 -8 4 -8 4 -20v-22c-3 -9 -2 -9 -14 -14c-5 -2 -5 -3 -9 -8l-4 -5l-6 -4l-16 3c-5 0 -10 -2 -15 -2c-11 -3 -20 1 -31 16
c-7 10 -8 19 -5 27c4 11 25 36 45 41c11 3 22 -2 51 -12zM548 829c18 -13 31 -23 28 -43c-5 -17 0 -16 -16 -26l-4 -2l-4 -2l-1 -4l-3 -4l-15 -8c-20 -9 -22 -8 -40 4c-17 0 -21 24 -21 30c1 21 21 34 35 42c7 4 14 10 21 12c7 3 12 0 20 1zM399 548c-46 15 -95 -3 -128 -30
c-84 -67 -84 -234 -87 -304c-1 -37 8 -110 52 -144c20 -16 58 -6 72 -2c88 32 127 115 178 211c2 22 11 43 14 78c0 11 -5 33 -5 76c-22 41 -46 100 -96 115z" />
    <glyph glyph-name="Udieresis" unicode="&#xdc;" horiz-adv-x="506" 
d="M544 709c6 -5 7 -8 7 -16c0 -7 1 -9 4 -16c1 -7 2 -14 1 -33v-28c-9 -84 -8 -78 -19 -126l-10 -39l-6 -18l-7 -35c-3 -10 -9 -19 -12 -28l-4 -34c-3 -8 -5 -19 -5 -27l-18 -86c-3 -10 -2 -23 -5 -35l-14 -82c-3 -28 -6 -55 15 -82v-7c-20 -29 -43 -64 -69 -66
c-7 -1 -16 1 -22 8c-17 20 -8 86 1 145v14c0 6 3 14 0 17l-17 -15l-10 -21c-1 -3 -5 -9 -6 -10c-3 -3 -8 -7 -11 -12c0 -6 -3 -12 -11 -20c-8 -11 -8 -10 -20 -21c-22 -23 -44 -43 -77 -48c-2 0 -11 2 -17 6l-4 -2l-5 -2h-9c-11 1 -21 5 -36 22c-34 37 -56 130 -53 177
c-10 11 -7 10 -7 22v18c-2 6 1 11 1 16v27c0 6 -3 12 -3 18v113c0 6 -3 17 -3 26v28v18c0 15 6 20 6 34v27c0 7 3 15 3 23v23c1 25 5 38 6 41c1 4 6 17 10 22c5 5 14 13 21 13c48 -74 64 -49 57 -113l-8 -62l-3 -21v-15c0 -8 -3 -20 -3 -30c-4 -9 -7 -10 -7 -28v-34
c1 -48 -6 -212 61 -261c12 -9 26 -12 45 -4c15 7 23 16 36 37c2 9 7 14 13 22c1 3 5 8 7 12c6 6 8 10 9 12c18 31 20 60 31 91l22 57c0 6 2 18 5 27l18 63l3 20c2 4 4 17 4 21l20 96c12 44 11 27 26 71l13 43c7 20 -1 16 19 31c15 5 24 16 37 16zM435 862c6 -8 4 -8 4 -20
v-22c-3 -10 -2 -10 -14 -15c-5 -2 -5 -3 -9 -8l-5 -5l-5 -4l-16 3c-5 0 -10 -2 -15 -2c-11 -3 -20 1 -31 16c-7 10 -8 20 -5 28c4 11 25 35 45 40c11 3 22 -2 51 -11zM555 874c18 -12 31 -22 28 -42c-5 -18 0 -17 -16 -27l-4 -2l-4 -2l-1 -4l-3 -4l-15 -8
c-20 -9 -22 -8 -40 4c-18 0 -21 24 -21 31c1 21 21 34 35 42c7 3 14 9 21 11c7 3 12 0 20 1z" />
    <glyph glyph-name="aacute" unicode="&#xe1;" horiz-adv-x="400" 
d="M379 366c0 -9 -1 -10 -4 -18c-9 -9 -10 -9 -16 -18l-149 -142c-4 -5 -15 -17 -17 -18c-4 -4 -13 -14 -18 -22c-10 -8 -12 -10 -15 -19l-8 -11l-3 -5l3 -5c18 0 13 7 32 19l63 55c48 39 51 58 103 61c9 -5 9 -15 9 -24c1 -2 5 -12 5 -27c0 -16 -8 -38 6 -55
c8 -10 20 -18 34 -15c3 1 8 3 22 13c6 5 18 19 22 14c0 -8 1 -29 0 -42c0 -6 5 -13 -4 -22c-2 -3 -18 -15 -22 -18c-32 -25 -58 -33 -87 -25c-18 5 -38 22 -47 48c-4 14 -4 30 -5 44l-8 4l-39 -36c-39 -37 -117 -110 -155 -102l-20 10c-13 9 -8 8 -12 21c-5 18 -2 32 6 54
l-10 6c0 21 -9 52 16 76l19 15c6 6 11 12 16 18l18 15c13 20 15 19 32 32c12 9 21 22 33 31c19 14 19 11 38 30l37 29c15 13 54 39 64 44c7 3 21 7 32 5c15 0 23 -4 29 -20zM389 576h19c4 -3 10 -15 10 -21c4 -11 3 -15 3 -26c0 0 -17 -23 -18 -25c-13 -9 -13 -4 -26 -10
c-2 -1 -8 -4 -11 -6c-9 -4 -5 -2 -13 -7l-26 -10l-31 -14c-3 -1 -21 -6 -22 -7l-44 -20c-10 -5 -19 -10 -29 1c2 7 -1 16 6 25c5 6 20 12 25 15l68 35c8 5 28 24 45 35c24 14 28 17 44 35z" />
    <glyph glyph-name="agrave" unicode="&#xe0;" horiz-adv-x="400" 
d="M379 366c0 -9 -1 -10 -4 -18c-9 -9 -10 -9 -16 -18l-149 -142c-4 -5 -15 -17 -17 -18c-4 -4 -13 -14 -18 -22c-10 -8 -12 -10 -15 -19l-8 -11l-3 -5l3 -5c18 0 13 7 32 19l63 55c48 39 51 58 103 61c9 -5 9 -15 9 -24c1 -2 5 -12 5 -27c0 -16 -8 -38 6 -55
c8 -10 20 -18 34 -15c3 1 8 3 22 13c6 5 18 19 22 14c0 -8 1 -29 0 -42c0 -6 5 -13 -4 -22c-2 -3 -18 -15 -22 -18c-32 -25 -58 -33 -87 -25c-18 5 -38 22 -47 48c-4 14 -4 30 -5 44l-8 4l-39 -36c-39 -37 -117 -110 -155 -102l-20 10c-13 9 -8 8 -12 21c-5 18 -2 32 6 54
l-10 6c0 21 -9 52 16 76l19 15c6 6 11 12 16 18l18 15c13 20 15 19 32 32c12 9 21 22 33 31c19 14 19 11 38 30l37 29c15 13 54 39 64 44c7 3 21 7 32 5c15 0 23 -4 29 -20zM244 579c61 -87 95 -93 179 -130v-10l-21 -14l-63 22c-14 4 -17 6 -25 9l-19 11
c-8 3 -17 10 -27 15c-5 4 -22 13 -28 14c-22 11 -23 15 -41 43c2 14 -3 20 12 32c11 8 22 7 33 8z" />
    <glyph glyph-name="acircumflex" unicode="&#xe2;" horiz-adv-x="400" 
d="M379 366c0 -9 -1 -10 -4 -18c-9 -9 -10 -9 -16 -18l-149 -142c-4 -5 -15 -17 -17 -18c-4 -4 -13 -14 -18 -22c-10 -8 -12 -10 -15 -19l-8 -11l-3 -5l3 -5c18 0 13 7 32 19l63 55c48 39 51 58 103 61c9 -5 9 -15 9 -24c1 -2 5 -12 5 -27c0 -16 -8 -38 6 -55
c8 -10 20 -18 34 -15c3 1 8 3 22 13c6 5 18 19 22 14c0 -8 1 -29 0 -42c0 -6 5 -13 -4 -22c-2 -3 -18 -15 -22 -18c-32 -25 -58 -33 -87 -25c-18 5 -38 22 -47 48c-4 14 -4 30 -5 44l-8 4l-39 -36c-39 -37 -117 -110 -155 -102l-20 10c-13 9 -8 8 -12 21c-5 18 -2 32 6 54
l-10 6c0 21 -9 52 16 76l19 15c6 6 11 12 16 18l18 15c13 20 15 19 32 32c12 9 21 22 33 31c19 14 19 11 38 30l37 29c15 13 54 39 64 44c7 3 21 7 32 5c15 0 23 -4 29 -20zM435 468c0 -7 1 -14 1 -21c0 -13 3 -8 -1 -22l-38 16c-7 4 -7 3 -16 6c-4 2 -12 6 -17 8l-24 10
c-12 7 -25 16 -34 22h-10c-19 -19 -17 -13 -36 -27l-35 -18l-22 -14c-15 0 -19 9 -19 26c10 14 106 90 126 91c8 0 53 -30 63 -35c36 -17 28 -10 62 -42z" />
    <glyph glyph-name="adieresis" unicode="&#xe4;" horiz-adv-x="400" 
d="M379 366c0 -9 -1 -10 -4 -18c-9 -9 -10 -9 -16 -18l-149 -142c-4 -5 -15 -17 -17 -18c-4 -4 -13 -14 -18 -22c-10 -8 -12 -10 -15 -19l-8 -11l-3 -5l3 -5c18 0 13 7 32 19l63 55c48 39 51 58 103 61c9 -5 9 -15 9 -24c1 -2 5 -12 5 -27c0 -16 -8 -38 6 -55
c8 -10 20 -18 34 -15c3 1 8 3 22 13c6 5 18 19 22 14c0 -8 1 -29 0 -42c0 -6 5 -13 -4 -22c-2 -3 -18 -15 -22 -18c-32 -25 -58 -33 -87 -25c-18 5 -38 22 -47 48c-4 14 -4 30 -5 44l-8 4l-39 -36c-39 -37 -117 -110 -155 -102l-20 10c-13 9 -8 8 -12 21c-5 18 -2 32 6 54
l-10 6c0 21 -9 52 16 76l19 15c6 6 11 12 16 18l18 15c13 20 15 19 32 32c12 9 21 22 33 31c19 14 19 11 38 30l37 29c15 13 54 39 64 44c7 3 21 7 32 5c15 0 23 -4 29 -20zM286 506c5 -7 3 -7 3 -19v-22c-3 -10 -2 -10 -14 -15c-5 -2 -5 -3 -9 -8l-5 -5l-6 -4l-16 3
c-5 0 -10 -2 -14 -2c-11 -3 -20 1 -31 16c-7 10 -8 20 -5 28c4 11 25 35 44 40c12 3 22 -2 53 -12zM405 519c17 -13 30 -22 27 -42c-5 -18 0 -17 -16 -27l-4 -2l-3 -2l-1 -4l-3 -4l-15 -8c-20 -9 -22 -8 -41 4c-18 0 -21 24 -21 31c1 21 21 34 36 41c7 4 14 10 21 12
c7 3 12 0 20 1z" />
    <glyph glyph-name="atilde" unicode="&#xe3;" horiz-adv-x="400" 
d="M379 366c0 -9 -1 -10 -4 -18c-9 -9 -10 -9 -16 -18l-149 -142c-4 -5 -15 -17 -17 -18c-4 -4 -13 -14 -18 -22c-10 -8 -12 -10 -15 -19l-8 -11l-3 -5l3 -5c18 0 13 7 32 19l63 55c48 39 51 58 103 61c9 -5 9 -15 9 -24c1 -2 5 -12 5 -27c0 -16 -8 -38 6 -55
c8 -10 20 -18 34 -15c3 1 8 3 22 13c6 5 18 19 22 14c0 -8 1 -29 0 -42c0 -6 5 -13 -4 -22c-2 -3 -18 -15 -22 -18c-32 -25 -58 -33 -87 -25c-18 5 -38 22 -47 48c-4 14 -4 30 -5 44l-8 4l-39 -36c-39 -37 -117 -110 -155 -102l-20 10c-13 9 -8 8 -12 21c-5 18 -2 32 6 54
l-10 6c0 21 -9 52 16 76l19 15c6 6 11 12 16 18l18 15c13 20 15 19 32 32c12 9 21 22 33 31c19 14 19 11 38 30l37 29c15 13 54 39 64 44c7 3 21 7 32 5c15 0 23 -4 29 -20zM331 530l15 -21v-27l6 -8c7 0 7 1 20 6l20 5l17 5c16 9 13 5 28 15c8 5 21 8 30 4
c1 -4 0 -26 -5 -29c-8 -13 -13 -15 -28 -22c-13 -7 -122 -38 -135 -31c-10 6 -12 17 -16 45c-5 8 -13 7 -19 9c-9 -1 -12 -4 -21 -8l-14 -8l-3 -1l-5 -2c-1 -1 -7 -3 -10 -4c-7 -3 -18 -10 -20 -11c-6 -3 -10 -4 -19 -7c-4 -3 -10 -8 -19 -4c1 25 -6 31 24 49
c44 24 109 50 154 45z" />
    <glyph glyph-name="aring" unicode="&#xe5;" horiz-adv-x="400" 
d="M379 366c0 -9 -1 -10 -4 -18c-9 -9 -10 -9 -16 -18l-149 -142c-4 -5 -15 -17 -17 -18c-4 -4 -13 -14 -18 -22c-10 -8 -12 -10 -15 -19l-8 -11l-3 -5l3 -5c18 0 13 7 32 19l63 55c48 39 51 58 103 61c9 -5 9 -15 9 -24c1 -2 5 -12 5 -27c0 -16 -8 -38 6 -55
c8 -10 20 -18 34 -15c3 1 8 3 22 13c6 5 18 19 22 14c0 -8 1 -29 0 -42c0 -6 5 -13 -4 -22c-2 -3 -18 -15 -22 -18c-32 -25 -58 -33 -87 -25c-18 5 -38 22 -47 48c-4 14 -4 30 -5 44l-8 4l-39 -36c-39 -37 -117 -110 -155 -102l-20 10c-13 9 -8 8 -12 21c-5 18 -2 32 6 54
l-10 6c0 21 -9 52 16 76l19 15c6 6 11 12 16 18l18 15c13 20 15 19 32 32c12 9 21 22 33 31c19 14 19 11 38 30l37 29c15 13 54 39 64 44c7 3 21 7 32 5c15 0 23 -4 29 -20zM385 536c8 -42 0 -35 -4 -73c-32 -33 -65 -45 -101 -36c-18 4 -43 16 -49 33c-4 14 6 43 21 62
c22 30 48 38 81 36c19 -1 26 -4 52 -22zM302 462c20 0 36 7 45 23c7 12 4 22 1 27c-6 9 -20 11 -32 9c-36 -5 -38 -22 -47 -48c12 -12 25 -11 33 -11z" />
    <glyph glyph-name="ccedilla" unicode="&#xe7;" horiz-adv-x="344" 
d="M155 -12c-6 0 -13 6 -19 6c-53 24 -61 62 -65 105l-26 -13v13v14v7v4l1 3l-1 7v7l63 55c69 58 163 147 238 153l8 -6c0 -46 15 -48 -36 -86l-54 -36c-43 -35 -94 -52 -98 -108c0 -19 3 -35 15 -45c11 -8 48 -11 68 -5c35 12 84 42 133 89l11 -9c-6 -62 9 -47 -59 -93
c-38 -25 -81 -51 -122 -61l-1 -3s-3 -5 -3 -10l-2 -5l-2 -5c0 -11 -1 -10 -6 -21l-15 -36c0 -6 -8 -20 -12 -26l-23 -53c0 -7 -3 -6 -7 -11l-1 -5l-4 -7l-8 -28l-7 -8c-4 0 -30 5 -35 11c0 27 -3 16 8 44l56 151c0 4 5 11 5 11z" />
    <glyph glyph-name="eacute" unicode="&#xe9;" horiz-adv-x="292" 
d="M134 141c3 -31 5 -45 36 -56c45 -16 129 38 171 66v-57l-42 -28c-73 -43 -130 -80 -191 -51c-41 20 -61 71 -63 107c-7 76 44 169 130 232c29 21 48 27 71 17c18 -8 29 -21 31 -46c6 -64 -67 -118 -133 -172zM332 562h19c5 -3 11 -15 11 -21c4 -11 3 -15 3 -26
c0 0 -18 -22 -19 -24c-13 -10 -13 -5 -26 -11c-2 -1 -7 -4 -11 -6c-8 -4 -4 -2 -12 -7l-26 -10l-32 -14c-3 -1 -20 -6 -21 -7l-44 -20c-11 -5 -20 -9 -30 1c2 7 -1 16 6 24c5 7 20 13 26 16l67 36c8 5 29 23 46 33c23 15 28 18 43 36zM157 251c-10 -10 -22 -27 -22 -37
c4 -8 15 -2 20 6c7 11 10 9 19 16c11 10 15 16 19 23c6 7 6 15 0 19c-10 0 -30 -18 -36 -27z" />
    <glyph glyph-name="egrave" unicode="&#xe8;" horiz-adv-x="292" 
d="M134 141c3 -31 5 -45 36 -56c45 -16 129 38 171 66v-57l-42 -28c-73 -43 -130 -80 -191 -51c-41 20 -61 71 -63 107c-7 76 44 169 130 232c29 21 48 27 71 17c18 -8 29 -21 31 -46c6 -64 -67 -118 -133 -172zM188 565c60 -87 95 -93 179 -130v-10l-22 -14l-62 21
c-14 5 -17 7 -26 9l-19 12c-8 2 -16 9 -26 15c-5 4 -22 13 -28 14c-23 12 -24 16 -42 43c2 14 -3 20 12 32c11 8 24 7 34 8zM157 251c-10 -10 -22 -27 -22 -37c4 -8 15 -2 20 6c7 11 10 9 19 16c11 10 15 16 19 23c6 7 6 15 0 19c-10 0 -30 -18 -36 -27z" />
    <glyph glyph-name="ecircumflex" unicode="&#xea;" horiz-adv-x="292" 
d="M134 141c3 -31 5 -45 36 -56c45 -16 129 38 171 66v-57l-42 -28c-73 -43 -130 -80 -191 -51c-41 20 -61 71 -63 107c-7 76 44 169 130 232c29 21 48 27 71 17c18 -8 29 -21 31 -46c6 -64 -67 -118 -133 -172zM379 454c0 -7 1 -14 1 -21c0 -13 3 -8 -1 -22l-39 16
c-7 4 -7 3 -16 6c-4 2 -11 6 -16 8l-24 10c-12 7 -26 16 -35 22h-10c-18 -19 -16 -13 -35 -27l-36 -18l-22 -14c-13 0 -18 9 -18 26c9 14 105 90 125 91c9 0 54 -30 64 -34c35 -18 27 -11 62 -43zM157 251c-10 -10 -22 -27 -22 -37c4 -8 15 -2 20 6c7 11 10 9 19 16
c11 10 15 16 19 23c6 7 6 15 0 19c-10 0 -30 -18 -36 -27z" />
    <glyph glyph-name="edieresis" unicode="&#xeb;" horiz-adv-x="292" 
d="M134 141c3 -31 5 -45 36 -56c45 -16 129 38 171 66v-57l-42 -28c-73 -43 -130 -80 -191 -51c-41 20 -61 71 -63 107c-7 76 44 169 130 232c29 21 48 27 71 17c18 -8 29 -21 31 -46c6 -64 -67 -118 -133 -172zM228 493c6 -8 4 -8 4 -20v-22c-3 -10 -2 -10 -13 -15
c-5 -2 -5 -3 -9 -8l-5 -5l-6 -4l-16 3c-5 0 -10 -2 -15 -2c-11 -3 -20 1 -31 16c-6 10 -7 20 -4 28c3 11 24 36 44 40c12 3 22 -2 51 -11zM348 505c18 -12 31 -22 28 -42c-5 -18 0 -17 -16 -27l-4 -1l-4 -3l-1 -4l-3 -4l-15 -7c-19 -9 -21 -8 -40 3c-18 0 -21 24 -21 31
c1 21 21 34 36 42c7 4 13 9 20 11c7 3 12 0 20 1zM157 251c-10 -10 -22 -27 -22 -37c4 -8 15 -2 20 6c7 11 10 9 19 16c11 10 15 16 19 23c6 7 6 15 0 19c-10 0 -30 -18 -36 -27z" />
    <glyph glyph-name="iacute" unicode="&#xed;" horiz-adv-x="294" 
d="M162 270c26 -1 48 -6 59 -27c3 -5 12 -104 28 -121c5 -6 13 -11 29 -9c9 2 19 7 32 17c9 9 22 22 33 22v-55c-49 -46 -92 -76 -129 -65c-8 3 -18 8 -35 29c-3 4 -8 10 -13 19c-4 5 -6 14 -6 20c-13 18 -14 21 -18 27c-6 9 -5 21 -20 20c-2 0 -39 -29 -41 -31
c-2 -3 -3 -6 -9 -9c-3 -2 -6 -2 -10 -7c-3 -3 -10 -14 -18 -11c0 10 2 50 4 63c18 11 21 11 29 24l25 29c3 4 15 17 23 24zM310 448h18c5 -3 11 -15 11 -21c4 -11 3 -15 3 -25c0 0 -18 -23 -19 -25c-12 -10 -12 -5 -25 -11c-2 -1 -8 -4 -11 -6c-9 -4 -5 -2 -13 -7l-26 -10
l-31 -14c-3 -1 -21 -6 -22 -7l-44 -19c-10 -5 -18 -10 -29 1c2 7 -1 15 6 24c5 6 19 12 25 15l68 36c7 5 28 24 45 33c24 15 28 18 44 36z" />
    <glyph glyph-name="igrave" unicode="&#xec;" horiz-adv-x="294" 
d="M162 270c26 -1 48 -6 59 -27c3 -5 12 -104 28 -121c5 -6 13 -11 29 -9c9 2 19 7 32 17c9 9 22 22 33 22v-55c-49 -46 -92 -76 -129 -65c-8 3 -18 8 -35 29c-3 4 -8 10 -13 19c-4 5 -6 14 -6 20c-13 18 -14 21 -18 27c-6 9 -5 21 -20 20c-2 0 -39 -29 -41 -31
c-2 -3 -3 -6 -9 -9c-3 -2 -6 -2 -10 -7c-3 -3 -10 -14 -18 -11c0 10 2 50 4 63c18 11 21 11 29 24l25 29c3 4 15 17 23 24zM165 451c61 -87 95 -93 179 -130v-9l-22 -14l-62 21c-14 4 -17 6 -26 9l-18 11c-8 3 -17 10 -27 15c-6 4 -22 13 -28 14c-23 12 -24 16 -41 43
c2 14 -3 20 13 32c9 8 21 7 32 8z" />
    <glyph glyph-name="icircumflex" unicode="&#xee;" horiz-adv-x="294" 
d="M162 270c26 -1 48 -6 59 -27c3 -5 12 -104 28 -121c5 -6 13 -11 29 -9c9 2 19 7 32 17c9 9 22 22 33 22v-55c-49 -46 -92 -76 -129 -65c-8 3 -18 8 -35 29c-3 4 -8 10 -13 19c-4 5 -6 14 -6 20c-13 18 -14 21 -18 27c-6 9 -5 21 -20 20c-2 0 -39 -29 -41 -31
c-2 -3 -3 -6 -9 -9c-3 -2 -6 -2 -10 -7c-3 -3 -10 -14 -18 -11c0 10 2 50 4 63c18 11 21 11 29 24l25 29c3 4 15 17 23 24zM356 340c0 -7 1 -14 1 -21c0 -12 3 -7 -1 -21l-38 16c-7 4 -7 3 -16 5c-4 2 -12 6 -17 8l-24 10c-12 7 -26 16 -34 22h-10c-19 -19 -17 -13 -36 -27
l-36 -17l-21 -14c-15 0 -19 9 -19 25c10 14 106 90 125 91c9 0 54 -29 64 -34c36 -18 27 -11 62 -43z" />
    <glyph glyph-name="idieresis" unicode="&#xef;" horiz-adv-x="294" 
d="M162 270c26 -1 48 -6 59 -27c3 -5 12 -104 28 -121c5 -6 13 -11 29 -9c9 2 19 7 32 17c9 9 22 22 33 22v-55c-49 -46 -92 -76 -129 -65c-8 3 -18 8 -35 29c-3 4 -8 10 -13 19c-4 5 -6 14 -6 20c-13 18 -14 21 -18 27c-6 9 -5 21 -20 20c-2 0 -39 -29 -41 -31
c-2 -3 -3 -6 -9 -9c-3 -2 -6 -2 -10 -7c-3 -3 -10 -14 -18 -11c0 10 2 50 4 63c18 11 21 11 29 24l25 29c3 4 15 17 23 24zM207 379c5 -8 3 -8 3 -20v-22c-3 -10 -2 -10 -14 -15c-5 -2 -5 -3 -9 -7l-5 -5l-6 -4l-16 3c-5 0 -10 -2 -15 -2c-10 -3 -19 1 -30 15
c-7 10 -8 20 -5 28c4 11 25 36 44 41c12 3 22 -2 53 -12zM325 392c18 -13 31 -23 28 -43c-5 -18 0 -17 -16 -27l-4 -2l-4 -2l-1 -3l-3 -4l-14 -8c-20 -9 -22 -8 -41 4c-18 0 -21 23 -21 30c1 21 21 34 36 42c7 4 14 10 21 12c7 3 12 0 19 1z" />
    <glyph glyph-name="ntilde" unicode="&#xf1;" horiz-adv-x="481" 
d="M217 106c12 4 9 10 17 19c11 14 6 9 22 19c4 4 4 10 17 23c4 4 6 7 10 11c7 4 6 2 12 10c34 35 56 56 91 54c25 -1 34 -13 50 -44c8 -15 19 -65 40 -72c7 0 16 -1 25 9c8 10 14 17 26 13c2 -47 14 -48 -27 -83c-20 -19 -41 -33 -65 -26c-15 3 -26 14 -41 37
c-7 10 -9 10 -13 24c-15 15 -11 15 -20 22c-3 7 -12 23 -26 17c-14 -3 -71 -53 -80 -64c-2 -6 -8 -15 -12 -21c-5 -8 -8 -10 -18 -18c-9 -13 -3 -8 -15 -21c0 0 -20 -17 -22 -19c-16 -16 -13 -24 -36 -32l-19 -2c-6 0 -15 1 -22 6c-3 51 8 86 24 139l6 23c0 3 0 9 3 14
c4 9 0 7 0 16l5 10l-6 6c-4 0 -13 -2 -21 -10c-7 -6 -11 -14 -18 -22l-20 -20s-15 -17 -19 -24l-21 -18c2 21 2 28 2 35c-1 5 -1 30 2 35c8 19 24 36 54 72l11 12c32 34 70 92 111 90c9 -1 22 -7 32 -22c19 -30 -8 -86 -20 -128l-17 -52c-2 -6 -4 -12 -2 -18zM359 463
l15 -21v-28l6 -7c7 0 7 1 20 5l19 5l18 5c16 9 13 5 28 16c8 5 21 8 30 4c1 -4 0 -27 -5 -30c-8 -12 -13 -14 -28 -21c-13 -7 -123 -38 -135 -31c-10 6 -12 17 -16 45c-5 7 -13 6 -19 8c-9 -1 -12 -4 -21 -7l-14 -8l-4 -1l-5 -2c-1 -1 -7 -3 -10 -4c-7 -3 -17 -10 -19 -11
c-6 -3 -10 -4 -19 -7c-4 -3 -10 -8 -19 -4c2 25 -6 31 24 48c43 25 109 51 154 46z" />
    <glyph glyph-name="oacute" unicode="&#xf3;" horiz-adv-x="398" 
d="M287 330c0 -12 -17 -18 -9 -30c38 16 61 24 89 6s35 -42 36 -73c1 -57 -70 -159 -124 -201c-37 -29 -81 -49 -122 -36c-19 6 -47 28 -54 52c-4 14 0 73 2 87l-44 -37c-5 -3 -4 -2 -9 -7l-3 -5l-4 -1c0 7 2 6 0 14l-1 4v4l1 4v4v3v4s-1 4 -1 8c1 4 1 8 1 14l125 126
c4 3 11 12 29 26c17 16 13 16 27 27c26 23 34 13 61 7zM429 155l7 -2l4 -7c8 -38 15 -40 -29 -71c-3 -3 -12 -10 -18 -14c-3 -2 -15 -11 -21 -13c-7 -4 -18 -12 -20 -15c-7 -4 -11 -6 -21 -6l-5 13l13 17zM377 523h19c5 -3 11 -15 11 -21c3 -10 2 -14 2 -25
c0 0 -17 -23 -18 -25c-13 -10 -13 -5 -26 -11c-2 -1 -8 -4 -11 -6c-9 -4 -5 -2 -13 -7l-25 -10l-32 -13c-3 -1 -21 -6 -22 -7l-43 -20c-11 -5 -20 -10 -30 1c2 7 -1 16 6 24c5 6 20 12 26 15l67 36c8 5 29 24 45 34c24 14 28 17 44 35zM296 228c-12 0 -20 -3 -26 -7l-12 -10
l-8 -13c-11 -15 -6 -11 -22 -23c-12 -4 -14 -1 -20 -15c-2 -4 -13 -23 -14 -24c-9 -20 -15 -50 -7 -63c5 -9 15 -13 24 -14c21 0 72 38 91 62c14 13 11 17 13 25c2 6 3 10 11 24c4 14 2 24 -7 49c-5 8 -13 9 -23 9z" />
    <glyph glyph-name="ograve" unicode="&#xf2;" horiz-adv-x="398" 
d="M287 330c0 -12 -17 -18 -9 -30c38 16 61 24 89 6s35 -42 36 -73c1 -57 -70 -159 -124 -201c-37 -29 -81 -49 -122 -36c-19 6 -47 28 -54 52c-4 14 0 73 2 87l-44 -37c-5 -3 -4 -2 -9 -7l-3 -5l-4 -1c0 7 2 6 0 14l-1 4v4l1 4v4v3v4s-1 4 -1 8c1 4 1 8 1 14l125 126
c4 3 11 12 29 26c17 16 13 16 27 27c26 23 34 13 61 7zM429 155l7 -2l4 -7c8 -38 15 -40 -29 -71c-3 -3 -12 -10 -18 -14c-3 -2 -15 -11 -21 -13c-7 -4 -18 -12 -20 -15c-7 -4 -11 -6 -21 -6l-5 13l13 17zM232 526c61 -87 95 -93 179 -129v-10l-21 -14l-63 21
c-13 5 -16 7 -25 9l-19 11c-8 2 -17 9 -27 15c-6 4 -22 13 -28 14c-22 12 -23 16 -41 44c2 13 -3 19 12 31c11 8 23 7 33 8zM296 228c-12 0 -20 -3 -26 -7l-12 -10l-8 -13c-11 -15 -6 -11 -22 -23c-12 -4 -14 -1 -20 -15c-2 -4 -13 -23 -14 -24c-9 -20 -15 -50 -7 -63
c5 -9 15 -13 24 -14c21 0 72 38 91 62c14 13 11 17 13 25c2 6 3 10 11 24c4 14 2 24 -7 49c-5 8 -13 9 -23 9z" />
    <glyph glyph-name="ocircumflex" unicode="&#xf4;" horiz-adv-x="398" 
d="M287 330c0 -12 -17 -18 -9 -30c38 16 61 24 89 6s35 -42 36 -73c1 -57 -70 -159 -124 -201c-37 -29 -81 -49 -122 -36c-19 6 -47 28 -54 52c-4 14 0 73 2 87l-44 -37c-5 -3 -4 -2 -9 -7l-3 -5l-4 -1c0 7 2 6 0 14l-1 4v4l1 4v4v3v4s-1 4 -1 8c1 4 1 8 1 14l125 126
c4 3 11 12 29 26c17 16 13 16 27 27c26 23 34 13 61 7zM429 155l7 -2l4 -7c8 -38 15 -40 -29 -71c-3 -3 -12 -10 -18 -14c-3 -2 -15 -11 -21 -13c-7 -4 -18 -12 -20 -15c-7 -4 -11 -6 -21 -6l-5 13l13 17zM423 415c0 -6 1 -13 1 -20c0 -13 3 -8 -1 -22l-38 16
c-7 4 -7 3 -16 6c-4 2 -12 6 -17 8l-24 9l-34 22h-10c-19 -19 -17 -13 -36 -26l-35 -18l-22 -14c-15 0 -19 9 -19 26c10 13 106 90 126 91c9 0 53 -30 63 -35c36 -18 28 -11 62 -43zM296 228c-12 0 -20 -3 -26 -7l-12 -10l-8 -13c-11 -15 -6 -11 -22 -23
c-12 -4 -14 -1 -20 -15c-2 -4 -13 -23 -14 -24c-9 -20 -15 -50 -7 -63c5 -9 15 -13 24 -14c21 0 72 38 91 62c14 13 11 17 13 25c2 6 3 10 11 24c4 14 2 24 -7 49c-5 8 -13 9 -23 9z" />
    <glyph glyph-name="odieresis" unicode="&#xf6;" horiz-adv-x="398" 
d="M287 330c0 -12 -17 -18 -9 -30c38 16 61 24 89 6s35 -42 36 -73c1 -57 -70 -159 -124 -201c-37 -29 -81 -49 -122 -36c-19 6 -47 28 -54 52c-4 14 0 73 2 87l-44 -37c-5 -3 -4 -2 -9 -7l-3 -5l-4 -1c0 7 2 6 0 14l-1 4v4l1 4v4v3v4s-1 4 -1 8c1 4 1 8 1 14l125 126
c4 3 11 12 29 26c17 16 13 16 27 27c26 23 34 13 61 7zM429 155l7 -2l4 -7c8 -38 15 -40 -29 -71c-3 -3 -12 -10 -18 -14c-3 -2 -15 -11 -21 -13c-7 -4 -18 -12 -20 -15c-7 -4 -11 -6 -21 -6l-5 13l13 17zM274 454c5 -8 3 -8 3 -20v-22c-3 -9 -2 -9 -14 -14
c-5 -2 -5 -3 -9 -8l-5 -5l-6 -4l-16 3c-4 0 -9 -2 -14 -2c-11 -3 -20 1 -31 16c-7 10 -8 19 -5 27c4 11 25 36 45 41c11 3 21 -2 52 -12zM393 467c17 -13 30 -23 27 -43c-5 -17 0 -16 -15 -26l-4 -1l-4 -3l-1 -4l-3 -4l-15 -7c-20 -10 -22 -9 -41 3c-18 0 -20 24 -20 30
c1 21 20 34 35 42c7 4 14 10 21 12c7 3 12 0 20 1zM296 228c-12 0 -20 -3 -26 -7l-12 -10l-8 -13c-11 -15 -6 -11 -22 -23c-12 -4 -14 -1 -20 -15c-2 -4 -13 -23 -14 -24c-9 -20 -15 -50 -7 -63c5 -9 15 -13 24 -14c21 0 72 38 91 62c14 13 11 17 13 25c2 6 3 10 11 24
c4 14 2 24 -7 49c-5 8 -13 9 -23 9z" />
    <glyph glyph-name="otilde" unicode="&#xf5;" horiz-adv-x="398" 
d="M287 330c0 -12 -17 -18 -9 -30c38 16 61 24 89 6s35 -42 36 -73c1 -57 -70 -159 -124 -201c-37 -29 -81 -49 -122 -36c-19 6 -47 28 -54 52c-4 14 0 73 2 87l-44 -37c-5 -3 -4 -2 -9 -7l-3 -5l-4 -1c0 7 2 6 0 14l-1 4v4l1 4v4v3v4s-1 4 -1 8c1 4 1 8 1 14l125 126
c4 3 11 12 29 26c17 16 13 16 27 27c26 23 34 13 61 7zM429 155l7 -2l4 -7c8 -38 15 -40 -29 -71c-3 -3 -12 -10 -18 -14c-3 -2 -15 -11 -21 -13c-7 -4 -18 -12 -20 -15c-7 -4 -11 -6 -21 -6l-5 13l13 17zM319 478l15 -21v-28l6 -8c7 0 7 1 20 6l20 5l18 5c15 9 12 5 27 16
c8 5 21 8 30 4c1 -4 0 -27 -5 -30c-8 -13 -13 -15 -28 -21c-13 -7 -122 -38 -135 -31c-10 6 -12 17 -16 44c-5 8 -13 7 -19 9c-9 -1 -12 -4 -21 -8l-13 -8l-4 -1l-5 -2c-1 0 -7 -2 -10 -3c-7 -3 -18 -10 -20 -11c-6 -3 -10 -4 -19 -7c-4 -3 -10 -8 -19 -4c2 25 -5 30 24 48
c44 25 109 51 154 46zM296 228c-12 0 -20 -3 -26 -7l-12 -10l-8 -13c-11 -15 -6 -11 -22 -23c-12 -4 -14 -1 -20 -15c-2 -4 -13 -23 -14 -24c-9 -20 -15 -50 -7 -63c5 -9 15 -13 24 -14c21 0 72 38 91 62c14 13 11 17 13 25c2 6 3 10 11 24c4 14 2 24 -7 49
c-5 8 -13 9 -23 9z" />
    <glyph glyph-name="uacute" unicode="&#xfa;" horiz-adv-x="453" 
d="M211 73c55 38 83 79 124 141l26 28c22 1 37 2 46 -11c2 -5 2 -70 10 -85c6 -10 15 -18 26 -19c5 0 11 2 28 14c7 6 12 9 14 11l7 5l3 1l4 -2c2 -25 3 -30 2 -57c-42 -33 -86 -60 -120 -49c-34 13 -44 49 -54 75c-15 -21 -89 -133 -148 -134c-15 0 -35 7 -46 24
c-14 18 -21 100 -22 118l-17 -12l-6 -5l-4 -7c-5 -3 -10 -6 -14 -10c-7 -6 -23 -23 -25 -14c1 57 -15 40 36 94l24 28c11 17 19 19 26 35c8 9 14 15 26 35c25 36 28 48 59 53c12 2 20 -1 24 -5c4 -5 5 -11 -2 -34c-26 -88 -46 -161 -27 -218zM404 514h18c5 -3 11 -14 11 -20
c4 -11 3 -15 3 -26c0 0 -18 -23 -19 -25c-12 -10 -12 -5 -25 -11c-2 -1 -8 -4 -11 -6c-9 -4 -5 -2 -13 -7l-26 -10l-31 -13c-3 -1 -21 -6 -22 -7l-44 -20c-11 -5 -19 -10 -29 1c2 7 -1 16 6 24c5 7 19 13 25 15l68 36c7 5 28 24 45 34c24 15 28 18 44 35z" />
    <glyph glyph-name="ugrave" unicode="&#xf9;" horiz-adv-x="453" 
d="M211 73c55 38 83 79 124 141l26 28c22 1 37 2 46 -11c2 -5 2 -70 10 -85c6 -10 15 -18 26 -19c5 0 11 2 28 14c7 6 12 9 14 11l7 5l3 1l4 -2c2 -25 3 -30 2 -57c-42 -33 -86 -60 -120 -49c-34 13 -44 49 -54 75c-15 -21 -89 -133 -148 -134c-15 0 -35 7 -46 24
c-14 18 -21 100 -22 118l-17 -12l-6 -5l-4 -7c-5 -3 -10 -6 -14 -10c-7 -6 -23 -23 -25 -14c1 57 -15 40 36 94l24 28c11 17 19 19 26 35c8 9 14 15 26 35c25 36 28 48 59 53c12 2 20 -1 24 -5c4 -5 5 -11 -2 -34c-26 -88 -46 -161 -27 -218zM259 517
c60 -87 95 -93 179 -129v-10l-22 -14l-62 21c-14 5 -17 7 -26 9l-18 12c-8 2 -17 8 -27 14c-5 4 -22 13 -28 14c-23 12 -24 16 -41 44c2 14 -3 20 12 31c10 8 22 7 33 8z" />
    <glyph glyph-name="ucircumflex" unicode="&#xfb;" horiz-adv-x="453" 
d="M211 73c55 38 83 79 124 141l26 28c22 1 37 2 46 -11c2 -5 2 -70 10 -85c6 -10 15 -18 26 -19c5 0 11 2 28 14c7 6 12 9 14 11l7 5l3 1l4 -2c2 -25 3 -30 2 -57c-42 -33 -86 -60 -120 -49c-34 13 -44 49 -54 75c-15 -21 -89 -133 -148 -134c-15 0 -35 7 -46 24
c-14 18 -21 100 -22 118l-17 -12l-6 -5l-4 -7c-5 -3 -10 -6 -14 -10c-7 -6 -23 -23 -25 -14c1 57 -15 40 36 94l24 28c11 17 19 19 26 35c8 9 14 15 26 35c25 36 28 48 59 53c12 2 20 -1 24 -5c4 -5 5 -11 -2 -34c-26 -88 -46 -161 -27 -218zM450 407c0 -7 1 -14 1 -21
c0 -13 3 -8 -1 -22l-39 16c-6 4 -6 3 -15 6c-4 2 -12 6 -17 8l-24 10c-12 6 -26 15 -35 21h-9c-19 -18 -17 -13 -36 -26l-36 -18l-21 -14c-15 0 -19 9 -19 26c10 14 106 90 125 91c9 0 54 -30 64 -35c35 -18 27 -11 62 -42z" />
    <glyph glyph-name="udieresis" unicode="&#xfc;" horiz-adv-x="453" 
d="M211 73c55 38 83 79 124 141l26 28c22 1 37 2 46 -11c2 -5 2 -70 10 -85c6 -10 15 -18 26 -19c5 0 11 2 28 14c7 6 12 9 14 11l7 5l3 1l4 -2c2 -25 3 -30 2 -57c-42 -33 -86 -60 -120 -49c-34 13 -44 49 -54 75c-15 -21 -89 -133 -148 -134c-15 0 -35 7 -46 24
c-14 18 -21 100 -22 118l-17 -12l-6 -5l-4 -7c-5 -3 -10 -6 -14 -10c-7 -6 -23 -23 -25 -14c1 57 -15 40 36 94l24 28c11 17 19 19 26 35c8 9 14 15 26 35c25 36 28 48 59 53c12 2 20 -1 24 -5c4 -5 5 -11 -2 -34c-26 -88 -46 -161 -27 -218zM301 445c5 -8 3 -8 3 -20v-21
c-3 -10 -2 -10 -14 -15c-5 -2 -5 -3 -9 -8l-5 -5l-6 -4l-16 3c-5 0 -10 -2 -15 -2c-11 -3 -19 1 -30 16c-7 10 -8 20 -5 27c4 11 24 36 44 41c12 3 22 -2 53 -12zM419 458c18 -13 31 -23 28 -43c-5 -17 0 -16 -16 -26l-4 -1l-4 -3l-1 -4l-3 -4l-14 -7c-20 -10 -22 -9 -41 3
c-18 0 -21 24 -21 31c1 20 21 33 36 41c7 4 14 10 21 12c7 3 11 0 19 1z" />
    <glyph glyph-name="dagger" unicode="&#x2020;" horiz-adv-x="467" 
d="M328 720l6 -7l2 -7c-2 -6 -2 -10 0 -16c-5 -15 -1 -13 -1 -30v-33c-1 -3 -7 -13 -7 -31v-32c-3 -4 -6 -8 -6 -19c-3 -11 -3 -9 -3 -21l-5 -44l-5 -11c4 -5 9 -5 17 0c11 3 7 0 19 0c13 0 26 5 39 5l37 -5c21 -2 17 -1 39 -4l7 -8c-10 -36 -12 -58 -55 -64
c-33 -6 -52 -4 -86 -6h-13c-15 0 -8 -2 -25 -7c0 -4 1 -9 -1 -14v-14c-2 -8 -5 -16 -8 -24v-14c0 -2 -6 -15 -6 -19l-32 -161c-2 -7 -2 -14 -4 -21c0 -11 -4 -16 -4 -22l-5 -37l-2 -27l-9 -79c-3 -37 -5 -54 2 -90l-7 -5c-19 3 -36 1 -48 27c-3 6 -9 36 -9 57v39l1 33v31
c0 11 2 23 2 35c0 10 4 25 4 37v39c2 10 7 12 9 24l12 77c0 10 1 19 1 29l9 64c-3 9 3 17 0 26c-96 -23 -52 -4 -148 -44c-1 7 0 18 1 27l11 28c9 23 24 42 39 51c5 2 22 5 26 6h7h6l6 3l2 2l4 1c14 5 17 6 25 7c7 1 20 -5 27 1c5 4 20 58 21 62c0 3 2 28 4 32
c0 9 -1 22 -1 32v15c1 26 -6 56 15 78c3 2 11 10 23 17c11 8 16 10 23 10c2 1 9 4 12 5c1 1 6 7 10 9c9 6 13 7 22 7z" />
    <glyph glyph-name="degree" unicode="&#xb0;" horiz-adv-x="250" 
d="M210 449l-11 -29c-16 -56 -25 -109 -90 -151l-6 6l6 26c3 8 8 14 8 18l36 126l13 64v16c3 16 6 25 6 27c0 6 4 20 -1 27l-35 -23l-36 -29c-6 -5 -14 -11 -20 -17l-15 -12c-6 -5 -15 -13 -21 -8v28l69 69c14 13 90 87 107 85c6 -1 21 -8 27 -17c7 -10 -9 -86 -11 -96v-14
l-8 -24s-2 -10 -2 -11l-5 -12l-1 -5l-1 -6l-3 -13c-3 -5 -9 -19 -6 -25z" />
    <glyph glyph-name="cent" unicode="&#xa2;" horiz-adv-x="360" 
d="M231 555c-3 -11 -4 -23 -8 -34c0 -6 -10 -26 0 -29l4 1l3 5c6 3 7 3 10 5l4 2l5 3l5 3l6 1c5 6 6 8 15 8l4 1l4 2l3 2l4 1c17 4 14 1 30 -2c6 -8 3 -9 3 -21c-3 -5 -1 -14 1 -19c0 -8 -3 -12 -11 -21c-5 -9 -11 -13 -19 -15c-3 -5 -14 -14 -20 -17l-23 -15
c-10 -4 -15 -11 -20 -16c-4 -3 -17 -12 -22 -17v-16c-4 -24 -17 -74 -15 -131c15 0 10 0 27 7l106 49l3 1l6 2c5 1 4 2 10 -2c0 -3 0 -6 -1 -11l-2 -5l-4 -7c0 -2 -1 -8 -3 -11c-1 -1 -10 -7 -12 -9c-13 -15 -23 -22 -45 -35c-17 -11 -29 -21 -48 -30c-7 -4 -19 -9 -22 -10
c-2 -1 -20 -9 -24 -12c-2 -5 -4 -25 -4 -29c0 -7 -4 -21 -17 -30c-11 4 -16 17 -11 28c0 2 0 31 -2 33c-38 -1 -83 15 -101 59c-6 14 -5 34 -6 51l-7 7c4 61 75 130 135 175c0 5 1 14 1 22v15l4 12c2 5 4 7 4 13v18c0 1 2 7 6 14l23 5l6 1l6 -1l5 3zM164 354l-5 -4
c-2 -4 -5 -8 -6 -9c-11 -11 -11 -10 -17 -19c-4 -38 -8 -35 3 -70l23 -13v16c0 7 6 40 6 50c0 4 -1 8 -1 13c0 3 1 8 1 10c1 14 1 17 1 25z" />
    <glyph glyph-name="sterling" unicode="&#xa3;" horiz-adv-x="650" 
d="M507 451l-1 -4c-6 -18 -18 -20 -32 -34c-12 -7 -27 -13 -39 -13c-12 8 -11 15 -11 27v34c0 6 2 16 2 24v56c0 14 -4 16 -2 32l-6 6h-5c-5 -4 -6 -5 -9 -14l-18 -78c-2 -8 -1 -13 -2 -22l-11 -38l-12 -37l-6 -14c0 -9 -2 -19 -2 -28l8 -8c5 0 4 0 10 1l5 2h6l23 -3l145 17
c8 -14 -1 -22 -9 -34c-8 -8 -19 -17 -32 -24c-13 -8 -30 -9 -69 -13h-24c-7 -1 -80 -17 -86 -25c-4 -4 -19 -81 -20 -86c-19 -39 -22 -43 -31 -85c66 -53 124 -61 170 -45c26 8 19 7 43 30c4 4 20 17 20 18c6 6 13 11 21 19c16 15 14 14 37 41c5 5 17 19 20 23
c1 3 10 14 20 11v-16l-14 -25c-3 -10 -1 -14 -5 -26c-3 -15 -20 -34 -35 -53c-20 -24 -62 -75 -99 -91c-26 -12 -94 -15 -112 -12c-49 8 -62 30 -112 50c-13 6 -8 8 -23 0c-5 -3 -10 -8 -12 -11c-6 -4 -7 -7 -13 -9c-22 -10 -23 7 -69 30l-11 17c-5 7 -67 71 -61 96
c1 10 21 41 35 47c15 7 84 -34 99 -42l28 -11l34 51c1 37 5 31 10 68l-7 5l-35 -3l-42 -7c-7 -2 -10 -2 -14 -3h-19c-13 0 -25 -6 -37 -6l-6 5c-2 4 1 16 3 20c3 11 7 10 7 21c7 18 11 30 25 36c1 1 64 13 67 13c16 -21 16 -9 34 -9c1 0 34 4 37 6c14 9 15 33 20 63l36 147
c4 12 8 30 12 43l15 42c9 24 3 22 29 37c6 4 28 15 42 21c18 6 29 8 40 0c29 -24 29 -109 31 -133v-45c2 -20 1 -26 19 -52z" />
    <glyph glyph-name="section" unicode="&#xa7;" horiz-adv-x="646" 
d="M535 624c-9 14 -20 17 -37 17c-4 0 -29 8 -38 4c-34 0 -43 2 -78 -15c-37 -19 -84 -71 -88 -103c-5 -37 29 -80 69 -115l41 -39c45 -48 101 -115 89 -170c-12 -56 -24 -58 -90 -115c12 -63 8 -132 -41 -187c-65 -74 -203 -100 -259 -94c-32 3 -63 14 -81 47
c-22 42 1 148 22 192c10 24 19 32 45 36c16 3 31 0 44 -14c7 -9 10 -19 5 -38c-3 -15 -56 -128 -53 -143c4 -19 3 -15 21 -21c36 -10 118 7 159 36c28 19 59 77 59 99c-2 45 -33 64 -88 121l-30 33c-4 4 -11 10 -17 16l-12 16c-47 49 -63 75 -44 130c21 62 23 45 86 118
c-19 50 -19 101 16 151c63 86 150 121 235 118c18 0 95 -1 121 -41c7 -12 13 -75 13 -77c-1 -5 -2 -13 -4 -20c-2 -6 -1 -13 -4 -20c-1 -16 3 -22 -2 -40c-5 -19 -25 -60 -56 -70c-16 -4 -38 -6 -49 2c-8 6 -11 16 -9 36c2 12 16 54 26 74c16 30 26 42 29 76zM224 362
c-8 -13 -14 -22 -17 -34c-9 -40 83 -121 87 -125l77 -82c26 26 32 33 36 46c17 60 -32 94 -89 154l-67 69c-20 -7 -14 -18 -27 -28z" />
    <glyph glyph-name="bullet" unicode="&#x2022;" horiz-adv-x="165" 
d="M75 371c15 9 40 10 59 -1c19 -12 31 -32 31 -53c0 -19 -11 -42 -34 -54c-19 -11 -42 -10 -59 1c-20 13 -30 34 -28 57c1 17 9 37 31 50z" />
    <glyph glyph-name="germandbls" unicode="&#xdf;" horiz-adv-x="436" 
d="M288 393c2 -9 -1 -17 7 -27c6 -10 21 -20 27 -26c15 -14 32 -32 40 -52c18 -49 -4 -120 -34 -161c-30 -42 -113 -118 -154 -118c-16 0 -25 9 -43 26l-1 9c110 72 142 119 138 213c-2 25 -11 41 -22 58c-1 2 -34 34 -39 51c-10 32 4 37 43 78l15 17c31 35 75 95 68 130
c0 7 -4 26 -15 26c-11 5 -27 1 -45 -9c-70 -40 -84 -120 -94 -178l-39 -198c0 -12 -4 -20 -4 -22l-27 -158c-1 -8 -2 -16 -2 -20c0 -5 -2 -14 -2 -22l-12 -90l-3 -28l-16 -115c-5 -30 -2 -16 -17 -49c-22 0 -29 0 -35 8c-8 9 -11 22 -9 53v14c0 4 0 17 2 21v20l8 81
c0 9 1 17 1 26l35 275c2 9 3 14 4 24l22 129c0 10 4 20 4 30l5 27c20 80 27 191 153 246c31 12 104 10 138 -13c40 -29 45 -47 42 -94c-6 -103 -75 -100 -139 -182z" />
    <glyph glyph-name="registered" unicode="&#xae;" horiz-adv-x="763" 
d="M581 716c8 -10 4 -12 0 -26l-18 -51l-24 -69l-11 -24l-4 -7v-3l-1 -4c-2 -4 -6 -9 -8 -14c-6 -9 -12 -20 -12 -29l-13 -20c-6 -7 -7 -12 -11 -18l-104 -195c-2 -3 -9 -17 -12 -22l-52 -87c-1 -4 -8 -23 -11 -29l-31 -52c-5 -12 -10 -20 -15 -31l-14 -29
c-7 -15 -11 -32 -21 -56c-4 -10 -5 -19 -16 -29c-11 -6 -16 -10 -29 -10c-15 9 -9 24 -13 35c0 5 0 18 4 36c1 4 24 67 27 72l7 14l13 21c5 7 7 14 12 20l40 89c14 28 9 26 24 54l58 103l3 8l3 4l1 5l101 198c1 3 12 32 16 37l6 20c1 1 33 59 38 63l33 16c7 4 26 12 34 10z
M236 461l-12 -30c-16 -49 -29 -84 -34 -94c-7 -17 -21 -37 -30 -46c-5 -5 -14 -13 -24 -19c-11 -9 -13 -11 -24 -7c-2 5 -2 8 1 18l7 18l5 10l2 6l2 5l40 131c16 57 26 92 27 151c-52 -29 -56 -30 -110 -72l-33 -25l-9 3c2 37 -4 23 31 58l73 65c20 18 84 74 106 70
c13 -3 25 -10 30 -20c7 -11 -34 -162 -48 -202v-20zM612 416c39 -1 82 -7 113 -52c21 -31 19 -81 4 -117c-22 -49 -50 -68 -96 -116l2 -4c33 -34 54 -51 43 -91c-9 -35 -61 -64 -95 -73c-25 -7 -74 -11 -100 14c-15 14 -15 34 -9 59c7 29 51 74 77 102
c-39 29 -86 56 -79 104c2 11 6 22 18 39l15 18c1 0 13 7 20 7l5 -6c-8 -31 -12 -40 2 -68c1 -2 6 -12 9 -16c6 -6 12 -12 16 -18c7 -10 18 -25 31 -25c18 18 111 134 103 159c-4 17 -12 18 -27 21c-21 4 -50 1 -85 -8c-21 -5 -32 -10 -42 -14c-2 -1 -19 -10 -22 -10
c-6 0 -12 -2 -20 5c-2 8 -3 17 6 27c3 4 11 13 26 24c8 6 38 24 54 30l3 1l4 1h7h4l4 2l4 2zM529 17c-1 -11 4 -18 9 -22c8 -6 21 -5 41 1c25 8 42 21 48 40c7 16 -3 16 -3 31c-4 4 -24 28 -26 28c-12 -11 -67 -63 -69 -78z" />
    <glyph glyph-name="copyright" unicode="&#xa9;" horiz-adv-x="813" 
d="M623 721c3 -5 5 -16 0 -24l-22 -61l-10 -31c-2 -10 -3 -19 -8 -31l-14 -28c-5 -17 -3 -11 -13 -27c-6 -8 -8 -19 -10 -27l-8 -14c-5 -9 -8 -7 -11 -16c-4 -6 -7 -11 -9 -17l-16 -25c-2 -9 -1 -5 -5 -12l-5 -13l-9 -22c-2 -2 -4 -5 -8 -9l-3 -3l-1 -6l-54 -98l-12 -25
l-55 -98c-2 -6 0 -5 -4 -10c-2 -3 -7 -8 -10 -12l-19 -41c-4 -6 -10 -19 -13 -24l-13 -25l-10 -23c-5 -14 -24 -80 -49 -85c-10 0 -15 -5 -20 10c-16 29 14 113 46 166l21 40l16 40l13 24c3 5 5 11 9 21l19 44c4 5 12 20 14 26l18 25l12 20l20 49l9 17l13 20l76 156l7 22
c4 12 3 11 11 23c28 74 29 80 107 104zM189 487c8 -8 25 -15 31 -17c21 -7 21 -7 32 -10c21 -8 47 -19 58 -44c6 -12 8 -31 -5 -49c-24 -34 -82 -61 -124 -82c-58 -31 -77 -25 -126 -28l-10 17l166 96c16 10 19 7 34 28v5c-3 4 -10 9 -18 9h-15c-2 1 -28 13 -32 14l-25 9
c-7 0 -13 3 -19 5c-5 2 -16 11 -18 16c4 25 -5 16 16 41l31 35c9 9 11 13 13 14l21 27c6 7 13 16 21 26c4 5 13 20 16 27c-5 6 -13 7 -19 7h-20c-20 0 -21 -1 -42 -5l-20 -2l-21 -5c-4 -2 -8 -3 -10 -3c-2 -1 -6 -4 -10 -4c-12 -4 -12 -6 -22 2c-6 18 0 17 7 37
c7 17 7 23 26 32c23 12 136 30 179 10c15 -6 25 -16 27 -29c4 -26 -46 -77 -73 -109l-21 -27s-15 -20 -16 -21c-2 -3 -12 -20 -12 -22zM656 421c47 0 104 -15 123 -71c32 -86 -31 -133 -99 -215c37 -39 53 -50 44 -89c-8 -31 -53 -62 -88 -73c-43 -14 -76 -15 -104 8
c-15 12 -18 28 -14 52c6 40 42 71 80 109c-40 31 -87 54 -80 104c1 8 5 22 19 40c4 5 10 15 18 20c4 2 13 7 20 2c-15 -60 -3 -73 52 -130h5c21 19 112 137 106 159c-4 16 -14 19 -29 22c-22 5 -40 2 -83 -9c-17 -4 -25 -7 -42 -14c-3 -1 -14 -6 -21 -9c-6 -3 -15 -3 -22 1
c-3 8 -4 17 4 26c5 8 16 19 24 26c6 5 38 24 54 29c10 5 20 2 33 12zM575 22c-1 -11 -2 -13 9 -21c10 -7 30 -3 46 3c20 8 40 22 44 42c4 15 -1 27 -3 30c-8 8 -21 25 -29 27c-13 -13 -65 -65 -67 -81z" />
    <glyph glyph-name="trademark" unicode="&#x2122;" horiz-adv-x="448" 
d="M268 698c2 -15 8 -114 32 -132c10 -7 13 -6 24 0c7 5 32 31 50 55c27 37 8 25 45 48l7 -6c-1 -30 -2 -46 -6 -63l-27 -116c-4 -12 -4 -24 -8 -36l-27 -17l23 165c-17 -20 -57 -72 -83 -71c-7 1 -16 4 -26 16c-5 7 -10 22 -17 25l-7 -48l-8 -53c0 -8 -3 -18 -3 -27
c-6 -11 -14 -16 -24 -13c0 12 -2 9 -2 20l14 154c0 9 2 19 2 28c2 11 1 22 1 30c5 26 17 29 40 41zM195 686c0 0 5 -19 1 -31c-7 0 -16 2 -24 2c-4 1 -8 1 -12 0c-5 1 -8 2 -13 -2c5 -6 13 -11 13 -28c1 -6 -3 -22 -4 -28l-14 -76c-4 -23 -8 -56 -6 -97l-16 -10
c-12 55 -6 129 -4 148l9 86c-5 3 -6 5 -15 1c-7 0 -14 -2 -17 -3l-4 1l-4 -3c-4 -1 -6 -2 -9 -4c-4 0 -11 -3 -16 0c4 23 0 38 28 46c25 7 47 7 107 -2z" />
    <glyph glyph-name="acute" unicode="&#xb4;" horiz-adv-x="264" 
d="M231 575h19c5 -3 11 -15 11 -21c4 -11 3 -15 3 -26c0 0 -18 -23 -19 -25c-13 -9 -13 -4 -25 -10l-12 -6c-8 -4 -4 -2 -12 -7l-26 -10l-32 -14c-2 -1 -20 -6 -21 -7l-44 -20c-11 -5 -20 -10 -29 1c1 7 -1 16 5 24c5 7 20 13 26 16l67 35c8 5 29 24 46 34
c23 15 28 18 43 36z" />
    <glyph glyph-name="dieresis" unicode="&#xa8;" horiz-adv-x="288" 
d="M141 512c5 -8 3 -8 3 -19v-22c-3 -10 -2 -10 -13 -15c-5 -2 -5 -3 -9 -8l-5 -5l-6 -4l-16 3c-5 0 -10 -2 -15 -2c-11 -3 -20 1 -31 16c-6 10 -7 20 -4 28c3 11 24 35 44 40c11 3 22 -2 52 -12zM260 525c18 -13 31 -23 28 -42c-5 -18 0 -17 -16 -27l-4 -2l-4 -2l-1 -4
l-3 -4l-15 -8c-19 -9 -21 -8 -40 4c-18 0 -21 24 -21 31c1 21 21 33 36 41c7 4 13 10 20 12c7 3 12 0 20 1z" />
    <glyph glyph-name="AE" unicode="&#xc6;" horiz-adv-x="792" 
d="M435 706l-22 -70c69 -49 65 -45 74 -139c21 92 44 103 128 165c40 28 143 37 183 31c14 -3 25 -4 34 -21c9 -16 -3 -67 -6 -81l-12 -8c-36 6 -63 15 -99 16c-33 0 -99 -17 -100 -17c-36 -20 -51 -108 -59 -135l-7 -25c-5 -24 -8 -47 -11 -95l6 -6c67 38 42 39 109 55
c23 5 87 10 111 5c15 -3 22 -6 27 -23c3 -8 -1 -50 -6 -57c-8 -11 -16 -10 -29 -9c-43 4 -175 4 -220 -29c-24 -18 -24 -75 -28 -98l-8 -65c0 -3 1 -21 0 -27c0 -6 -1 -18 3 -26c5 -1 30 3 36 3c11 0 25 -1 37 -1c30 2 39 7 72 16c61 15 84 19 145 47l6 -6
c-6 -38 -15 -51 -46 -70c-96 -62 -184 -80 -280 -68l-6 27c-2 -2 -5 -12 -18 -22c-7 -5 -16 -11 -25 -11c-2 3 -6 14 -6 26v16c-3 11 0 17 0 28v204l-6 5c-4 0 -8 -1 -12 -1c-4 -3 -7 -6 -14 -8c-11 -4 -15 -5 -27 -5c-17 -2 -9 0 -27 -4c-6 -3 -19 -8 -26 -11
c-15 -4 -11 0 -27 -6c-12 -5 -21 -11 -27 -13c-16 -7 -23 -11 -53 -15l-14 -34c-9 -23 -10 -26 -17 -41l-27 -77l-2 -16c-2 -5 -3 -10 -3 -15c-2 -9 -5 -16 -12 -32c-3 -8 -1 -8 -6 -15c-2 -6 -1 -9 -12 -12c-9 -4 -21 -10 -32 -3c-3 43 4 80 17 116l24 97l-27 14
c2 13 3 45 8 59c0 0 12 26 14 28c8 10 20 13 29 13c2 1 5 3 7 4c4 1 6 2 9 5c2 1 4 14 6 17c0 13 9 25 15 33c7 11 10 27 10 34c4 10 6 23 10 34l31 98c13 37 22 62 52 98l-10 21c0 17 1 23 18 33c16 11 18 -2 36 17c5 9 11 23 20 28c13 11 18 11 32 21c9 6 22 18 31 19
c7 -2 23 -2 29 -16zM238 274l55 7c14 0 16 -4 31 1h24c13 1 10 3 24 6c6 0 16 4 24 4h23v36c0 7 2 14 2 21c0 5 -1 15 0 22v24c-2 43 10 95 -35 133c-14 11 -22 14 -27 13c-11 -3 -47 -80 -52 -89l-15 -30c-5 -9 -19 -48 -23 -59l-12 -33c-6 -10 -11 -18 -17 -27
c-3 -11 -13 -18 -2 -29z" />
    <glyph glyph-name="Oslash" unicode="&#xd8;" horiz-adv-x="539" 
d="M515 598l-6 -15c66 -94 65 -211 31 -310c-31 -88 -144 -219 -240 -268c-1 -1 -52 -22 -73 -27c-12 -2 -24 -4 -36 -4c-7 1 -9 1 -18 2c-6 0 -11 5 -19 2c-15 -5 -22 -23 -29 -33c-9 -13 -9 -29 -29 -29c-9 6 -9 23 -9 30c0 9 -3 19 -3 30c6 11 8 11 12 23c3 11 1 12 3 23
c-56 109 -22 243 -1 310l5 26c52 176 114 222 215 284c7 6 13 12 27 12c13 0 15 4 30 13l24 -8l49 -9c11 22 25 43 41 45c7 1 14 0 20 -9c6 -6 6 -81 6 -88zM271 533c-107 -61 -112 -226 -115 -305v-22c0 -16 2 -24 7 -54c8 4 13 16 18 23l14 25c5 12 14 26 19 36l58 94
l8 10l2 5l4 5l24 37l10 22c4 10 9 18 11 22l61 111c-57 24 -81 14 -121 -9zM204 68c6 -10 17 -10 27 -10c15 -2 25 -1 31 0c19 4 38 11 59 27c105 76 152 176 157 269c1 22 -2 52 -4 76c-2 4 -7 11 -10 17c-1 2 -4 12 -8 16c-8 -5 -9 -8 -13 -18c-4 -6 -7 -13 -11 -20
l-156 -237c-7 -10 -9 -11 -16 -22c0 0 -7 -11 -19 -23l-10 -13c-13 -21 -17 -41 -27 -62z" />
    <glyph glyph-name="infinity" unicode="&#x221e;" horiz-adv-x="455" 
d="M458 294c5 -12 3 -25 -1 -38l-13 -35c-2 -6 -6 -16 -9 -24l-19 -58c-2 -3 -4 -10 -7 -15l-7 -24c-2 -4 -12 -26 -3 -29c29 33 14 16 49 47c6 5 7 6 13 12c3 5 6 8 13 12c7 3 18 14 26 10c0 0 2 -34 2 -36c0 -18 1 -23 -19 -36l-38 -28c-39 -33 -87 -73 -127 -138l-23 -36
c-26 -43 -120 -192 -183 -189c-12 0 -21 -5 -27 12c-7 19 53 95 63 110l32 45c2 3 5 8 14 17c7 5 9 6 16 16l57 67c13 16 31 66 39 85l9 17s3 9 3 12c0 2 0 7 1 11c0 4 5 19 7 25c3 12 2 10 4 23c1 3 2 18 -2 23c-2 -1 -18 -14 -28 -19c-11 -9 -19 -10 -26 -27
c-24 -29 -25 -29 -55 -44c-18 -22 -30 -34 -49 -40c-26 -9 -28 -3 -53 5v25c0 6 -3 12 -3 18v27c0 9 -4 21 -7 32l-49 -39c-3 -3 -7 -8 -14 -8c0 10 1 9 4 20c0 4 1 4 1 9l-1 5l-2 5c0 23 -6 15 15 35l25 24c16 15 93 99 112 98c7 0 18 -4 26 -15c9 -16 -14 -78 -19 -96
c-1 -1 -4 -14 -7 -28c0 -6 -7 -19 0 -28h8c3 1 4 3 9 9l5 2l5 4c4 4 14 9 21 13c10 7 14 12 19 19c4 4 17 18 22 20l56 59c2 3 21 17 28 22c14 13 14 18 28 29c10 9 17 12 28 13c4 0 28 -4 31 -7zM398 482h18c5 -3 11 -15 11 -21c4 -11 3 -15 3 -26c0 0 -18 -23 -19 -25
c-12 -9 -12 -4 -25 -10c-2 -1 -8 -4 -11 -6c-9 -4 -5 -2 -13 -7l-26 -10l-31 -14c-3 -1 -21 -6 -22 -7l-44 -20c-11 -5 -19 -10 -29 1c2 7 -1 16 6 24c5 7 19 13 25 16l68 35c8 5 28 24 45 34c24 15 28 18 44 36z" />
    <glyph glyph-name="yen" unicode="&#xa5;" horiz-adv-x="812" 
d="M620 715c6 -9 5 -18 0 -26l-20 -59l-20 -64l-13 -25c-3 -12 -5 -17 -12 -29c-12 -17 -9 -23 -12 -28l-189 -341c-4 -9 -3 -12 -9 -22l-30 -53c-4 -6 -6 -13 -10 -19l-11 -19l-6 -16c-18 -39 -7 -23 -26 -66c-7 -17 0 -20 -19 -27c-11 -6 -16 -10 -31 -10l-8 9l5 5
c-6 61 3 77 28 131l6 14c7 10 16 24 23 37l43 91c6 15 14 41 23 57l50 85c6 9 9 21 15 32l97 193c1 2 6 18 7 22c3 11 3 11 11 22c27 74 33 83 108 106zM54 694c5 16 12 6 22 6c40 -1 198 -44 231 -95c32 -49 -19 -156 -30 -181l-38 -85c-3 -9 -5 -20 -7 -26l-7 -22
c-2 -5 -3 -6 -8 -10c-3 -4 -4 -6 -4 -11c-5 -12 1 -9 -6 -18c-13 -9 -8 -2 -21 -15c-8 -9 -17 -6 -19 -6l-9 6c6 41 7 55 10 66l84 262c4 8 3 10 3 17c-8 9 -7 11 -18 14c-10 6 -18 8 -19 8l-38 8c-48 9 -28 7 -76 14h-17c-10 3 -9 1 -15 7c-13 30 -24 49 -18 61zM652 413
c44 -2 94 -9 121 -58c19 -36 13 -89 -14 -130c-29 -44 -38 -45 -81 -91l1 -4c34 -34 52 -50 44 -86c-6 -28 -48 -61 -81 -73c-39 -15 -78 -17 -108 3c-16 12 -21 28 -19 49c4 46 48 83 80 115c-35 27 -88 56 -80 105c1 11 7 25 19 40c1 2 13 16 18 20c8 3 12 6 21 2
c-13 -61 -1 -81 56 -131c21 19 111 137 106 158c-2 9 -10 17 -27 21c-22 5 -50 1 -86 -8c-11 -3 -16 -4 -43 -15c-2 -1 -18 -7 -22 -9c-6 0 -12 -2 -20 5c-5 12 -6 13 15 33c10 11 20 19 32 26c30 18 37 20 68 28zM574 19c-1 -10 4 -17 10 -22c8 -6 23 -4 42 3
c22 8 40 21 46 41c3 8 3 9 1 15c-2 5 -4 10 -4 15c-4 8 -24 24 -27 27c-12 -11 -66 -60 -68 -79z" />
    <glyph glyph-name="mu" unicode="&#xb5;" horiz-adv-x="788" 
d="M595 722c3 -6 4 -11 0 -22l-21 -61c-2 -9 -6 -22 -10 -32c-2 -10 -4 -20 -9 -32l-11 -24c-2 -2 -4 -11 -6 -14c-1 -4 -3 -8 -7 -14c-8 -11 -6 -18 -11 -28l-11 -19c-8 -8 -12 -19 -13 -22l-161 -303c-2 -5 -5 -20 -9 -26l-32 -58c-5 -12 -9 -17 -14 -28l-13 -26
c-4 -10 -16 -47 -21 -58c-2 -7 -6 -21 -15 -30c-12 -11 -17 -6 -30 -9c-24 60 -4 94 17 140l7 15c6 12 13 22 23 41l39 90c8 17 23 53 27 62l44 77c7 11 3 9 9 20c2 5 6 14 9 20l93 192c3 11 8 12 8 22c3 12 3 11 11 23c0 19 6 17 13 37c1 2 4 6 7 9l1 4l4 5c3 5 4 12 10 19
c6 6 27 14 36 19s27 15 36 11zM254 461l-12 -27c-18 -63 -26 -130 -105 -170l-4 6l5 27c4 10 9 19 13 29l36 123c2 5 2 11 4 16v19c13 54 20 64 19 119c-15 -5 -9 -4 -23 -13c-8 -6 -15 -8 -24 -15l-30 -24l-25 -18l-21 -18c-8 -7 -16 -13 -25 -10c-3 8 0 20 0 29
c3 7 22 22 27 27l72 69c23 20 81 77 106 73c12 -2 25 -10 31 -18c7 -11 -8 -82 -11 -94v-21c-7 -33 -18 -59 -28 -86zM620 200c2 -9 21 -14 29 -18c8 0 7 -2 15 -6c9 -2 8 0 17 -3c14 -5 46 -17 58 -40c8 -16 10 -35 3 -48c-23 -43 -169 -109 -197 -113c-4 0 -4 -1 -9 1
c-3 -1 -4 -2 -10 0h-4h-5c-3 -1 -6 -2 -11 -2c-7 -4 -31 -2 -31 16l161 90c10 5 10 8 21 12c1 1 16 17 19 19v5c-3 5 -7 8 -18 12h-17c-8 3 -21 11 -29 11l-29 10c-3 0 -28 6 -36 19c3 24 -3 19 16 44l27 28l12 15l25 31c6 10 15 19 21 28c7 11 15 17 15 28
c-5 5 -15 6 -20 6c-13 1 -8 0 -21 -1s-23 -1 -41 -5c-12 -3 -29 -5 -43 -9l-20 -8c-8 -3 -13 -4 -20 5c0 24 2 19 8 39c8 19 4 21 29 33c25 11 135 31 179 10c13 -6 23 -17 25 -32c4 -29 -44 -75 -71 -109l-19 -23c-2 -3 -8 -11 -16 -22z" />
    <glyph glyph-name="partialdiff" unicode="&#x2202;" horiz-adv-x="795" 
d="M596 711c4 -10 6 -13 0 -23l-5 -13c-4 -11 -3 -11 -9 -21l-8 -24v-4l-1 -4c-2 -4 -4 -7 -4 -8c-1 -4 -4 -11 -5 -16l-11 -33l-11 -23c-2 -2 -5 -9 -5 -14c-3 -4 -5 -8 -9 -14s-10 -22 -12 -29l-11 -19c-6 -7 -12 -19 -13 -21l-103 -193c-4 -6 -8 -12 -11 -19l-54 -89
c-4 -9 -5 -17 -10 -27l-31 -52c-5 -13 -10 -19 -15 -32l-16 -29c-6 -14 -8 -25 -23 -58c-4 -15 2 -14 -16 -27c-10 -7 -19 -9 -30 -5c-17 64 -1 89 23 138l7 15c3 4 3 4 6 9l7 10c2 6 7 15 11 21l41 89c5 11 5 13 13 27c5 16 4 9 11 27l58 102l8 18l99 195l8 21
c1 1 3 9 10 19v17c5 12 34 57 45 64c6 3 28 10 34 14c11 7 22 11 32 11zM250 457l-13 -31c-16 -51 -34 -140 -111 -163c-2 4 -2 7 1 18l7 18c2 6 5 13 8 19l48 161c2 4 7 21 5 24c2 5 3 9 4 13c2 3 2 10 4 14v25c2 11 7 17 8 23c2 4 2 18 -1 22c-8 0 -15 -6 -25 -12
c-8 -5 -16 -8 -24 -13l-36 -29s-18 -13 -20 -14l-20 -16c-8 -5 -17 -17 -28 -10c3 39 -6 23 34 60l44 38c18 17 105 97 131 94c13 -2 27 -10 32 -17s-10 -87 -12 -95v-18c-11 -44 -20 -58 -31 -89zM612 436h20c14 -8 4 -26 -2 -36l-65 -141c-4 -10 -7 -21 -12 -31l-11 -23
c-6 -18 -9 -28 -9 -57c4 -7 22 -14 26 -15c8 0 20 -2 28 -6c4 0 13 -2 27 -2c7 0 21 -1 28 4l17 80c8 35 6 32 11 54c8 32 2 27 33 45c5 0 18 -5 23 -7c6 -2 17 -6 23 -15v-9l-20 -56c-2 -3 -4 -11 -6 -16l-12 -40c-2 -5 -10 -30 -6 -36c13 1 16 0 29 4c4 3 23 6 28 6l6 -6
v-13c-6 -8 -8 -8 -18 -12l-4 -2l-5 -4l-10 -5l-38 -16c-11 -9 -11 -26 -14 -36c-5 -13 -6 -26 -11 -39l-7 -30l-2 -16c0 -4 1 -5 -9 -12c-5 -2 -22 -17 -31 -14l-6 4c0 17 0 24 1 30l5 28c2 8 4 18 5 27l6 39c-5 7 -29 7 -34 5c-9 0 -22 -1 -34 -1c-15 0 -56 7 -68 20
c-28 28 -2 128 4 150c12 47 18 64 39 113l-5 8c22 57 24 57 80 79z" />
    <glyph glyph-name="summation" unicode="&#x2211;" horiz-adv-x="777" 
d="M590 712c2 -7 4 -13 -1 -23l-22 -59l-10 -31c-5 -11 -2 -18 -11 -31l-12 -26c-7 -17 -3 -11 -13 -28c-7 -12 -7 -16 -11 -27l-13 -21l-10 -15l-168 -309c-2 -6 -5 -14 -7 -21l-35 -56l-18 -35l-7 -17c-12 -26 -21 -56 -23 -61c-3 -8 -8 -23 -15 -29
c-13 -13 -17 -8 -32 -12c-21 56 -9 85 19 143l8 14c2 4 19 34 22 39l43 91l28 63l46 79c4 10 11 23 16 35l97 191l8 24l3 4l2 6l3 5l4 7c0 11 8 25 15 36c4 6 7 12 11 18c2 4 4 13 10 18c3 3 33 15 36 16c8 6 28 15 37 12zM243 469l1 -11l-12 -27
c-18 -60 -31 -133 -109 -168c-8 10 -3 16 0 24l5 14c3 6 7 12 8 17l38 122c13 45 18 71 21 83l6 34c0 3 2 18 4 22c0 3 1 16 -2 21c-12 0 -14 -6 -25 -13c-7 -3 -15 -7 -24 -13l-31 -26l-26 -18l-19 -14c-9 -8 -17 -15 -27 -11c3 39 -6 24 31 59l74 66c19 15 83 73 105 69
c10 -1 24 -9 30 -18c5 -8 -10 -87 -12 -95v-20c-2 -7 -22 -66 -36 -97zM562 42c20 -3 26 -7 45 -7h16c12 0 25 1 38 1h77c5 0 11 6 16 -1c0 -15 -3 -24 -22 -30c-12 -12 -24 -14 -37 -14c-40 -5 -56 -15 -115 -15c-18 0 -43 -1 -59 2c-10 3 -20 5 -29 8c-9 4 -15 12 -15 26
c-7 11 -1 17 4 25c8 15 5 9 19 25l72 79c9 9 116 122 104 155c-6 19 -42 31 -64 34c-15 2 -69 3 -87 -24c-4 -5 -4 -15 -7 -20c-4 -10 -9 -13 -18 -13c-13 21 -18 20 -21 42c0 4 0 5 2 10l-2 5l-1 6l1 5l3 7c1 2 1 7 3 11c8 16 17 21 46 34c19 4 159 12 193 -45
c36 -60 -27 -132 -84 -200l-64 -77c-11 -15 -19 -14 -14 -29z" />
    <glyph glyph-name="integral" unicode="&#x222b;" horiz-adv-x="825" 
d="M621 717c7 -10 5 -14 0 -25l-20 -60c-1 -4 -5 -11 -6 -16c-2 -6 -4 -11 -5 -17c-3 -11 -3 -21 -10 -33l-10 -21c-2 -3 -5 -9 -5 -15c-3 -4 -5 -8 -9 -14c-4 -4 -11 -22 -11 -28l-12 -19c-9 -9 -8 -9 -13 -18l-105 -196l-2 -4l-1 -4l-5 -7l-52 -93c-4 -7 -2 -15 -10 -26
l-30 -53c-3 -5 -14 -25 -17 -31l-13 -28l-23 -58c-5 -11 0 -16 -15 -30c-14 -11 -18 -5 -30 -9l-4 3c-16 65 0 90 22 139l8 16c2 3 3 3 5 9l8 10c1 3 1 4 5 9l5 10l41 89c2 4 23 55 24 55l51 87l15 36l98 190l7 23c5 12 1 10 11 24c29 77 31 83 108 105zM187 485
c8 -10 16 -10 31 -16c1 -1 10 -5 15 -7c4 -2 3 -1 7 -1l4 -1l5 -2c18 -6 47 -17 58 -42c8 -16 8 -34 0 -46c-29 -47 -173 -108 -206 -110c-3 0 -6 -1 -16 3c-6 -3 -10 -3 -17 -6c-9 0 -27 3 -27 18l113 62c5 4 23 15 26 16l25 14c4 2 8 5 12 8c1 1 8 3 11 6c8 12 14 8 14 22
c-5 5 -6 5 -14 8l-19 5c-15 6 -21 4 -32 9l-27 9c-15 5 -26 5 -35 19c1 4 0 17 2 22c5 15 5 9 16 22l62 69c20 24 22 32 38 57c-5 7 -12 8 -19 8h-20c-24 -1 -17 -1 -42 -5c-7 0 -14 -3 -20 -3c-6 -1 -12 -3 -21 -5l-5 -1l-5 -1c-2 -2 -6 -4 -10 -4c-12 -4 -9 -7 -22 1
c-4 11 2 25 7 38c6 17 8 24 25 33c23 13 135 29 180 10c14 -6 26 -15 29 -30c5 -30 -62 -99 -76 -116l-22 -25c-11 -17 -19 -22 -25 -38zM666 436l2 -3c3 -10 -2 -12 -6 -21l-9 -19l-12 -23l-46 -104c-4 -10 -48 -95 -28 -118c19 -20 85 -17 106 -14l14 78c4 19 10 90 39 99
c9 3 16 2 27 -2c7 -2 20 -9 24 -18l-19 -64c-2 -4 -3 -12 -5 -18l-13 -36c-3 -11 -5 -17 -5 -21l-2 -5l-1 -5c0 -6 -2 -4 5 -8c4 0 14 2 19 3c6 0 16 4 20 6h15l7 -4v-14c-5 -5 -18 -11 -25 -16c-6 -4 -14 -6 -23 -10l-5 -1l-7 -5c-6 -3 -6 1 -12 -4c-11 -7 -13 -10 -13 -22
c0 0 -18 -68 -25 -109l-9 -7l-5 -3l-6 -3c-6 -6 -14 -10 -24 -4v30l6 32c1 9 3 15 5 27v40l-12 3c-54 2 -92 -11 -121 18c-19 20 -10 77 -6 97c14 81 33 127 50 167l-5 6c18 50 24 60 72 75c6 5 23 8 33 0z" />
    <glyph glyph-name="ordfeminine" unicode="&#xaa;" horiz-adv-x="284" 
d="M166 471l13 -10c28 -15 85 -22 95 -63c5 -22 -3 -37 -32 -62c-46 -38 -110 -71 -189 -76l-9 17l81 48c6 2 16 9 22 15l24 14c12 7 21 13 44 35l-1 5c-5 7 -6 6 -13 9h-14c-12 6 -14 6 -27 10l-24 8c-6 2 -24 6 -31 17c2 23 -5 17 13 42l24 29c2 2 17 22 20 27l13 15
c15 21 16 25 30 47c-6 8 -24 10 -34 6c-8 0 -23 -2 -34 -4c-14 -3 -54 -11 -69 -16l-6 6c3 20 7 51 32 64c21 10 111 26 149 9c15 -7 22 -11 25 -28c5 -28 -55 -96 -62 -106l-18 -23c-16 -21 -18 -26 -22 -35z" />
    <glyph glyph-name="ordmasculine" unicode="&#xba;" horiz-adv-x="409" 
d="M128 627l-9 4v5l15 18c-26 -22 -43 -29 -33 -60c4 -11 17 -26 39 -52c18 -21 25 -27 30 -53l6 -4v-11c-12 -10 -45 -42 -61 -52c-16 -11 -27 -14 -32 -15c-5 -2 -23 -1 -30 10v8c6 10 17 14 33 24c7 3 28 17 36 12c0 0 -11 -9 -9 -13l20 13l-4 1l-1 7l8 7
c-27 65 -75 70 -77 115c-2 36 22 59 63 86c18 12 46 24 54 20c2 -1 8 -7 8 -17c-1 -19 -31 -37 -56 -53zM257 700l8 -12v-33c1 -23 3 -32 4 -34c1 -4 5 -23 11 -34c4 -10 10 -23 29 -23c29 25 45 44 54 57c7 10 12 20 19 30c6 15 18 20 27 24l8 -6c0 -16 -3 -46 -8 -71
l-23 -110l-8 -36l-25 -19l20 153l1 4v2l2 4l-4 3c-18 -23 -55 -72 -81 -71c-16 1 -26 14 -41 41l-18 -115c0 -14 2 -11 -7 -25h-18c0 7 -1 11 -1 18l11 156l3 33v17c3 34 5 29 37 47z" />
    <glyph glyph-name="Omega" unicode="&#x3a9;" horiz-adv-x="805" 
d="M627 724c5 -8 4 -16 1 -24l-20 -59l-20 -66l-12 -23c-4 -11 -5 -17 -12 -28c-8 -11 -6 -17 -11 -27l-11 -19c-5 -7 -10 -12 -14 -24l-101 -194c-3 -7 -1 -5 -8 -14l-50 -93c-1 -4 -8 -23 -11 -28l-31 -55c-4 -8 -9 -20 -13 -29l-14 -28c-7 -14 -10 -32 -22 -59
c-4 -12 -1 -17 -17 -29c-10 -7 -20 -10 -31 -6c-17 63 -2 90 21 139l6 14l13 21c2 5 9 14 12 22l37 87c6 18 4 11 12 27c4 11 5 18 11 30l48 81l18 41l93 192l7 22c4 10 6 12 12 24c0 12 5 24 14 36l3 4l2 5c3 4 2 3 7 9c0 1 6 16 9 19c5 5 27 15 36 19c5 4 27 15 36 13z
M140 343c60 -15 42 -8 104 -7h15c10 0 20 3 30 3h44c0 -12 2 -21 -14 -30l-3 -1l-4 -3c-1 -2 -4 -5 -9 -8c-1 0 -13 -4 -16 -5c-37 -8 -179 -34 -218 -6c-12 9 -12 18 -16 31c12 25 16 31 27 45l76 86c1 1 103 113 97 142c-2 9 -9 18 -28 27c-27 11 -80 15 -104 1
c-9 -3 -19 -14 -22 -23c-5 -14 1 -13 -17 -26h-7c-16 25 -20 31 -21 44c-2 16 0 34 8 46c27 41 91 39 127 35c28 -3 96 -9 116 -58c22 -59 -33 -122 -80 -180l-71 -88c-14 -14 -8 -8 -14 -25zM652 201c3 -9 22 -14 30 -17c7 -3 6 -1 14 -6c3 -1 9 -2 17 -4
c19 -7 48 -18 60 -40c6 -13 8 -33 1 -48c-24 -45 -164 -106 -196 -112c-2 0 -6 0 -17 -1c-11 4 -7 4 -18 0c-9 -3 -27 -3 -35 9v8l109 58c7 5 10 5 15 9l38 22c9 5 16 10 38 29v8c-6 10 -9 7 -17 10h-17c-15 5 -19 10 -28 12l-31 9c-11 3 -23 4 -33 18c0 22 -5 21 13 45
l24 26c11 13 18 21 21 24l25 31c17 21 17 27 30 48c-55 14 -99 -2 -157 -17l-8 6c3 23 6 57 36 72c22 11 135 30 179 9c14 -5 25 -16 27 -30c3 -28 -44 -76 -73 -111l-18 -23c-21 -26 -11 -17 -29 -44z" />
    <glyph glyph-name="ae" unicode="&#xe6;" horiz-adv-x="614" 
d="M366 387c10 -11 21 -9 18 -29c-2 -7 -7 -16 -27 -33c-7 -5 -12 -7 -18 -14c-1 -2 -10 -13 -14 -16l-137 -139c-9 -9 -14 -12 -22 -25l-8 -13l-2 -6l4 -5c14 0 11 4 33 20l30 26c5 5 8 6 14 12l15 14c18 13 14 6 29 26l20 19c20 16 27 17 53 10c12 42 99 131 144 137
c18 2 43 -4 56 -26c4 -8 6 -40 7 -48c-30 -54 -61 -90 -123 -135c-3 -5 -2 -4 -8 -10c0 0 -9 -4 -12 -8c0 -1 -4 -7 0 -20s17 -35 39 -42c35 -11 130 44 165 67c0 -5 0 -5 -3 -10c0 -4 2 -6 3 -9c-3 -8 -3 -12 1 -21c0 -23 2 -19 -24 -37c-53 -36 -142 -85 -196 -60
c-44 19 -74 42 -80 87c0 8 1 8 -1 13c0 3 0 10 -1 14c0 7 -2 20 -6 27c-6 0 -16 -7 -20 -10c-13 -8 -9 -6 -19 -16l-24 -18c-47 -42 -112 -113 -161 -105c-11 5 -26 4 -32 23c-7 15 -3 29 5 57l-9 5c-1 28 -12 51 13 76l18 14c12 11 30 28 35 33c15 15 9 18 27 31
c2 2 11 9 17 14c4 4 14 15 16 17c5 3 32 20 36 25l52 45c37 28 49 40 97 43zM439 249c-12 -12 -22 -23 -22 -38c6 -4 15 -1 21 5c3 5 15 13 18 16c16 16 18 21 25 38l-5 8c-22 -14 -20 -10 -37 -29z" />
    <glyph glyph-name="oslash" unicode="&#xf8;" horiz-adv-x="416" 
d="M447 337c-5 -33 -16 -40 -40 -69c0 -43 2 -72 -43 -142c-15 -25 -64 -88 -119 -118c-29 -17 -64 -17 -96 -13c-3 -4 -14 -18 -25 -30c-14 -12 -14 -17 -33 -17c-8 39 -15 34 21 74c-10 24 -15 35 -14 57c0 0 5 27 5 29c0 0 2 13 2 14l3 8l-1 4l-3 2
c-7 -2 -21 -14 -28 -21c-7 -8 -21 -22 -30 -27c-1 76 -15 47 61 122l80 73c9 9 17 17 23 26c14 13 17 10 24 22c5 3 14 8 27 8c6 -3 20 -1 26 -11l-9 -28c35 18 47 21 88 11c39 32 36 35 81 26zM354 50l4 7l5 6l28 32c14 9 11 10 20 20l38 40c10 0 11 -11 12 -14
c-3 -7 1 -14 4 -19c1 -27 -18 -34 -44 -54c-2 -1 -56 -37 -62 -41h-7l-7 5v8c3 6 4 6 9 10zM327 192l-6 -5c-4 -5 -10 -9 -12 -12c-11 -8 -12 -10 -21 -23l-13 -11c-1 -3 -16 -20 -17 -21c-6 -8 -12 -17 -16 -22l-28 -37c85 33 104 60 120 130zM287 228c-1 0 -8 -1 -20 -8
s-10 -5 -20 -15l-15 -21c-5 -6 -13 -9 -20 -14c-4 -5 -9 -16 -11 -21c-4 -11 -4 -9 -11 -19c0 -1 -3 -17 -3 -21c8 0 12 6 19 13l18 17c5 7 12 15 17 19l32 34c4 2 20 16 20 17l15 16c-3 2 -19 3 -21 3z" />
    <glyph glyph-name="questiondown" unicode="&#xbf;" horiz-adv-x="347" 
d="M276 418c17 4 26 2 33 -6c5 -4 2 -9 3 -14c3 -8 4 -7 1 -16c-6 -18 -70 -73 -89 -79c-8 -3 -33 -3 -42 5c-6 4 -11 13 -8 29c3 18 29 57 53 68c11 4 12 4 24 6c10 0 14 4 25 7zM206 243c-5 -44 -14 -43 -33 -90l-25 -65c-18 -61 -42 -107 -19 -158c7 -15 24 -34 45 -52
l27 -20s21 -18 27 -13c3 19 -2 16 -2 38c6 8 11 10 22 3c4 -3 12 -9 21 -20c9 -8 8 -12 16 -23c10 -17 12 -13 20 -24c9 -16 5 -23 0 -40c0 -2 -6 -36 -9 -39c-6 -10 -18 -17 -37 -15c-43 3 -192 71 -224 131c-46 84 -2 159 40 243l44 80c16 38 7 55 54 66c15 4 22 10 33 -2
z" />
    <glyph glyph-name="exclamdown" unicode="&#xa1;" horiz-adv-x="229" 
d="M159 420c9 -6 13 -23 13 -30c2 -17 6 -13 -7 -32c-4 -6 -17 -21 -27 -30c-14 -12 -11 -10 -28 -10c-19 1 -31 5 -36 13c-4 6 -1 52 4 65c0 16 17 17 29 17l26 5c6 0 17 2 26 2zM135 282l5 -7l-3 -48c0 -29 2 -38 1 -48l-12 -121c-1 -5 -9 -29 -9 -35l-10 -76
c-1 -5 -1 -15 -1 -22c0 -5 -1 -13 4 -21h14l-8 -74c-15 -90 18 -57 -68 -125c-13 -11 -22 -16 -28 -19c-7 -4 -25 -5 -31 0c0 4 -2 25 0 39v14c6 29 9 27 14 55v23c0 7 4 14 4 21l3 20l19 132c0 11 4 16 4 22c1 5 4 14 6 21l23 115l3 18v23c0 8 6 18 6 27c0 11 1 14 13 26
c25 33 20 23 51 40z" />
    <glyph glyph-name="radical" unicode="&#x221a;" horiz-adv-x="297" 
d="M49 550l36 -16c14 -10 14 -3 33 -16l24 -11c15 -6 27 -19 37 -19c21 12 55 36 55 36c14 8 15 8 29 14c15 12 18 10 29 3c4 -14 8 -18 0 -29c-5 -8 -20 -16 -27 -22c-20 -14 -86 -65 -109 -57c-15 5 -107 61 -111 76v20c0 8 -5 13 4 21z" />
    <glyph glyph-name="florin" unicode="&#x192;" horiz-adv-x="581" 
d="M424 557v-14c-5 -17 -10 -20 -14 -34l-39 -145c0 -3 -3 -14 -1 -19h16c15 1 9 2 24 1c1 0 5 0 13 -2c8 3 8 2 12 4c1 0 22 2 25 2c16 0 9 -4 25 2h16c-5 -11 -10 -17 -12 -20c-4 -5 -6 -14 -9 -19c-15 -24 -14 -20 -36 -23c-17 -3 -63 -7 -82 -13c-23 -8 -18 -9 -20 -32
c-4 -24 -5 -29 -9 -43l-15 -51c-6 -15 -15 -63 -18 -79l-5 -36c-14 -66 -17 -65 -28 -102c9 -15 6 -19 -2 -37c-3 -10 -6 -16 -7 -19c-3 -6 -8 -12 -11 -18c-3 -10 -2 -9 -3 -18c0 -10 0 -11 -3 -20c-2 -5 -8 -22 -17 -38c-32 -50 -84 -82 -141 -80c-1 0 -11 2 -16 4
c-4 -2 -10 -4 -16 -4c-10 1 -19 6 -32 10c-3 9 0 28 0 36l-3 7c0 15 -1 14 2 22c0 3 0 6 1 11c0 6 0 8 2 13c0 13 0 15 10 22c3 2 7 4 12 6l5 4h6c12 -4 9 -12 14 -22c8 -11 4 -16 20 -19c3 2 4 3 11 3l6 2l6 3c11 3 12 -2 23 6c33 25 66 157 70 175l9 26l6 52
c8 11 6 14 9 25l21 101c3 10 4 17 9 29l6 45c-5 0 -5 -2 -10 -2l-10 2c-5 0 -6 1 -11 -1c-4 -2 -5 1 -10 1c-12 -7 -9 -1 -21 -5c0 0 -13 -6 -22 0c1 8 9 69 24 75c7 3 10 -5 18 -5c2 0 14 3 18 1c19 0 29 1 37 5c21 11 21 47 26 71l24 107c9 50 35 142 96 170
c0 0 18 5 27 9l12 3c3 0 11 -3 14 -3c12 1 41 13 53 8c14 -7 17 -16 20 -42c2 -22 10 -65 -12 -82c-9 -8 -17 -10 -23 -7c-9 5 -7 13 -13 21c-4 11 -5 10 -17 14c-9 3 -26 2 -37 -7c-6 -4 -7 -8 -10 -17c-2 -6 -8 -13 -13 -20z" />
    <glyph glyph-name="approxequal" unicode="&#x2248;" horiz-adv-x="783" 
d="M607 721c6 -8 5 -13 1 -24l-21 -62c-2 -6 -8 -25 -10 -32l-11 -33l-11 -23l-4 -6v-4l-1 -4l-4 -6l-1 -4l-3 -4c-12 -16 -5 -12 -12 -27l-12 -21c-4 -3 -10 -14 -12 -18l-104 -196c-1 -1 -7 -13 -9 -16l-53 -92c-2 -4 -6 -20 -9 -25l-31 -56c-4 -5 -12 -23 -16 -28
l-15 -31c-7 -17 -10 -31 -22 -58c-4 -11 0 -17 -15 -30c-6 -4 -13 -9 -29 -9c-22 56 -8 86 20 145l6 14c2 3 9 14 12 19c2 4 4 7 6 10l5 11l40 87c15 29 8 26 25 57l50 85l15 36l98 192c6 15 5 12 9 23l11 26c34 85 30 80 107 104zM328 682v-4c-21 -37 -26 -44 -68 -50h-19
c-25 -2 -87 -3 -107 -33c-12 -16 -23 -42 -20 -57c7 -26 64 -56 84 -68l18 -10c49 -32 96 -48 92 -102c-3 -32 -32 -49 -68 -62c-59 -21 -120 -36 -196 7l1 11l20 5c54 8 121 17 175 51v5c-8 12 -25 25 -29 28l-47 31c-24 16 -102 61 -107 104c-5 39 12 94 47 134
c22 24 77 19 103 20h51h37c8 0 25 10 33 -10zM639 420c43 -2 90 -9 119 -58c17 -31 14 -85 -10 -126c-29 -47 -54 -66 -85 -100l1 -3c35 -36 53 -49 43 -91c-8 -31 -56 -63 -89 -73c-39 -12 -76 -14 -104 11c-14 13 -16 31 -13 53c8 42 54 83 80 109c-38 28 -86 55 -80 105
c2 12 7 25 19 40c7 8 8 13 18 19c4 2 13 7 21 2c-15 -61 -5 -71 51 -130h4c25 23 113 127 106 158c-4 17 -12 17 -26 21c-22 5 -55 0 -85 -7c-12 -3 -18 -5 -43 -15c-3 -1 -17 -6 -21 -9c-5 -2 -15 -1 -22 4c-5 12 1 21 13 33c6 7 16 16 32 26c28 18 41 21 71 31zM559 19
c-1 -9 1 -14 10 -20c10 -7 26 -4 43 2c22 9 41 22 46 41c3 12 -1 24 -5 31c-6 8 -20 25 -27 27c-19 -18 -66 -71 -67 -81z" />
    <glyph glyph-name="guillemotleft" unicode="&#xab;" horiz-adv-x="440" 
d="M250 359l24 -14v-11c-64 -47 -117 -104 -147 -150c-6 -38 33 -110 60 -148c-5 -8 -23 -17 -36 -17c-22 -5 -30 -5 -37 -1c-20 12 -69 113 -70 135c-5 53 86 124 128 165l15 14c19 17 34 24 63 27zM440 321c-26 -13 -79 -58 -95 -74c-9 -6 -8 -10 -15 -21
c-10 -13 -14 -16 -22 -23c-9 -8 -33 -33 -35 -50c-1 -4 0 -10 5 -23l4 -6l2 -6c2 -5 2 -7 2 -12c15 -17 19 -26 42 -62c0 -13 -5 -20 -20 -25c-22 -7 -12 -10 -34 -10c-59 61 -98 84 -78 164c29 46 163 173 213 172c5 -2 4 -2 9 1c1 0 9 -2 12 -3c0 -1 10 -13 10 -22z" />
    <glyph glyph-name="guillemotright" unicode="&#xbb;" horiz-adv-x="439" 
d="M187 361c69 -70 89 -72 83 -151l-4 -13c-29 -47 -159 -170 -210 -171c-7 0 -12 -2 -19 -2c-8 3 -8 12 -14 18v8c18 9 72 50 94 71c10 7 8 10 15 21c3 4 13 18 19 23c24 25 37 40 39 47c1 5 -3 20 -5 26c-4 10 -13 12 -9 26c-28 30 -12 15 -35 47l-8 14c0 17 1 13 20 25
c3 2 12 6 16 9c11 4 7 -1 18 2zM189 21v15c32 22 137 110 147 158c6 33 -38 98 -57 129v16c15 7 53 23 71 11s67 -110 68 -135c2 -63 -133 -169 -143 -176c-38 -33 -48 -31 -86 -18z" />
    <glyph glyph-name="Agrave" unicode="&#xc0;" horiz-adv-x="498" 
d="M392 727c7 -2 26 -3 32 -14l-20 -76c1 -2 3 -3 6 -6c7 -6 4 -4 11 -9c10 -6 10 -4 20 -9c17 -8 28 -13 35 -26c10 -20 9 -31 14 -81l6 -73c1 -1 0 -12 0 -15v-15c0 -9 -1 -17 -1 -26v-25c0 -7 -3 -20 -1 -26c0 -13 0 -9 15 -20c5 -11 0 -19 -3 -31l-15 -12
c0 -6 2 -11 2 -16l-11 -116l-5 -23c0 -8 1 -15 1 -23l-6 -23c-2 -5 -4 -17 -4 -22c0 -7 -2 -14 -5 -23c-2 -6 -4 -21 -4 -23c-1 -2 -4 -11 -18 -22c-3 -2 -13 -13 -24 -13c-7 5 -8 20 -8 27v37c-1 4 1 11 1 16v134c0 8 4 17 4 25v16c0 1 -2 25 -4 28c-9 0 -9 2 -20 -5
l-16 -5c-6 -2 -44 -6 -47 -7l-22 -7c-8 -4 -17 -4 -25 -7c-44 -15 -51 -28 -94 -36c-9 -36 -11 -38 -27 -73l-9 -34c-7 -16 3 -9 -7 -24l-5 -16c-2 -3 -6 -8 -6 -15v-22l-5 -6l-1 -4l-2 -4l-9 -27c-4 -5 -5 -8 -10 -14c-6 -5 -6 -4 -14 -7c-11 -3 -17 -4 -30 1
c-3 24 -3 35 2 53l36 133l7 22v14l-24 5c3 38 -3 82 37 102c4 1 21 5 25 9c7 7 7 18 9 26c3 10 22 47 23 50l6 28c3 6 4 12 7 18l34 107c13 38 27 71 48 97l-10 11c2 12 -5 24 12 37c1 1 34 10 37 12l4 4l2 6c6 7 5 7 7 13c5 13 3 7 19 17c13 10 9 8 25 14c15 10 10 8 25 19
zM360 954c60 -88 95 -93 179 -130v-10l-22 -14l-62 21c-14 5 -17 7 -26 9l-19 12c-7 2 -16 9 -26 15c-5 4 -22 12 -28 13c-23 12 -24 16 -41 44c2 14 -3 20 11 32c11 8 23 7 34 8zM317 498c0 -9 -2 -14 -7 -22l-3 -6l-1 -5c-2 -4 -4 -7 -7 -11c-3 -7 -6 -16 -9 -21
c-9 -10 -10 -12 -14 -21l-28 -82c-3 -8 -2 -6 -10 -16c-2 -4 -6 -14 -8 -17v-18v-2h4l4 1h4l52 5c9 0 17 3 25 3h31c4 0 59 15 62 15v29c0 10 -3 21 -3 29v37c-1 6 -1 15 -1 20v29c0 6 1 13 1 17c-24 40 -21 42 -64 66c-9 -6 -23 -22 -28 -30z" />
    <glyph glyph-name="Atilde" unicode="&#xc3;" horiz-adv-x="498" 
d="M389 727c7 -2 26 -3 32 -14l-20 -76c1 -2 3 -3 7 -6c6 -6 3 -4 10 -9c10 -6 10 -4 20 -9c17 -8 28 -13 35 -26c10 -20 9 -31 14 -81l6 -73c1 -1 0 -12 0 -15v-15c0 -9 -1 -17 -1 -26v-25c0 -7 -3 -20 -1 -26c0 -13 0 -9 15 -20c5 -11 0 -19 -3 -31l-15 -12
c0 -6 2 -11 2 -16l-11 -116l-5 -23c0 -8 1 -15 1 -23l-6 -23c-2 -5 -4 -17 -4 -22c0 -7 -2 -14 -5 -23c-2 -6 -4 -21 -4 -23c-1 -2 -4 -11 -18 -22c-3 -2 -13 -13 -24 -13c-6 5 -7 20 -7 27v37c-2 4 1 11 1 16v134c0 8 3 17 3 25v16c0 1 -2 25 -3 28c-10 0 -10 2 -21 -5
l-16 -5c-6 -2 -44 -6 -47 -7l-22 -7c-8 -4 -17 -4 -25 -7c-44 -15 -50 -28 -94 -36c-9 -36 -11 -38 -27 -73l-9 -34c-7 -16 3 -9 -7 -24l-4 -16c-3 -3 -7 -8 -7 -15v-22l-5 -6l-1 -4l-2 -4l-9 -27c-4 -5 -5 -8 -10 -14c-6 -5 -6 -4 -14 -7c-11 -3 -17 -4 -30 1
c-3 24 -3 35 2 53l36 133l7 22v14l-24 5c3 38 -3 82 37 102c4 1 21 5 25 9c7 7 7 18 9 26c3 10 22 47 23 50l6 28c3 6 4 12 7 18l34 107c13 38 27 71 48 97l-10 11c2 12 -5 24 12 37c1 1 34 10 37 12l4 4l2 6c6 7 5 7 7 13c5 13 3 7 19 17c13 10 9 8 25 14c15 10 10 8 25 19
zM444 905l15 -21v-27l6 -8c7 0 7 1 20 6l19 5l18 4c16 9 13 5 28 16c8 5 21 8 30 4c1 -4 0 -26 -5 -29c-8 -13 -13 -15 -28 -22c-13 -7 -123 -38 -136 -31c-9 6 -11 17 -15 45c-5 8 -13 7 -19 9c-9 -1 -12 -4 -21 -8l-14 -8l-4 -1l-5 -2c-1 -1 -7 -3 -10 -4
c-6 -2 -17 -10 -19 -11c-6 -3 -10 -4 -19 -7c-4 -3 -10 -8 -19 -4c2 25 -6 31 24 49c43 24 109 50 154 45zM314 498c0 -9 -2 -14 -7 -22l-3 -6l-1 -5c-2 -4 -4 -7 -7 -11c-3 -7 -6 -16 -9 -21c-9 -10 -10 -12 -14 -21l-28 -82c-3 -8 -2 -6 -10 -16c-2 -4 -6 -14 -8 -17v-18
v-2h4l4 1h4l52 5c9 0 17 3 26 3h30c4 0 60 15 62 15v29c0 10 -2 21 -2 29v37c-2 6 -2 15 -2 20v29c0 6 1 13 1 17c-24 40 -21 42 -64 66c-9 -6 -23 -22 -28 -30z" />
    <glyph glyph-name="Otilde" unicode="&#xd5;" horiz-adv-x="560" 
d="M99 285l-14 -26h-14l-5 4c-5 12 4 23 4 36c0 11 0 23 9 35l11 21c31 54 25 46 48 99l25 71c3 10 5 13 11 31l8 23c7 17 14 26 25 45c4 13 5 11 16 22c3 1 6 3 10 7c3 5 7 8 12 10l18 -15c-2 -23 -3 -28 -8 -39c-2 -4 -8 -13 -10 -18c-2 -6 -1 -5 -1 -10
c-2 -4 -3 -5 2 -11c19 20 28 28 64 53c33 24 32 29 66 32c14 14 10 13 23 13c3 -1 7 -3 11 -6c4 0 8 -2 13 -2c2 0 7 1 11 -1c5 -3 5 -5 12 -5l5 -1l6 -2l13 -10c81 -60 116 -160 111 -241c-9 -125 -54 -203 -161 -315c-61 -64 -154 -121 -227 -105c-41 8 -64 28 -81 70
c-13 36 -15 86 -15 120c0 8 -3 20 -3 30c2 5 2 10 4 15c0 4 0 11 1 14c0 7 1 7 4 14c5 9 1 8 1 16c0 5 2 10 2 15v8l-3 3h-4zM471 840l15 -21v-28l6 -8c7 0 7 1 19 6l20 5l18 5c16 9 13 5 28 16c8 5 20 8 29 4c2 -4 0 -27 -5 -30c-8 -13 -12 -15 -27 -21
c-13 -7 -123 -38 -135 -31c-11 6 -13 17 -17 44c-5 8 -13 7 -18 9c-9 -1 -12 -4 -21 -8l-14 -8l-4 -1l-5 -1c-1 -1 -7 -3 -10 -4c-7 -2 -18 -10 -20 -11c-6 -3 -10 -4 -18 -7c-4 -3 -11 -8 -19 -4c1 25 -6 30 24 48c43 25 108 51 154 46zM395 548c-46 15 -95 -3 -128 -30
c-84 -67 -84 -234 -87 -304c-1 -37 8 -110 52 -144c20 -16 58 -6 72 -2c88 32 127 115 178 211c2 22 11 43 14 78c0 11 -5 33 -5 76c-22 41 -46 100 -96 115z" />
    <glyph glyph-name="OE" unicode="&#x152;" horiz-adv-x="834" 
d="M867 583h-19c-13 0 -8 1 -22 8c-33 6 -140 15 -173 -19c-3 -4 -6 -14 -10 -21c-1 -3 -2 -7 -4 -10l-3 -5l-4 -6c0 -11 -4 -13 -4 -29l-36 -138c0 -1 -4 -16 -4 -19c0 -8 -6 -11 5 -19c55 40 53 41 107 54c37 8 86 10 108 5c15 -4 23 -6 29 -25c5 -12 1 -47 -5 -55
c-4 -11 -20 -13 -28 -10c-47 2 -173 6 -220 -26c-23 -15 -26 -78 -30 -98l-6 -49c0 -2 -5 -26 -5 -30v-32l4 -5h23c66 3 52 -2 136 16c28 5 42 11 69 20c6 2 26 8 34 12c15 10 19 18 35 6c6 -19 -3 -19 -9 -38c-6 -9 -19 -21 -37 -31c-18 -12 -48 -25 -78 -38
c-63 -26 -156 -48 -220 -28v27l-27 10c-2 6 -4 14 -1 22c0 6 -3 14 -3 21v17c0 10 2 20 5 30c3 6 10 27 -3 27c-71 -82 -163 -151 -244 -151c-39 0 -63 2 -93 39c-37 45 -36 128 -23 232v36c-5 -2 -9 -7 -11 -14c-1 -4 -5 -11 -12 -15l-14 7c-5 18 -3 14 3 34
c3 20 -2 13 7 33l36 67c2 3 4 10 13 26c3 8 8 20 13 28c9 20 10 37 17 56l7 15c3 11 10 17 10 30l9 27c7 16 23 32 34 62c18 7 24 19 37 19c7 -5 7 -9 11 -22c0 -4 -5 -19 -6 -23c-1 -2 -3 -8 -4 -12l-4 -5l-5 -5c0 -2 -1 -8 -1 -12c-3 -5 -4 -5 -2 -11c10 0 13 7 20 15
c1 1 18 13 20 16l43 31c29 20 14 13 43 21c4 -1 16 6 22 9c8 3 14 3 22 -3c58 -8 86 -40 130 -100c5 4 6 7 12 15c4 6 11 12 14 15c6 14 7 18 21 27l16 12c60 39 52 55 116 66c27 4 93 8 120 1c12 -5 16 -6 23 -9c12 -9 9 -12 10 -24c2 -11 1 -27 -1 -39
c-3 -11 -2 -7 -2 -20c-3 -7 -2 -12 -11 -18zM410 543c-47 19 -83 10 -131 -23c-75 -49 -88 -200 -90 -255c-3 -73 -7 -153 45 -197c17 -14 18 -10 37 -9c18 2 30 5 37 7c45 14 91 64 107 82c47 53 38 63 65 115l9 14c3 17 11 41 13 75c0 10 -2 37 -2 73
c-13 25 -38 98 -90 118z" />
    <glyph glyph-name="oe" unicode="&#x153;" horiz-adv-x="557" 
d="M583 330c11 -22 22 -59 8 -81c-7 -10 -71 -55 -91 -65c-38 -18 -56 -14 -93 -37c3 -31 0 -51 28 -61c15 -5 58 1 85 18c10 6 27 19 44 31c7 4 14 9 22 14c6 5 12 13 21 8c0 -12 -7 -8 -2 -20c0 -8 4 -10 0 -21v-19l-24 -18c-89 -57 -127 -86 -181 -67
c-29 9 -49 30 -73 54l-9 -1c-28 -40 -90 -80 -130 -79c-25 0 -51 14 -64 41c-17 29 -12 92 -6 116l-4 -2l-3 -4c-5 -2 -3 -1 -9 -6c-5 -3 -13 -7 -20 -13c-4 -3 -13 -13 -19 -19s-11 -15 -18 -9v16v16v24c4 7 14 17 21 27c19 13 12 8 29 25l17 14c8 11 12 14 25 21
c1 1 11 6 14 9l2 4l3 4l8 7c9 9 17 15 28 18c5 2 23 3 28 10c-5 11 8 20 18 26c5 2 11 -1 16 -1c1 1 13 3 16 1c34 -5 59 -18 114 -46l20 12c9 0 16 9 23 19c9 15 14 10 26 18c9 4 17 7 27 12c13 8 15 9 26 9c15 11 25 5 39 5c21 -3 16 -4 38 -10zM493 257
c-15 3 -14 4 -27 -5c-9 -6 -8 -6 -10 -12c-5 -2 -12 -7 -13 -8c-6 -7 -15 -14 -19 -23c6 -6 20 1 24 3l6 3l6 4l6 2l5 2c4 1 8 1 12 2l6 3l5 3c10 4 17 7 21 14c0 10 -19 12 -22 12zM326 175l-12 18c-33 7 -39 8 -72 41h-5c-25 -40 -64 -132 -43 -169c9 -16 13 -17 27 -16
c5 1 51 23 57 31c7 17 0 11 18 28c6 6 6 6 9 16l3 3l3 4l6 7c5 13 5 23 9 37z" />
    <glyph glyph-name="endash" unicode="&#x2013;" horiz-adv-x="466" 
d="M49 256h22h36h14l25 -1h216h4h5c4 0 6 0 10 -1h22c8 0 18 2 27 2h30l6 -6v-23c0 -7 -1 -15 -1 -22v-16c-3 -5 -14 -6 -21 -6h-225c-8 0 -20 1 -30 1h-41c-27 -4 -35 -7 -52 -5l-25 5c-1 0 -25 0 -26 1c0 6 -1 31 0 36c-1 6 -4 29 4 35z" />
    <glyph glyph-name="emdash" unicode="&#x2014;" horiz-adv-x="667" 
d="M46 252c0 0 16 3 24 0h63c4 0 13 -1 20 -1h402c1 0 24 -1 27 -1h18c28 1 31 2 59 5l6 -6c-3 -43 1 -22 -1 -66c-9 -7 -16 -4 -22 -5h-23h-136l-16 4c-10 1 -13 1 -15 1h-14c-11 -4 -6 1 -17 -3v-5c-7 0 -17 -1 -22 -1h-14l-21 2c-9 3 -12 1 -21 4h-229
c-3 0 -34 -1 -39 -1h-26l-5 17s0 7 1 14v18c0 6 -1 15 -1 22z" />
    <glyph glyph-name="quotedblleft" unicode="&#x201c;" horiz-adv-x="311" 
d="M160 692c3 -10 4 -12 9 -24c-5 -15 -6 -10 -11 -24c0 -3 -4 -21 -6 -25c-6 -15 -5 -12 -9 -24c-11 -42 -7 -53 -12 -96c-2 -18 -1 -25 -20 -33c-15 0 -18 -3 -35 -13c-9 -3 -21 -4 -31 10c-3 37 0 32 14 76l16 38c15 35 19 57 28 72c21 36 14 43 57 43zM274 690h27
c6 -6 10 -17 10 -22s-4 -18 -6 -24l-12 -40c-5 -17 -13 -48 -15 -66c-1 -14 -1 -30 -9 -67l-4 -2l-5 -2l-5 -1l-5 -1c-5 0 -16 -5 -21 -8c-17 -7 -30 -9 -39 1c-13 16 32 122 38 138l12 34l18 30c0 7 5 22 16 30z" />
    <glyph glyph-name="quotedblright" unicode="&#x201d;" horiz-adv-x="313" 
d="M81 452h-26c-11 8 -8 9 -11 23c1 5 5 20 5 25l14 47c1 2 12 48 13 52l3 25c0 8 1 18 1 27l5 21c6 5 6 2 18 6c7 0 13 2 21 6c12 5 26 15 40 0c8 -9 6 -18 -6 -48c-3 -9 -4 -14 -7 -24l-2 -7l-2 -6c-2 -4 -5 -8 -6 -12l-25 -72c-7 -15 -18 -18 -18 -31
c-3 -9 -6 -25 -17 -32zM311 680c2 -19 2 -25 0 -30l-12 -31l-21 -54c-3 -5 -6 -11 -6 -18c-3 -6 -6 -12 -8 -18c-7 -21 1 -15 -14 -35c-22 -38 -12 -44 -54 -42c-1 0 -9 12 -9 20c-3 7 3 14 6 21v13c7 27 23 55 27 84c1 2 6 76 11 82c5 5 15 3 20 5l5 1l5 2l11 4
c4 4 13 9 20 6c7 0 10 -2 19 -10z" />
    <glyph glyph-name="quoteleft" unicode="&#x2018;" horiz-adv-x="166" 
d="M153 699c4 -3 10 -12 13 -21l-1 -5l-1 -6c-1 -1 -1 -5 -3 -13c-2 -10 -2 -12 -6 -24c-3 -9 -8 -15 -11 -23c-7 -22 -8 -45 -14 -97l-5 -30l-5 -2l-6 -3l-5 -3l-4 2c-9 0 -10 -1 -21 -9c-4 -7 -13 -9 -21 -7c-6 0 -13 3 -19 13c0 11 -1 15 1 27c0 6 2 20 9 21
c7 27 4 24 19 56l7 15c5 10 11 20 14 32c0 12 2 22 14 33c22 37 4 36 45 44z" />
    <glyph glyph-name="quoteright" unicode="&#x2019;" horiz-adv-x="169" 
d="M136 700h3l5 -2c6 2 9 1 9 1c7 -3 11 -3 14 -14c6 -11 -18 -77 -23 -89l-26 -62c0 -7 -4 -20 -7 -27l-11 -12l-1 -6l-1 -4l-3 -4c-1 -5 -7 -21 -15 -21c-12 -6 -14 -1 -27 -2c-4 9 -9 11 -9 22c-1 10 3 13 6 23l11 38c1 3 13 41 16 71c5 40 2 32 13 71c28 5 18 1 46 17z
" />
    <glyph glyph-name="divide" unicode="&#xf7;" horiz-adv-x="460" 
d="M454 720c9 -12 6 -12 2 -25l-22 -60c-3 -9 -7 -22 -10 -32s-5 -20 -9 -31l-13 -27l-2 -7l-1 -4l-1 -4c-2 -3 -6 -9 -9 -14c-7 -11 -7 -16 -10 -27l-8 -14c-2 -3 -7 -6 -13 -17c-1 -3 -6 -12 -9 -16l-13 -24c-5 -7 -8 -16 -11 -25l-8 -21c-8 -10 -11 -11 -13 -19l-52 -94
c-1 -3 -11 -22 -14 -27l-51 -97c-2 -6 -3 -9 -17 -23l-21 -42l-22 -48l-10 -23c-6 -17 -22 -81 -50 -85c-14 -2 -14 -2 -21 11c-15 30 14 112 44 163l24 45c4 9 9 23 13 36l12 23l12 27l20 42l13 24c1 1 14 21 17 24l11 19c3 8 7 16 9 24c1 1 4 7 5 11c4 8 6 12 6 13l10 19
l10 17l75 157c6 15 7 21 21 48c31 82 31 81 106 103z" />
    <glyph glyph-name="ydieresis" unicode="&#xff;" horiz-adv-x="455" 
d="M458 294c5 -12 3 -25 -1 -38l-13 -35c-2 -6 -6 -16 -9 -24l-19 -58c-2 -3 -4 -10 -7 -15l-7 -24c-2 -4 -12 -26 -3 -29c29 33 14 16 49 47c6 5 7 6 13 12c3 5 6 8 13 12c7 3 18 14 26 10c0 0 2 -34 2 -36c0 -18 1 -23 -19 -36l-38 -28c-39 -33 -87 -73 -127 -138l-23 -36
c-26 -43 -120 -192 -183 -189c-12 0 -21 -5 -27 12c-7 19 53 95 63 110l32 45c2 3 5 8 14 17c7 5 9 6 16 16l57 67c13 16 31 66 39 85l9 17s3 9 3 12c0 2 0 7 1 11c0 4 5 19 7 25c3 12 2 10 4 23c1 3 2 18 -2 23c-2 -1 -18 -14 -28 -19c-11 -9 -19 -10 -26 -27
c-24 -29 -25 -29 -55 -44c-18 -22 -30 -34 -49 -40c-26 -9 -28 -3 -53 5v25c0 6 -3 12 -3 18v27c0 9 -4 21 -7 32l-49 -39c-3 -3 -7 -8 -14 -8c0 10 1 9 4 20c0 4 1 4 1 9l-1 5l-2 5c0 23 -6 15 15 35l25 24c16 15 93 99 112 98c7 0 18 -4 26 -15c9 -16 -14 -78 -19 -96
c-1 -1 -4 -14 -7 -28c0 -6 -7 -19 0 -28h8c3 1 4 3 9 9l5 2l5 4c4 4 14 9 21 13c10 7 14 12 19 19c4 4 17 18 22 20l56 59c2 3 21 17 28 22c14 13 14 18 28 29c10 9 17 12 28 13c4 0 28 -4 31 -7zM295 412c5 -7 3 -7 3 -19v-22c-3 -9 -2 -10 -14 -15c-5 -2 -5 -3 -9 -8
l-5 -5l-6 -4l-16 3c-5 0 -10 -2 -15 -2c-10 -3 -19 1 -30 16c-7 10 -8 20 -5 28c4 11 25 35 44 40c12 3 22 -2 53 -12zM413 425c18 -13 31 -22 28 -42c-5 -18 0 -17 -16 -27l-4 -1l-4 -3l-1 -4l-3 -4l-14 -7c-20 -10 -22 -9 -41 3c-18 0 -21 24 -21 31c1 21 21 34 36 41
c7 4 14 10 21 12c7 3 12 0 19 1z" />
    <glyph glyph-name="Ydieresis" unicode="&#x178;" horiz-adv-x="453" 
d="M516 676c-6 -70 -7 -129 -50 -200c-3 -13 1 -13 -5 -25c-12 -12 -8 -14 -13 -26l-45 -81c-47 -72 -29 -42 -62 -116l-34 -76c-19 -41 -35 -110 -19 -152l-27 -24h-9c-8 -14 -28 -15 -30 -16c-9 -1 -26 1 -34 4c-15 6 -15 4 -17 21c0 3 15 64 28 91c0 16 2 22 7 39l7 19
c16 40 14 22 22 66c-28 21 -29 28 -43 60l-31 68v18c-22 80 -22 42 -36 124l-7 57c-3 28 -24 86 0 115c11 18 10 9 30 16c3 1 30 15 35 14c6 -1 32 -23 37 -32c3 -7 -3 -51 -3 -58c4 -11 3 -22 3 -30v-31c7 -74 3 -40 17 -117l15 -69c0 -12 -2 -13 5 -24c3 -4 13 -21 16 -24
c10 5 17 20 20 28l35 78l8 19l18 39c1 2 4 12 6 16l16 34l10 23c5 5 14 24 14 24l22 43c2 4 31 52 41 68c2 2 18 30 23 33c14 4 22 1 30 -16zM522 913h19c5 -3 11 -15 11 -21c4 -11 3 -15 3 -26c0 0 -18 -22 -19 -24c-13 -10 -13 -5 -26 -11c-2 -1 -8 -4 -11 -6
c-8 -4 -4 -2 -12 -7l-26 -10l-32 -14c-3 -1 -20 -6 -21 -7l-44 -19c-11 -5 -20 -10 -30 1c2 6 -1 15 6 23c5 7 20 13 26 16l67 36c8 5 29 23 46 33c22 15 27 18 43 36z" />
    <glyph glyph-name="fraction" unicode="&#x2044;" horiz-adv-x="453" 
d="M512 676c-6 -70 -7 -129 -50 -200c-3 -13 1 -13 -5 -25c-12 -12 -8 -14 -13 -26l-45 -81c-47 -72 -29 -42 -62 -116l-34 -76c-19 -41 -35 -110 -19 -152l-27 -24h-9c-8 -14 -28 -15 -30 -16c-9 -1 -26 1 -34 4c-15 6 -15 4 -17 21c0 3 15 64 28 91c0 16 2 22 7 39l7 19
c17 40 15 22 22 66c-28 21 -29 28 -43 60l-31 68v18c-21 80 -21 42 -36 124l-7 57c-3 28 -24 86 0 115c11 18 10 9 30 16c3 1 30 15 35 14c6 -1 32 -23 37 -32c3 -7 -3 -51 -3 -58c4 -11 3 -22 3 -30v-31c8 -74 3 -40 17 -117l15 -69c0 -12 -2 -13 5 -24c3 -4 13 -21 16 -24
c10 5 17 20 20 28l35 78l8 19l18 39c1 2 4 12 6 16l16 34l10 23c5 5 14 24 14 24l22 43c2 4 31 52 41 68c2 2 18 30 23 33c15 4 22 1 30 -16zM308 803c5 -8 3 -8 3 -20v-21c-3 -10 -2 -10 -14 -15c-5 -2 -5 -3 -9 -8l-5 -5l-6 -4l-16 3c-5 0 -10 -2 -15 -2
c-11 -3 -19 1 -30 16c-7 10 -8 20 -5 27c4 11 24 36 44 41c11 3 22 -2 53 -12zM426 816c18 -13 31 -23 28 -43c-5 -17 0 -16 -16 -26l-4 -2l-4 -2l-1 -4l-3 -4l-15 -8c-19 -9 -21 -8 -40 4c-18 0 -21 24 -21 31c1 20 21 33 36 41c7 4 14 10 21 12c6 3 11 0 19 1z" />
    <glyph glyph-name="currency" unicode="&#xa4;" horiz-adv-x="282" 
d="M207 653c30 -16 48 -25 54 -57c11 -49 -31 -101 -77 -163l-54 -72c-11 -15 -13 -11 -13 -26c55 -11 74 -6 129 -3h36v-10l-1 -4l-3 -5c-4 -10 -11 -7 -17 -14c-19 -13 -22 -8 -40 -12c-62 -13 -111 -26 -172 3l-5 28c8 19 13 26 19 35l63 73c22 28 97 112 88 142
c-6 17 -26 24 -48 30c-16 3 -60 2 -76 -14c-7 -7 -6 -12 -10 -20c0 -7 -3 -16 -14 -19c-10 3 -10 9 -16 18c-3 7 -5 13 -5 21c-1 10 -1 33 4 43c14 26 61 34 92 33c19 0 47 -4 66 -7z" />
    <glyph glyph-name="guilsinglleft" unicode="&#x2039;" horiz-adv-x="292" 
d="M182 32c-27 -13 -57 -25 -71 -17c-28 19 -69 120 -70 137c-3 51 58 104 95 138c30 27 76 73 111 65c15 -3 22 -8 23 -11c1 -4 2 -12 -6 -21c-8 -8 -72 -54 -79 -62c-10 -9 -7 -11 -14 -20c-3 -5 -15 -15 -19 -20c-13 -14 -22 -26 -26 -41c-12 -38 31 -101 49 -131z" />
    <glyph glyph-name="guilsinglright" unicode="&#x203a;" horiz-adv-x="308" 
d="M27 40l16 14c38 31 118 89 129 140c8 33 -30 92 -49 125l-9 22c21 10 53 30 75 13c21 -16 70 -104 64 -149c-5 -44 -34 -67 -65 -97c-13 -12 -96 -81 -103 -85c-14 -7 -23 -11 -37 -8c-20 7 -21 3 -21 25z" />
    <glyph glyph-name="fi" unicode="&#xfb01;" horiz-adv-x="572" 
d="M272 720h28c20 -43 20 -80 18 -125l-7 -44c-8 -59 -21 -151 -53 -211l-12 -22c-41 -69 -48 -159 -49 -183l-8 -103v-50v-27l-4 -53c2 -24 9 -29 12 -53c7 3 12 15 15 20l2 5l2 6c1 3 4 8 5 12c13 29 18 42 20 47l24 85c36 135 31 90 139 209l38 40c25 -3 46 -9 57 -30
c3 -6 11 -103 28 -121c11 -13 13 -11 28 -9c7 1 17 5 32 17c20 14 11 17 32 23v-41c0 -3 2 -9 2 -14c-42 -41 -87 -74 -123 -68c-22 3 -41 22 -55 50c-4 6 -28 65 -38 68c-11 4 -14 -5 -24 -13c-73 -61 -47 -51 -67 -123l-32 -125c-12 -35 -39 -126 -85 -164
c-55 3 -58 15 -68 68c-11 48 -8 39 -15 105l-6 112s3 20 3 22c0 7 1 15 1 22v81c-11 -7 -24 -17 -35 -24l-4 -2l-3 -3c-2 -2 -5 -5 -9 -7c-7 -7 -11 -12 -17 -7c1 16 4 43 4 58c43 38 90 107 90 149v60c10 102 5 56 29 153l8 33l10 23c3 8 4 16 7 24l14 32
c16 41 17 62 66 98zM548 551l13 -15c-5 -34 -12 -91 -59 -115c-16 -9 -26 -7 -53 -8c-15 33 -19 47 -5 71c5 8 13 17 25 27c4 5 7 7 14 9l6 3l1 4l3 3c15 14 24 17 55 21zM252 560c-29 -68 -57 -140 -41 -202c55 128 45 91 58 219v14z" />
    <glyph glyph-name="fl" unicode="&#xfb02;" horiz-adv-x="603" 
d="M301 717c20 -41 20 -80 17 -123l-5 -43c-2 -8 -2 -13 -3 -23c0 -8 -1 -16 -1 -23l-3 -5l-1 -6l-1 -5l-2 -6c0 -6 -2 -18 -3 -23v-15c-17 -53 -17 -64 -41 -109l-15 -23c-38 -64 -44 -142 -46 -177l-8 -112c0 -6 -1 -16 -1 -24c2 -5 1 -17 1 -24v-22c0 -2 -5 -39 -4 -53
l11 -53c8 3 11 12 15 20c5 11 2 11 10 24c13 30 19 45 20 47l24 85c6 22 16 70 28 92c23 37 56 42 80 84c7 12 2 7 4 20v9l2 5l3 7c-1 32 26 156 56 234l22 44c12 25 77 189 138 192c12 0 31 -6 41 -26c32 -66 -50 -233 -78 -299l-16 -31c-3 -9 -6 -10 -15 -21
c-3 -11 -3 -10 -9 -21l-14 -22c-2 -4 -7 -11 -12 -17l-12 -18c-2 -3 -12 -23 -14 -25c-5 -6 -17 -15 -20 -24c-3 -8 1 -31 8 -51c10 -27 25 -48 57 -56c58 -12 79 34 137 51v-51l-4 -6v-4l-1 -4c-53 -35 -142 -88 -202 -53c-46 27 -49 46 -63 101c-32 -28 -50 -41 -59 -73
l-41 -175c-17 -49 -40 -127 -84 -164c-25 0 -39 -1 -51 14c-3 3 -14 33 -19 52c-5 25 -10 79 -13 104l-6 113l3 23c0 4 -1 18 1 22v80c-9 -4 -33 -22 -35 -23c-6 -5 -27 -23 -33 -21c2 20 3 33 1 57c39 36 93 110 93 154v57c9 95 5 56 31 157l7 32c14 23 9 16 16 39l14 37
c18 45 34 110 95 98zM208 355c17 35 18 22 32 57c8 21 15 52 18 60c18 78 5 42 10 119c-5 -5 -5 -7 -8 -16l-5 -15c-33 -77 -55 -126 -47 -205zM456 304c9 1 24 20 27 27l6 14c68 128 44 73 79 202c-41 -42 -48 -49 -59 -78l-6 -22c-2 -11 -3 -16 -8 -26l-21 -54
c-9 -26 -13 -31 -18 -63z" />
    <glyph glyph-name="periodcentered" unicode="&#xb7;" horiz-adv-x="184" 
d="M64 72l-56 -151c-11 -28 -8 -17 -8 -44c5 -6 31 -12 35 -12l7 9l8 28l4 7l1 5c4 5 4 4 7 11l23 53c4 6 9 20 12 26l15 36c5 11 3 10 6 21l2 5l2 5c0 5 2 8 3 10l7 18c8 13 7 18 7 25c-11 12 -20 6 -32 6c-28 -25 -34 -38 -43 -58z" />
    <glyph glyph-name="quotesinglbase" unicode="&#x201a;" horiz-adv-x="275" 
d="M208 669c35 -25 54 -45 59 -82c1 -7 2 -85 1 -93c-3 -37 -44 -183 -113 -213c-19 -9 -52 -8 -76 10c-51 38 -43 131 -37 178c5 53 26 134 62 186h16v-24c35 33 42 40 88 38zM123 588c-38 -33 -32 -134 -26 -193c2 -20 15 -57 27 -64c8 -5 17 -3 26 1c41 21 74 115 77 143
c7 39 2 87 -23 113c-13 12 -39 18 -50 16c-5 -1 -28 -13 -31 -16z" />
    <glyph glyph-name="quotedblbase" unicode="&#x201e;" horiz-adv-x="333" 
d="M54 -96h-27c-8 5 -10 10 -10 23c0 6 4 19 6 25v21c3 11 23 66 25 76c1 10 1 67 13 77c0 0 12 3 14 3l15 5c12 3 19 11 31 9c10 -2 14 -3 18 -16c4 -10 -34 -113 -39 -124l-14 -40c-2 -6 -10 -14 -14 -20c-3 -7 -4 -13 -6 -20zM282 133c3 -42 -3 -43 -16 -81l-15 -33
l-8 -20l-14 -41l-30 -53c-16 -2 -21 -2 -32 -1c-3 7 -10 15 -10 24c0 0 3 7 6 13c2 4 3 8 4 13l16 50c4 15 7 27 9 49c0 5 2 20 4 26c1 10 -2 14 1 25c5 21 1 16 22 25c13 0 14 3 32 13c14 0 17 3 31 -9z" />
    <glyph glyph-name="perthousand" unicode="&#x2030;" horiz-adv-x="914" 
d="M541 715v-20l-26 -62c-10 -32 -17 -58 -18 -60l-11 -23c-5 -8 -7 -19 -13 -27c-9 -13 -8 -16 -12 -28l-13 -21c-4 -5 -5 -8 -10 -14l-104 -196l-3 -5l-1 -5c-3 -3 -5 -7 -8 -12l-50 -90c-5 -7 -8 -17 -8 -22l-38 -68c-31 -57 -16 -34 -38 -91l-13 -24l2 -8
c-4 -5 -17 -13 -22 -16c-7 -5 -13 -8 -22 -8c-23 66 0 99 22 147l8 17c4 5 9 15 11 20l13 21l40 89c7 16 0 8 10 24c7 16 11 23 12 26l58 103l1 4l3 4c0 2 1 5 3 9l92 180c3 11 6 22 10 32c1 2 7 13 9 17s4 11 5 16l11 36c16 46 21 30 69 52c5 3 24 13 31 3zM85 273l-3 6
l-14 7c-10 19 -5 12 -19 31v24c-4 76 -4 135 34 213c6 22 30 107 64 119c8 0 27 5 31 -5l-1 -9c8 0 7 7 15 12s13 7 18 9c2 0 7 1 17 1c11 -7 7 1 18 -3c25 -8 39 -50 45 -80c15 -80 -19 -230 -88 -310c-17 -20 -51 -36 -75 -32c-11 4 -10 5 -22 5l-6 3l-2 5l-5 3zM408 -20
l-5 7c-12 5 -13 3 -16 14c-4 9 -11 15 -14 23v25c-6 93 -5 94 14 160c5 19 38 136 58 157c6 6 16 13 28 16c5 2 21 2 27 -3v-11c11 9 22 18 35 21c3 0 32 0 37 -3c37 -21 45 -113 44 -141c-2 -53 -38 -220 -113 -268c-32 -21 -65 -14 -95 3zM696 -31l-17 11l-5 7l-6 1l-5 3
c-6 6 -1 4 -6 10l-5 11l-4 5l-4 6v25c-7 102 -2 111 12 158c4 15 43 142 58 158c3 4 13 13 28 17c5 2 22 1 29 -4l-1 -10c15 13 24 20 34 22c5 1 31 -1 36 -3c34 -16 45 -86 46 -112c4 -105 -49 -247 -105 -291c-33 -26 -46 -23 -85 -14zM119 442c-1 -3 0 -21 1 -24
c2 -28 -5 -18 0 -46c4 -22 12 -35 20 -38c22 -7 14 5 34 14c43 36 65 135 57 191c-4 25 -12 45 -26 51c-5 1 -11 1 -26 -3c-11 -7 -14 -7 -25 -10c-28 -21 -32 -75 -27 -112c-7 -7 -8 -17 -8 -23zM548 155c5 31 19 116 -15 141c-12 10 -33 3 -49 -6
c-40 -21 -39 -82 -37 -117c-4 -7 -6 -10 -6 -20c-2 -8 -2 -12 -2 -18c2 -4 4 -16 4 -20c-3 -8 -4 -10 -4 -20c1 -12 4 -28 8 -36c15 -19 7 -19 28 -19c43 33 65 69 73 115zM710 141c0 -8 4 -19 4 -26c0 -4 -3 -8 -3 -8l-1 -7c-1 -7 0 -11 0 -12c3 -9 4 -20 6 -27
c7 -15 14 -20 22 -21c12 -4 12 2 21 9c10 7 13 5 19 16c40 46 56 153 44 196c-5 19 -15 34 -27 38c-8 2 -43 -8 -51 -14c-26 -21 -30 -70 -25 -114l-5 -4c-2 -11 -4 -17 -4 -26z" />
    <glyph glyph-name="Acircumflex" unicode="&#xc2;" horiz-adv-x="498" 
d="M392 727c7 -2 26 -3 32 -14l-20 -76c1 -2 3 -3 6 -6c7 -6 4 -4 11 -9c10 -6 10 -4 20 -9c17 -8 28 -13 35 -26c10 -20 9 -31 14 -81l6 -73c1 -1 0 -12 0 -15v-15c0 -9 -1 -17 -1 -26v-25c0 -7 -3 -20 -1 -26c0 -13 0 -9 15 -20c5 -11 0 -19 -3 -31l-15 -12
c0 -6 2 -11 2 -16l-11 -116l-5 -23c0 -8 1 -15 1 -23l-6 -23c-2 -5 -4 -17 -4 -22c0 -7 -2 -14 -5 -23c-2 -6 -4 -21 -4 -23c-1 -2 -4 -11 -18 -22c-3 -2 -13 -13 -24 -13c-7 5 -8 20 -8 27v37c-1 4 1 11 1 16v134c0 8 4 17 4 25v16c0 1 -2 25 -4 28c-9 0 -9 2 -20 -5
l-16 -5c-6 -2 -44 -6 -47 -7l-22 -7c-8 -4 -17 -4 -25 -7c-44 -15 -51 -28 -94 -36c-9 -36 -11 -38 -27 -73l-9 -34c-7 -16 3 -9 -7 -24l-5 -16c-2 -3 -6 -8 -6 -15v-22l-5 -6l-1 -4l-2 -4l-9 -27c-4 -5 -5 -8 -10 -14c-6 -5 -6 -4 -14 -7c-11 -3 -17 -4 -30 1
c-3 24 -3 35 2 53l36 133l7 22v14l-24 5c3 38 -3 82 37 102c4 1 21 5 25 9c7 7 7 18 9 26c3 10 22 47 23 50l6 28c3 6 4 12 7 18l34 107c13 38 27 71 48 97l-10 11c2 12 -5 24 12 37c1 1 34 10 37 12l4 4l2 6c6 7 5 7 7 13c5 13 3 7 19 17c13 10 9 8 25 14c15 10 10 8 25 19
zM551 843c0 -7 1 -14 1 -21c0 -13 3 -8 -1 -22l-39 16c-7 4 -7 3 -15 6c-4 2 -12 6 -17 8l-24 10c-12 7 -26 16 -35 22h-10c-18 -19 -16 -13 -35 -27l-36 -18l-22 -14c-13 0 -18 9 -18 26c10 14 106 90 125 91c9 0 54 -30 64 -35c36 -18 27 -11 62 -42zM317 498
c0 -9 -2 -14 -7 -22l-3 -6l-1 -5c-2 -4 -4 -7 -7 -11c-3 -7 -6 -16 -9 -21c-9 -10 -10 -12 -14 -21l-28 -82c-3 -8 -2 -6 -10 -16c-2 -4 -6 -14 -8 -17v-18v-2h4l4 1h4l52 5c9 0 17 3 25 3h31c4 0 59 15 62 15v29c0 10 -3 21 -3 29v37c-1 6 -1 15 -1 20v29c0 6 1 13 1 17
c-24 40 -21 42 -64 66c-9 -6 -23 -22 -28 -30z" />
    <glyph glyph-name="Ecircumflex" unicode="&#xca;" horiz-adv-x="456" 
d="M492 591c-8 -11 -8 -4 -20 -9c-4 -1 -9 -1 -23 4c-15 4 -32 11 -45 12c-26 1 -68 -2 -92 -10c-14 -1 -19 3 -35 -7c-18 -13 -12 -18 -20 -34c-7 -20 -21 -13 -12 -35c-1 -9 -6 -25 -9 -34l-33 -125c-2 -6 -2 -12 -2 -19l13 -6c59 58 151 69 212 53l12 1l17 -25v-40
l-18 -22c-149 11 -232 -23 -233 -23c-26 -16 -20 -30 -24 -48c-4 -11 -7 -13 -7 -26c0 -8 -2 -17 -2 -25l-5 -16c-3 -7 -1 -15 1 -19l-11 -43c2 -4 0 -33 2 -38c4 0 13 -1 19 -1h18c82 7 159 13 241 56l10 6c8 -3 12 -6 12 -19c0 -6 -1 -15 -7 -24c-1 -3 -5 -11 -19 -21
c-13 -8 -10 -6 -23 -18c-8 -6 -13 -7 -22 -12c-4 -2 -16 -10 -25 -9c-53 -29 -183 -70 -248 -38v20c-13 13 -8 3 -21 7c-8 5 -6 11 -7 20c-1 8 1 25 1 47v45c0 8 4 5 6 13c-1 2 -4 9 -4 13l22 177c2 6 2 5 2 11l2 5l3 6l7 63c6 7 4 14 4 25l7 37c14 65 8 63 55 125
c17 23 102 86 122 93c38 14 156 17 175 0c18 -16 4 -74 4 -93zM550 810c0 -7 1 -14 1 -21c0 -13 3 -8 -1 -21l-39 15c-7 4 -7 3 -15 6c-4 2 -12 6 -17 8l-25 10l-34 22h-10c-18 -19 -16 -13 -35 -27l-36 -18l-21 -13c-14 0 -19 8 -19 25c10 14 106 90 125 91
c9 0 54 -29 64 -34c36 -18 27 -11 62 -43z" />
    <glyph glyph-name="Aacute" unicode="&#xc1;" horiz-adv-x="498" 
d="M385 727c7 -2 26 -3 32 -14l-20 -76c1 -2 3 -3 7 -6c6 -6 4 -4 10 -9c10 -6 10 -4 20 -9c17 -8 28 -13 35 -26c10 -20 9 -31 14 -81l6 -73c1 -1 0 -12 0 -15v-15c0 -9 -1 -17 -1 -26v-25c0 -7 -3 -20 -1 -26c0 -13 0 -9 15 -20c5 -11 0 -19 -2 -31l-16 -12
c0 -6 2 -11 2 -16l-11 -116l-5 -23c0 -8 1 -15 1 -23l-6 -23c-2 -5 -4 -17 -4 -22c0 -7 -2 -14 -5 -23c-2 -6 -4 -21 -4 -23c-1 -2 -4 -11 -18 -22c-3 -2 -13 -13 -24 -13c-6 5 -7 20 -7 27v37c-2 4 1 11 1 16v134c0 8 4 17 4 25v16c0 1 -2 25 -4 28c-10 0 -10 2 -21 -5
l-16 -5c-6 -2 -44 -6 -47 -7l-22 -7c-8 -4 -17 -4 -25 -7c-44 -15 -50 -28 -94 -36c-9 -36 -11 -38 -27 -73l-9 -34c-7 -16 3 -9 -7 -24l-4 -16c-3 -3 -7 -8 -7 -15v-22l-5 -6l-1 -4l-2 -4l-9 -27c-4 -5 -5 -8 -10 -14c-6 -5 -6 -4 -14 -7c-11 -3 -17 -4 -30 1
c-3 24 -3 35 2 53l36 133l7 22v14l-24 5c3 38 -3 82 37 102c4 1 22 5 25 9c7 7 7 18 9 26c3 10 22 47 23 50l6 28c3 6 4 12 7 18l34 107c13 38 27 71 48 97l-10 11c2 12 -5 24 12 37c1 1 34 10 37 12l4 4l2 6c7 7 6 7 8 13c4 13 2 7 18 17c13 10 9 8 25 14c15 10 10 8 25 19
zM498 951h18c5 -3 11 -15 11 -21c4 -11 3 -15 3 -26c0 0 -18 -23 -19 -25c-12 -10 -12 -5 -25 -11c-2 -1 -8 -4 -11 -5c-9 -4 -5 -2 -13 -7l-26 -10l-31 -14c-3 -1 -21 -6 -22 -7l-44 -20c-10 -5 -19 -10 -29 1c2 7 -1 16 6 24c4 7 19 13 25 16l68 35c7 5 28 24 45 34
c24 15 28 18 44 36zM310 498c0 -9 -2 -14 -7 -22l-3 -6l-1 -5c-2 -4 -4 -7 -7 -11c-3 -7 -6 -16 -9 -21c-9 -10 -10 -12 -14 -21l-28 -82c-3 -8 -2 -6 -10 -16c-2 -4 -5 -14 -7 -17v-18v-2h3l4 1h4l52 5c9 0 17 3 26 3h30c4 0 60 15 63 15v29c0 10 -3 21 -3 29v37
c-2 6 -2 15 -2 20v29c0 6 1 13 1 17c-24 40 -21 42 -64 66c-9 -6 -22 -22 -28 -30z" />
    <glyph glyph-name="Edieresis" unicode="&#xcb;" horiz-adv-x="456" 
d="M492 591c-8 -11 -8 -4 -20 -9c-4 -1 -9 -1 -23 4c-15 4 -32 11 -45 12c-26 1 -68 -2 -92 -10c-14 -1 -19 3 -35 -7c-18 -13 -12 -18 -20 -34c-7 -20 -21 -13 -12 -35c-1 -9 -6 -25 -9 -34l-33 -125c-2 -6 -2 -12 -2 -19l13 -6c59 58 151 69 212 53l12 1l17 -25v-40
l-18 -22c-149 11 -232 -23 -233 -23c-26 -16 -20 -30 -24 -48c-4 -11 -7 -13 -7 -26c0 -8 -2 -17 -2 -25l-5 -16c-3 -7 -1 -15 1 -19l-11 -43c2 -4 0 -33 2 -38c4 0 13 -1 19 -1h18c82 7 159 13 241 56l10 6c8 -3 12 -6 12 -19c0 -6 -1 -15 -7 -24c-1 -3 -5 -11 -19 -21
c-13 -8 -10 -6 -23 -18c-8 -6 -13 -7 -22 -12c-4 -2 -16 -10 -25 -9c-53 -29 -183 -70 -248 -38v20c-13 13 -8 3 -21 7c-8 5 -6 11 -7 20c-1 8 1 25 1 47v45c0 8 4 5 6 13c-1 2 -4 9 -4 13l22 177c2 6 2 5 2 11l2 5l3 6l7 63c6 7 4 14 4 25l7 37c14 65 8 63 55 125
c17 23 102 86 122 93c38 14 156 17 175 0c18 -16 4 -74 4 -93zM401 849c5 -8 3 -8 3 -20v-22c-3 -10 -2 -10 -14 -15c-5 -2 -5 -3 -9 -8l-5 -5l-6 -4l-16 3c-5 0 -10 -2 -15 -2c-11 -3 -20 1 -30 16c-7 10 -8 20 -5 28c4 11 24 36 44 41c11 3 22 -2 53 -12zM519 862
c18 -13 31 -23 28 -43c-5 -18 0 -17 -16 -27l-4 -2l-4 -2l-1 -4l-3 -4l-15 -7c-19 -9 -21 -8 -40 3c-18 0 -21 24 -21 31c1 21 21 34 36 42c7 4 14 10 21 12c6 3 11 0 19 1z" />
    <glyph glyph-name="Egrave" unicode="&#xc8;" horiz-adv-x="456" 
d="M492 591c-8 -11 -8 -4 -20 -9c-4 -1 -9 -1 -23 4c-15 4 -32 11 -45 12c-26 1 -68 -2 -92 -10c-14 -1 -19 3 -35 -7c-18 -13 -12 -18 -20 -34c-7 -20 -21 -13 -12 -35c-1 -9 -6 -25 -9 -34l-33 -125c-2 -6 -2 -12 -2 -19l13 -6c59 58 151 69 212 53l12 1l17 -25v-40
l-18 -22c-149 11 -232 -23 -233 -23c-26 -16 -20 -30 -24 -48c-4 -11 -7 -13 -7 -26c0 -8 -2 -17 -2 -25l-5 -16c-3 -7 -1 -15 1 -19l-11 -43c2 -4 0 -33 2 -38c4 0 13 -1 19 -1h18c82 7 159 13 241 56l10 6c8 -3 12 -6 12 -19c0 -6 -1 -15 -7 -24c-1 -3 -5 -11 -19 -21
c-13 -8 -10 -6 -23 -18c-8 -6 -13 -7 -22 -12c-4 -2 -16 -10 -25 -9c-53 -29 -183 -70 -248 -38v20c-13 13 -8 3 -21 7c-8 5 -6 11 -7 20c-1 8 1 25 1 47v45c0 8 4 5 6 13c-1 2 -4 9 -4 13l22 177c2 6 2 5 2 11l2 5l3 6l7 63c6 7 4 14 4 25l7 37c14 65 8 63 55 125
c17 23 102 86 122 93c38 14 156 17 175 0c18 -16 4 -74 4 -93zM359 921c60 -87 95 -93 179 -130v-10l-22 -13l-62 20c-14 5 -17 7 -26 9l-19 12c-7 2 -16 9 -26 15c-6 4 -22 13 -28 14c-23 12 -24 16 -41 43c2 14 -3 20 12 32c10 8 23 7 33 8z" />
    <glyph glyph-name="Iacute" unicode="&#xcd;" horiz-adv-x="207" 
d="M245 682c8 -9 8 -14 11 -23c0 -4 -4 -15 -4 -24v-17c-4 -10 -7 -10 -7 -26l-13 -71c0 -8 -4 -17 -4 -19l-17 -86c-3 -7 -5 -19 -5 -29l-19 -124l-3 -25l-11 -126c-4 -8 -3 -14 -3 -24c5 -17 1 -17 4 -25v-23l2 -13l3 -6l4 -6c0 -19 0 -9 -22 -32c-22 -13 -18 -15 -34 -15
l-15 9c-23 50 -14 116 -13 165v19l4 6c-4 38 -4 42 0 80l10 71v25c0 7 4 18 4 27c0 6 -3 18 0 26l-2 13l-7 4l-4 4l-2 4c-4 33 24 207 68 238c13 9 22 7 37 13c19 13 21 10 38 10zM383 900h19c5 -3 10 -15 10 -21c4 -11 3 -15 3 -25c0 0 -17 -23 -18 -25
c-13 -10 -13 -5 -26 -11c-2 -1 -8 -4 -11 -6c-9 -4 -5 -2 -13 -7l-26 -10l-31 -14c-3 -1 -21 -6 -22 -7l-43 -19c-10 -5 -19 -10 -30 1c2 7 -1 16 6 23c5 7 20 13 26 16l67 36c8 5 28 24 45 33c24 15 28 18 44 36z" />
    <glyph glyph-name="Icircumflex" unicode="&#xce;" horiz-adv-x="207" 
d="M245 682c8 -9 8 -14 11 -23c0 -4 -4 -15 -4 -24v-17c-4 -10 -7 -10 -7 -26l-13 -71c0 -8 -4 -17 -4 -19l-17 -86c-3 -7 -5 -19 -5 -29l-19 -124l-3 -25l-11 -126c-4 -8 -3 -14 -3 -24c5 -17 1 -17 4 -25v-23l2 -13l3 -6l4 -6c0 -19 0 -9 -22 -32c-22 -13 -18 -15 -34 -15
l-15 9c-23 50 -14 116 -13 165v19l4 6c-4 38 -4 42 0 80l10 71v25c0 7 4 18 4 27c0 6 -3 18 0 26l-2 13l-7 4l-4 4l-2 4c-4 33 24 207 68 238c13 9 22 7 37 13c19 13 21 10 38 10zM429 792c0 -7 1 -14 1 -20c0 -13 3 -8 -1 -22l-38 16c-7 4 -7 3 -16 6c-4 1 -12 5 -17 7
l-25 10l-33 22h-10c-19 -19 -17 -13 -36 -27l-35 -17l-22 -14c-14 0 -19 9 -19 25c10 14 106 90 126 91c9 0 53 -29 63 -34c37 -18 28 -11 62 -43z" />
    <glyph glyph-name="Idieresis" unicode="&#xcf;" horiz-adv-x="207" 
d="M245 682c8 -9 8 -14 11 -23c0 -4 -4 -15 -4 -24v-17c-4 -10 -7 -10 -7 -26l-13 -71c0 -8 -4 -17 -4 -19l-17 -86c-3 -7 -5 -19 -5 -29l-19 -124l-3 -25l-11 -126c-4 -8 -3 -14 -3 -24c5 -17 1 -17 4 -25v-23l2 -13l3 -6l4 -6c0 -19 0 -9 -22 -32c-22 -13 -18 -15 -34 -15
l-15 9c-23 50 -14 116 -13 165v19l4 6c-4 38 -4 42 0 80l10 71v25c0 7 4 18 4 27c0 6 -3 18 0 26l-2 13l-7 4l-4 4l-2 4c-4 33 24 207 68 238c13 9 22 7 37 13c19 13 21 10 38 10zM280 831c5 -8 3 -8 3 -20v-22c-3 -10 -2 -10 -14 -15c-5 -1 -5 -2 -9 -7l-5 -5l-6 -4l-16 3
c-5 0 -9 -2 -14 -2c-11 -3 -20 1 -31 15c-7 10 -8 20 -5 28c4 11 25 36 44 41c12 3 22 -2 53 -12zM399 844c17 -13 30 -23 27 -43c-5 -18 0 -17 -16 -27l-3 -1l-4 -2l-1 -4l-3 -4l-15 -8c-20 -9 -22 -8 -41 4c-17 0 -21 23 -21 30c1 21 21 34 36 42c7 4 14 10 21 12
c7 3 12 0 20 1z" />
    <glyph glyph-name="Igrave" unicode="&#xcc;" horiz-adv-x="207" 
d="M245 682c8 -9 8 -14 11 -23c0 -4 -4 -15 -4 -24v-17c-4 -10 -7 -10 -7 -26l-13 -71c0 -8 -4 -17 -4 -19l-17 -86c-3 -7 -5 -19 -5 -29l-19 -124l-3 -25l-11 -126c-4 -8 -3 -14 -3 -24c5 -17 1 -17 4 -25v-23l2 -13l3 -6l4 -6c0 -19 0 -9 -22 -32c-22 -13 -18 -15 -34 -15
l-15 9c-23 50 -14 116 -13 165v19l4 6c-4 38 -4 42 0 80l10 71v25c0 7 4 18 4 27c0 6 -3 18 0 26l-2 13l-7 4l-4 4l-2 4c-4 33 24 207 68 238c13 9 22 7 37 13c19 13 21 10 38 10zM238 903c61 -87 95 -93 179 -130v-9l-21 -14l-63 21c-14 4 -16 6 -25 8l-19 12
c-8 2 -17 9 -27 15c-6 4 -22 13 -28 14c-22 12 -23 16 -41 44c2 13 -3 19 13 31c10 8 21 7 32 8z" />
    <glyph glyph-name="Oacute" unicode="&#xd3;" horiz-adv-x="560" 
d="M99 285l-14 -26h-14l-5 4c-5 12 4 23 4 36c0 11 0 23 9 35l11 21c31 54 25 46 48 99l25 71c3 10 5 13 11 31l8 23c7 17 14 26 25 45c4 13 5 11 16 22c3 1 6 3 10 7c3 5 7 8 12 10l18 -15c-2 -23 -3 -28 -8 -39c-2 -4 -8 -13 -10 -18c-2 -6 -1 -5 -1 -10
c-2 -4 -3 -5 2 -11c19 20 28 28 64 53c33 24 32 29 66 32c14 14 10 13 23 13c3 -1 7 -3 11 -6c4 0 8 -2 13 -2c2 0 7 1 11 -1c5 -3 5 -5 12 -5l5 -1l6 -2l13 -10c81 -60 116 -160 111 -241c-9 -125 -54 -203 -161 -315c-61 -64 -154 -121 -227 -105c-41 8 -64 28 -81 70
c-13 36 -15 86 -15 120c0 8 -3 20 -3 30c2 5 2 10 4 15c0 4 0 11 1 14c0 7 1 7 4 14c5 9 1 8 1 16c0 5 2 10 2 15v8l-3 3h-4zM528 885h19c5 -3 11 -15 11 -21c4 -10 3 -14 3 -25c0 0 -18 -23 -19 -25c-13 -10 -13 -5 -26 -11l-12 -6c-7 -4 -4 -2 -11 -7l-26 -10l-32 -13
c-3 -1 -21 -6 -22 -7l-43 -20c-11 -5 -20 -10 -30 1c2 7 -1 16 6 24c5 7 20 12 26 15l67 36c8 5 29 24 46 34c22 14 27 17 43 35zM395 548c-46 15 -95 -3 -128 -30c-84 -67 -84 -234 -87 -304c-1 -37 8 -110 52 -144c20 -16 58 -6 72 -2c88 32 127 115 178 211
c2 22 11 43 14 78c0 11 -5 33 -5 76c-22 41 -46 100 -96 115z" />
    <glyph glyph-name="Ocircumflex" unicode="&#xd4;" horiz-adv-x="560" 
d="M99 285l-14 -26h-14l-5 4c-5 12 4 23 4 36c0 11 0 23 9 35l11 21c31 54 25 46 48 99l25 71c3 10 5 13 11 31l8 23c7 17 14 26 25 45c4 13 5 11 16 22c3 1 6 3 10 7c3 5 7 8 12 10l18 -15c-2 -23 -3 -28 -8 -39c-2 -4 -8 -13 -10 -18c-2 -6 -1 -5 -1 -10
c-2 -4 -3 -5 2 -11c19 20 28 28 64 53c33 24 32 29 66 32c14 14 10 13 23 13c3 -1 7 -3 11 -6c4 0 8 -2 13 -2c2 0 7 1 11 -1c5 -3 5 -5 12 -5l5 -1l6 -2l13 -10c81 -60 116 -160 111 -241c-9 -125 -54 -203 -161 -315c-61 -64 -154 -121 -227 -105c-41 8 -64 28 -81 70
c-13 36 -15 86 -15 120c0 8 -3 20 -3 30c2 5 2 10 4 15c0 4 0 11 1 14c0 7 1 7 4 14c5 9 1 8 1 16c0 5 2 10 2 15v8l-3 3h-4zM575 777c0 -6 1 -13 1 -20c0 -13 3 -8 -1 -22l-39 16c-7 4 -7 3 -16 6c-4 2 -12 6 -17 8l-23 9c-12 7 -26 16 -35 22h-10c-19 -19 -17 -13 -35 -26
l-36 -18l-22 -14c-14 0 -19 9 -19 26c10 13 106 90 126 91c9 0 53 -30 63 -35c37 -18 28 -11 63 -43zM395 548c-46 15 -95 -3 -128 -30c-84 -67 -84 -234 -87 -304c-1 -37 8 -110 52 -144c20 -16 58 -6 72 -2c88 32 127 115 178 211c2 22 11 43 14 78c0 11 -5 33 -5 76
c-22 41 -46 100 -96 115z" />
    <glyph glyph-name="Ograve" unicode="&#xd2;" horiz-adv-x="560" 
d="M103 285l-14 -26h-14l-5 4c-5 12 4 23 4 36c0 11 0 23 9 35l11 21c31 54 25 46 48 99l25 71c3 10 5 13 11 31l8 23c7 17 14 26 25 45c4 13 5 11 16 22c2 1 6 3 10 7c3 5 7 8 12 10l18 -15c-2 -23 -3 -28 -8 -39c-2 -4 -8 -13 -10 -18c-2 -6 -1 -5 -1 -10
c-2 -4 -3 -5 2 -11c19 20 28 28 64 53c33 24 32 29 66 32c14 14 10 13 23 13c3 -1 6 -3 11 -6c4 0 8 -2 13 -2c2 0 7 1 11 -1c5 -3 5 -5 12 -5l5 -1l6 -2l13 -10c81 -60 116 -160 111 -241c-9 -125 -54 -203 -161 -315c-61 -64 -154 -121 -227 -105c-41 8 -64 28 -81 70
c-13 36 -15 86 -15 120c0 8 -3 20 -3 30c2 5 2 10 4 15c0 4 0 11 1 14c0 7 1 7 4 14c5 9 1 8 1 16c0 5 2 10 2 15v8l-3 3h-4zM388 888c60 -87 95 -93 179 -129v-10l-22 -14l-62 21c-14 5 -17 7 -26 9l-19 11c-8 2 -17 9 -27 15c-4 4 -21 13 -27 14c-23 12 -24 16 -42 44
c2 14 -3 19 12 31c11 8 24 7 34 8zM399 548c-46 15 -95 -3 -128 -30c-84 -67 -84 -234 -87 -304c-1 -37 8 -110 52 -144c20 -16 58 -6 72 -2c88 32 127 115 178 211c2 22 11 43 14 78c0 11 -5 33 -5 76c-22 41 -46 100 -96 115z" />
    <glyph glyph-name="Uacute" unicode="&#xda;" horiz-adv-x="506" 
d="M544 709c6 -5 7 -8 7 -16c0 -7 1 -9 4 -16c1 -7 2 -14 1 -33v-28c-9 -84 -8 -78 -19 -126l-10 -39l-6 -18l-7 -35c-3 -10 -9 -19 -12 -28l-4 -34c-3 -8 -5 -19 -5 -27l-18 -86c-3 -10 -2 -23 -5 -35l-14 -82c-3 -28 -6 -55 15 -82v-7c-20 -29 -43 -64 -69 -66
c-7 -1 -16 1 -22 8c-17 20 -8 86 1 145v14c0 6 3 14 0 17l-17 -15l-10 -21c-1 -3 -5 -9 -6 -10c-3 -3 -8 -7 -11 -12c0 -6 -3 -12 -11 -20c-8 -11 -8 -10 -20 -21c-22 -23 -44 -43 -77 -48c-2 0 -11 2 -17 6l-4 -2l-5 -2h-9c-11 1 -21 5 -36 22c-34 37 -56 130 -53 177
c-10 11 -7 10 -7 22v18c-2 6 1 11 1 16v27c0 6 -3 12 -3 18v113c0 6 -3 17 -3 26v28v18c0 15 6 20 6 34v27c0 7 3 15 3 23v23c1 25 5 38 6 41c1 4 6 17 10 22c5 5 14 13 21 13c48 -74 64 -49 57 -113l-8 -62l-3 -21v-15c0 -8 -3 -20 -3 -30c-4 -9 -7 -10 -7 -28v-34
c1 -48 -6 -212 61 -261c12 -9 26 -12 45 -4c15 7 23 16 36 37c2 9 7 14 13 22c1 3 5 8 7 12c6 6 8 10 9 12c18 31 20 60 31 91l22 57c0 6 2 18 5 27l18 63l3 20c2 4 4 17 4 21l20 96c12 44 11 27 26 71l13 43c7 20 -1 16 19 31c15 5 24 16 37 16zM539 931h19
c5 -3 11 -15 11 -21c4 -11 3 -15 3 -26c0 0 -18 -22 -19 -24c-13 -10 -13 -5 -26 -11c-2 -1 -8 -4 -11 -6c-9 -4 -5 -2 -13 -7l-25 -10l-32 -14c-3 -1 -21 -6 -22 -7l-43 -20c-10 -5 -19 -10 -30 1c2 7 -1 16 6 24c5 7 20 13 26 16l67 36c8 4 29 23 46 33c23 15 27 18 43 36
z" />
    <glyph glyph-name="Ucircumflex" unicode="&#xdb;" horiz-adv-x="506" 
d="M544 709c6 -5 7 -8 7 -16c0 -7 1 -9 4 -16c1 -7 2 -14 1 -33v-28c-9 -84 -8 -78 -19 -126l-10 -39l-6 -18l-7 -35c-3 -10 -9 -19 -12 -28l-4 -34c-3 -8 -5 -19 -5 -27l-18 -86c-3 -10 -2 -23 -5 -35l-14 -82c-3 -28 -6 -55 15 -82v-7c-20 -29 -43 -64 -69 -66
c-7 -1 -16 1 -22 8c-17 20 -8 86 1 145v14c0 6 3 14 0 17l-17 -15l-10 -21c-1 -3 -5 -9 -6 -10c-3 -3 -8 -7 -11 -12c0 -6 -3 -12 -11 -20c-8 -11 -8 -10 -20 -21c-22 -23 -44 -43 -77 -48c-2 0 -11 2 -17 6l-4 -2l-5 -2h-9c-11 1 -21 5 -36 22c-34 37 -56 130 -53 177
c-10 11 -7 10 -7 22v18c-2 6 1 11 1 16v27c0 6 -3 12 -3 18v113c0 6 -3 17 -3 26v28v18c0 15 6 20 6 34v27c0 7 3 15 3 23v23c1 25 5 38 6 41c1 4 6 17 10 22c5 5 14 13 21 13c48 -74 64 -49 57 -113l-8 -62l-3 -21v-15c0 -8 -3 -20 -3 -30c-4 -9 -7 -10 -7 -28v-34
c1 -48 -6 -212 61 -261c12 -9 26 -12 45 -4c15 7 23 16 36 37c2 9 7 14 13 22c1 3 5 8 7 12c6 6 8 10 9 12c18 31 20 60 31 91l22 57c0 6 2 18 5 27l18 63l3 20c2 4 4 17 4 21l20 96c12 44 11 27 26 71l13 43c7 20 -1 16 19 31c15 5 24 16 37 16zM586 823c0 -7 1 -14 1 -21
c0 -13 3 -8 -1 -22l-39 16c-7 4 -7 3 -16 6c-4 2 -12 6 -17 8l-23 10c-12 7 -26 16 -35 22h-10c-19 -19 -17 -13 -36 -27l-35 -18l-22 -14c-14 0 -19 9 -19 26c10 14 106 90 126 91c9 0 53 -30 63 -35c37 -17 28 -10 63 -42z" />
    <glyph glyph-name="Ugrave" unicode="&#xd9;" horiz-adv-x="506" 
d="M544 709c6 -5 7 -8 7 -16c0 -7 1 -9 4 -16c1 -7 2 -14 1 -33v-28c-9 -84 -8 -78 -19 -126l-10 -39l-6 -18l-7 -35c-3 -10 -9 -19 -12 -28l-4 -34c-3 -8 -5 -19 -5 -27l-18 -86c-3 -10 -2 -23 -5 -35l-14 -82c-3 -28 -6 -55 15 -82v-7c-20 -29 -43 -64 -69 -66
c-7 -1 -16 1 -22 8c-17 20 -8 86 1 145v14c0 6 3 14 0 17l-17 -15l-10 -21c-1 -3 -5 -9 -6 -10c-3 -3 -8 -7 -11 -12c0 -6 -3 -12 -11 -20c-8 -11 -8 -10 -20 -21c-22 -23 -44 -43 -77 -48c-2 0 -11 2 -17 6l-4 -2l-5 -2h-9c-11 1 -21 5 -36 22c-34 37 -56 130 -53 177
c-10 11 -7 10 -7 22v18c-2 6 1 11 1 16v27c0 6 -3 12 -3 18v113c0 6 -3 17 -3 26v28v18c0 15 6 20 6 34v27c0 7 3 15 3 23v23c1 25 5 38 6 41c1 4 6 17 10 22c5 5 14 13 21 13c48 -74 64 -49 57 -113l-8 -62l-3 -21v-15c0 -8 -3 -20 -3 -30c-4 -9 -7 -10 -7 -28v-34
c1 -48 -6 -212 61 -261c12 -9 26 -12 45 -4c15 7 23 16 36 37c2 9 7 14 13 22c1 3 5 8 7 12c6 6 8 10 9 12c18 31 20 60 31 91l22 57c0 6 2 18 5 27l18 63l3 20c2 4 4 17 4 21l20 96c12 44 11 27 26 71l13 43c7 20 -1 16 19 31c15 5 24 16 37 16zM395 934
c60 -87 95 -93 179 -130v-10l-22 -14l-62 21c-14 5 -17 7 -26 9l-19 12c-8 3 -17 9 -27 15c-5 4 -21 13 -27 14c-23 12 -24 15 -42 43c2 14 -3 20 12 32c11 8 23 7 34 8z" />
    <glyph glyph-name="dotlessi" unicode="&#x131;" horiz-adv-x="343" 
d="M162 270c26 -1 48 -6 59 -27c3 -5 12 -104 28 -121c5 -6 13 -11 29 -9c9 2 19 7 32 17c9 9 22 22 33 22v-55c-49 -46 -92 -76 -129 -65c-8 3 -18 8 -35 29c-3 4 -8 10 -13 19c-4 5 -6 14 -6 20c-13 18 -14 21 -18 27c-6 9 -5 21 -20 20c-2 0 -39 -29 -41 -31
c-2 -3 -3 -6 -9 -9c-3 -2 -6 -2 -10 -7c-3 -3 -10 -14 -18 -11c0 10 2 50 4 63c18 11 21 11 29 24l25 29c3 4 15 17 23 24z" />
    <glyph glyph-name="circumflex" unicode="&#x2c6;" horiz-adv-x="297" 
d="M295 474c0 -7 1 -14 1 -21c0 -13 3 -8 -1 -22l-39 16c-7 4 -7 3 -16 6l-16 8l-25 10l-34 22h-10c-19 -19 -17 -13 -35 -27l-36 -18l-22 -14c-14 0 -18 9 -18 26c9 14 105 90 125 91c9 0 54 -30 63 -35c37 -17 28 -11 63 -42z" />
    <glyph glyph-name="tilde" unicode="&#x2dc;" horiz-adv-x="359" 
d="M223 537l14 -21v-27l6 -8c7 0 7 1 20 6l20 5l18 5c16 8 13 4 27 15c8 5 21 8 30 4c1 -4 0 -26 -5 -29c-8 -13 -13 -15 -28 -22c-12 -7 -122 -38 -135 -31c-10 6 -12 17 -16 45c-5 8 -13 7 -19 9c-9 -1 -12 -4 -20 -8l-14 -8l-4 -1l-5 -2c-1 -1 -7 -3 -10 -4
c-7 -3 -18 -10 -20 -11c-6 -3 -10 -4 -19 -7c-4 -3 -11 -8 -18 -4c1 25 -6 31 23 49c44 24 109 50 155 45z" />
    <glyph glyph-name="macron" unicode="&#xaf;" horiz-adv-x="358" 
d="M349 514c2 -7 5 -15 5 -24c0 -1 1 -7 4 -11l-3 -7l-1 -6c-6 -5 -16 -6 -26 -6c-2 -1 -21 -3 -26 -3h-16c-6 0 -8 1 -11 1c-4 -1 -4 0 -11 -2h-86c-13 -1 -18 -3 -32 -2c-16 6 -16 4 -33 4h-18c-2 1 -23 0 -27 -1c-5 0 -20 0 -24 9c3 11 4 11 14 26c9 13 9 16 22 20
c9 4 16 1 27 0c9 0 19 2 28 2h120h47h23c4 1 18 2 24 0z" />
    <glyph glyph-name="breve" unicode="&#x2d8;" horiz-adv-x="308" 
d="M76 538l1 -9c62 -58 79 -52 147 -36c7 3 9 7 17 7l34 32l11 7c5 0 6 2 10 4l12 -14c-9 -45 -36 -74 -80 -89c-36 -12 -106 -19 -157 26c-18 15 -30 40 -27 58c1 12 5 18 10 21c3 0 14 1 22 -7z" />
    <glyph glyph-name="ring" unicode="&#x2da;" horiz-adv-x="203" 
d="M198 534c8 -42 0 -34 -4 -73c-32 -33 -65 -45 -101 -36c-19 4 -43 16 -48 33c-5 14 5 43 20 62c22 30 48 38 81 36c19 -1 26 -4 52 -22zM114 460c22 0 37 7 46 23c6 12 4 22 1 27c-6 9 -20 11 -32 9c-36 -5 -38 -22 -47 -48c12 -12 25 -11 32 -11z" />
    </font>
</defs>
</svg>
